<svg xmlns="http://www.w3.org/2000/svg" xmlns:xlink="http://www.w3.org/1999/xlink" width="500" zoomAndPan="magnify" viewBox="0 0 375 374.999991" height="500" preserveAspectRatio="xMidYMid meet" version="1.0"><rect x="-37.5" width="450" fill="#ffffff" y="-37.499999" height="449.999989" fill-opacity="1"/><rect x="-37.5" width="450" fill="#ffffff" y="-37.499999" height="449.999989" fill-opacity="1"/><rect x="-37.5" width="450" fill="#ffffff" y="-37.499999" height="449.999989" fill-opacity="1"/><rect x="-37.5" width="450" fill="#fd9d24" y="-37.499999" height="449.999989" fill-opacity="1"/><path fill="#ffffff" d="M 27.035156 45.214844 L 27.035156 58.5 L 36.125 49.175781 L 36.125 106.976562 L 48.945312 106.976562 L 48.945312 31.464844 L 38.6875 31.464844 Z M 55.933594 45.214844 L 55.933594 58.5 L 56.167969 58.5 L 65.023438 49.175781 L 65.023438 106.976562 L 77.84375 106.976562 L 77.84375 31.464844 L 67.589844 31.464844 Z M 55.933594 45.214844 " fill-opacity="1" fill-rule="nonzero"/><path fill="#ffffff" d="M 61.996094 285.503906 L 118.398438 285.503906 C 119.097656 285.503906 119.792969 284.804688 119.792969 284.105469 C 119.792969 283.640625 119.5625 283.40625 119.328125 283.171875 L 91.359375 246.816406 L 91.128906 246.582031 C 90.894531 246.347656 90.429688 246.117188 90.195312 246.117188 C 89.960938 246.117188 89.496094 246.347656 89.261719 246.582031 L 89.03125 246.816406 L 88.796875 247.046875 L 61.296875 282.941406 L 60.828125 283.40625 C 60.597656 283.640625 60.597656 283.871094 60.597656 284.105469 C 60.597656 284.804688 61.296875 285.503906 61.996094 285.503906 Z M 118.164062 290.628906 L 61.527344 290.628906 C 60.828125 290.628906 60.128906 291.328125 60.128906 292.027344 L 60.128906 336.3125 C 60.128906 337.011719 60.828125 337.710938 61.527344 337.710938 L 79.707031 337.710938 L 79.707031 309.976562 C 79.707031 309.277344 80.40625 308.578125 81.105469 308.578125 L 97.886719 308.578125 C 98.585938 308.578125 99.285156 309.277344 99.285156 309.976562 L 99.285156 337.710938 L 117.929688 337.710938 C 118.628906 337.710938 119.328125 337.011719 119.328125 336.3125 L 119.328125 292.027344 C 119.5625 291.328125 119.097656 290.628906 118.164062 290.628906 Z M 313.472656 278.976562 L 257.535156 278.976562 C 256.835938 278.976562 256.136719 279.675781 256.136719 280.375 L 256.136719 336.777344 C 256.136719 337.476562 256.835938 338.175781 257.535156 338.175781 L 313.472656 338.175781 C 314.171875 338.175781 314.871094 337.476562 314.871094 336.777344 L 314.871094 280.375 C 314.871094 279.675781 314.402344 278.976562 313.472656 278.976562 M 282.941406 316.035156 C 282.941406 316.734375 282.242188 317.433594 281.542969 317.433594 L 264.761719 317.433594 C 264.0625 317.433594 263.363281 316.734375 263.363281 316.035156 L 263.363281 305.78125 C 263.363281 305.082031 264.0625 304.382812 264.761719 304.382812 L 281.542969 304.382812 C 282.242188 304.382812 282.941406 305.082031 282.941406 305.78125 Z M 282.941406 297.15625 C 282.941406 297.855469 282.242188 298.554688 281.542969 298.554688 L 264.761719 298.554688 C 264.0625 298.554688 263.363281 297.855469 263.363281 297.15625 L 263.363281 286.902344 C 263.363281 286.203125 264.0625 285.503906 264.761719 285.503906 L 281.542969 285.503906 C 282.242188 285.503906 282.941406 286.203125 282.941406 286.902344 Z M 308.578125 316.035156 C 308.578125 316.734375 307.878906 317.433594 307.179688 317.433594 L 290.398438 317.433594 C 289.699219 317.433594 289 316.734375 289 316.035156 L 289 305.78125 C 289 305.082031 289.699219 304.382812 290.398438 304.382812 L 307.179688 304.382812 C 307.878906 304.382812 308.578125 305.082031 308.578125 305.78125 Z M 308.578125 297.15625 C 308.578125 297.855469 307.878906 298.554688 307.179688 298.554688 L 290.398438 298.554688 C 289.699219 298.554688 289 297.855469 289 297.15625 L 289 286.902344 C 289 286.203125 289.699219 285.503906 290.398438 285.503906 L 307.179688 285.503906 C 307.878906 285.503906 308.578125 286.203125 308.578125 286.902344 Z M 183.421875 147.996094 L 128.882812 147.996094 C 128.183594 147.996094 127.484375 148.695312 127.484375 149.394531 L 127.484375 336.542969 C 127.484375 337.242188 128.183594 337.941406 128.882812 337.941406 L 183.65625 337.941406 C 184.355469 337.941406 185.054688 337.242188 185.054688 336.542969 L 185.054688 149.394531 C 184.820312 148.460938 184.355469 147.996094 183.421875 147.996094 M 151.027344 316.5 C 151.027344 316.96875 150.792969 317.199219 150.328125 317.199219 L 137.742188 317.199219 C 137.273438 317.199219 137.042969 316.96875 137.042969 316.5 L 137.042969 302.515625 C 137.042969 302.050781 137.273438 301.816406 137.742188 301.816406 L 150.328125 301.816406 C 150.792969 301.816406 151.027344 302.050781 151.027344 302.515625 Z M 151.027344 284.339844 C 151.027344 284.804688 150.792969 285.039062 150.328125 285.039062 L 137.742188 285.039062 C 137.273438 285.039062 137.042969 284.804688 137.042969 284.339844 L 137.042969 270.355469 C 137.042969 269.886719 137.273438 269.65625 137.742188 269.65625 L 150.328125 269.65625 C 150.792969 269.65625 151.027344 269.886719 151.027344 270.355469 Z M 151.027344 252.175781 C 151.027344 252.640625 150.792969 252.875 150.328125 252.875 L 137.742188 252.875 C 137.273438 252.875 137.042969 252.640625 137.042969 252.175781 L 137.042969 238.191406 C 137.042969 237.726562 137.273438 237.492188 137.742188 237.492188 L 150.328125 237.492188 C 150.792969 237.492188 151.027344 237.726562 151.027344 238.191406 Z M 151.027344 220.246094 C 151.027344 220.710938 150.792969 220.945312 150.328125 220.945312 L 137.742188 220.945312 C 137.273438 220.945312 137.042969 220.710938 137.042969 220.246094 L 137.042969 206.261719 C 137.042969 205.796875 137.273438 205.5625 137.742188 205.5625 L 150.328125 205.5625 C 150.792969 205.5625 151.027344 205.796875 151.027344 206.261719 Z M 151.027344 188.082031 C 151.027344 188.546875 150.792969 188.78125 150.328125 188.78125 L 137.742188 188.78125 C 137.273438 188.78125 137.042969 188.546875 137.042969 188.082031 L 137.042969 174.097656 C 137.042969 173.632812 137.273438 173.398438 137.742188 173.398438 L 150.328125 173.398438 C 150.792969 173.398438 151.027344 173.632812 151.027344 174.097656 Z M 175.496094 316.5 C 175.496094 316.96875 175.265625 317.199219 174.796875 317.199219 L 162.210938 317.199219 C 161.746094 317.199219 161.511719 316.96875 161.511719 316.5 L 161.511719 302.515625 C 161.511719 302.050781 161.746094 301.816406 162.210938 301.816406 L 174.796875 301.816406 C 175.265625 301.816406 175.496094 302.050781 175.496094 302.515625 Z M 175.496094 284.339844 C 175.496094 284.804688 175.265625 285.039062 174.796875 285.039062 L 162.210938 285.039062 C 161.746094 285.039062 161.511719 284.804688 161.511719 284.339844 L 161.511719 270.355469 C 161.511719 269.886719 161.746094 269.65625 162.210938 269.65625 L 174.796875 269.65625 C 175.265625 269.65625 175.496094 269.886719 175.496094 270.355469 Z M 175.496094 252.175781 C 175.496094 252.640625 175.265625 252.875 174.796875 252.875 L 162.210938 252.875 C 161.746094 252.875 161.511719 252.640625 161.511719 252.175781 L 161.511719 238.191406 C 161.511719 237.726562 161.746094 237.492188 162.210938 237.492188 L 174.796875 237.492188 C 175.265625 237.492188 175.496094 237.726562 175.496094 238.191406 Z M 175.496094 220.246094 C 175.496094 220.710938 175.265625 220.945312 174.796875 220.945312 L 162.210938 220.945312 C 161.746094 220.945312 161.511719 220.710938 161.511719 220.246094 L 161.511719 206.261719 C 161.511719 205.796875 161.746094 205.5625 162.210938 205.5625 L 174.796875 205.5625 C 175.265625 205.5625 175.496094 205.796875 175.496094 206.261719 Z M 175.496094 188.082031 C 175.496094 188.546875 175.265625 188.78125 174.796875 188.78125 L 162.210938 188.78125 C 161.746094 188.78125 161.511719 188.546875 161.511719 188.082031 L 161.511719 174.097656 C 161.511719 173.632812 161.746094 173.398438 162.210938 173.398438 L 174.796875 173.398438 C 175.265625 173.398438 175.496094 173.632812 175.496094 174.097656 Z M 314.871094 273.382812 C 314.871094 274.082031 314.402344 274.550781 313.703125 274.550781 L 257.300781 274.550781 C 256.601562 274.550781 256.136719 274.082031 256.136719 273.382812 L 256.136719 262.195312 C 256.136719 261.496094 256.601562 261.03125 257.300781 261.03125 L 313.703125 261.03125 C 314.402344 261.03125 314.871094 261.496094 314.871094 262.195312 Z M 249.613281 183.1875 C 249.378906 182.488281 248.914062 182.257812 248.214844 182.257812 C 247.980469 182.257812 247.746094 182.257812 247.515625 182.488281 L 247.046875 182.957031 L 193.210938 251.242188 L 192.976562 251.476562 C 192.742188 251.710938 192.511719 252.175781 192.511719 252.640625 L 192.511719 336.542969 C 192.511719 337.242188 193.210938 337.941406 193.910156 337.941406 L 248.679688 337.941406 C 249.378906 337.941406 250.078125 337.242188 250.078125 336.542969 L 250.078125 183.65625 C 249.84375 183.65625 249.84375 183.421875 249.613281 183.1875 Z M 227.003906 220.246094 L 227.46875 219.78125 C 231.199219 215.117188 237.257812 207.425781 240.289062 203.699219 L 240.753906 203.230469 C 240.988281 203 241.453125 202.765625 241.921875 202.765625 C 242.621094 202.765625 243.320312 203.230469 243.320312 203.929688 L 243.320312 221.179688 C 243.320312 222.109375 242.621094 222.574219 241.921875 222.808594 L 228.402344 222.808594 C 227.46875 222.808594 227.003906 222.109375 227.003906 221.179688 C 226.769531 220.945312 226.769531 220.480469 227.003906 220.246094 Z M 218.382812 315.800781 C 218.382812 316.5 217.683594 317.199219 216.984375 317.199219 L 200.667969 317.199219 C 199.96875 317.199219 199.269531 316.5 199.269531 315.800781 L 199.269531 305.546875 C 199.269531 304.847656 199.96875 304.148438 200.667969 304.148438 L 216.984375 304.148438 C 217.683594 304.148438 218.382812 304.847656 218.382812 305.546875 Z M 218.382812 297.15625 C 218.382812 297.855469 217.683594 298.554688 216.984375 298.554688 L 200.667969 298.554688 C 199.96875 298.554688 199.269531 297.855469 199.269531 297.15625 L 199.269531 286.902344 C 199.269531 286.203125 199.96875 285.503906 200.667969 285.503906 L 216.984375 285.503906 C 217.683594 285.503906 218.382812 286.203125 218.382812 286.902344 Z M 218.382812 278.277344 C 218.382812 278.976562 217.683594 279.675781 216.984375 279.675781 L 200.667969 279.675781 C 199.96875 279.675781 199.269531 278.976562 199.269531 278.277344 L 199.269531 268.023438 C 199.269531 267.324219 199.96875 266.625 200.667969 266.625 L 216.984375 266.625 C 217.683594 266.625 218.382812 267.324219 218.382812 268.023438 Z M 218.613281 236.792969 L 218.613281 259.167969 C 218.613281 259.867188 217.914062 260.566406 217.214844 260.566406 L 200.902344 260.566406 C 200.203125 260.566406 199.503906 259.867188 199.503906 259.167969 L 199.503906 255.671875 C 199.503906 255.671875 199.503906 255.4375 199.734375 255.4375 C 199.734375 255.4375 199.734375 255.207031 199.96875 255.207031 C 202.066406 252.175781 211.390625 240.523438 215.351562 235.859375 L 215.816406 235.394531 C 216.050781 235.160156 216.515625 234.929688 216.984375 234.929688 C 217.683594 234.929688 218.382812 235.394531 218.382812 236.09375 L 218.382812 236.792969 Z M 243.550781 315.800781 C 243.550781 316.5 242.851562 317.199219 242.152344 317.199219 L 225.839844 317.199219 C 225.140625 317.199219 224.441406 316.5 224.441406 315.800781 L 224.441406 305.546875 C 224.441406 304.847656 225.140625 304.148438 225.839844 304.148438 L 242.152344 304.148438 C 242.851562 304.148438 243.550781 304.847656 243.550781 305.546875 Z M 243.550781 297.15625 C 243.550781 297.855469 242.851562 298.554688 242.152344 298.554688 L 225.839844 298.554688 C 225.140625 298.554688 224.441406 297.855469 224.441406 297.15625 L 224.441406 286.902344 C 224.441406 286.203125 225.140625 285.503906 225.839844 285.503906 L 242.152344 285.503906 C 242.851562 285.503906 243.550781 286.203125 243.550781 286.902344 Z M 243.550781 278.277344 C 243.550781 278.976562 242.851562 279.675781 242.152344 279.675781 L 225.839844 279.675781 C 225.140625 279.675781 224.441406 278.976562 224.441406 278.277344 L 224.441406 268.023438 C 224.441406 267.324219 225.140625 266.625 225.839844 266.625 L 242.152344 266.625 C 242.851562 266.625 243.550781 267.324219 243.550781 268.023438 Z M 243.550781 259.398438 C 243.550781 260.097656 242.851562 260.796875 242.152344 260.796875 L 225.839844 260.796875 C 225.140625 260.796875 224.441406 260.097656 224.441406 259.398438 L 224.441406 249.144531 C 224.441406 248.445312 225.140625 247.746094 225.839844 247.746094 L 242.152344 247.746094 C 242.851562 247.746094 243.550781 248.445312 243.550781 249.144531 Z M 243.550781 240.523438 C 243.550781 241.222656 242.851562 241.921875 242.152344 241.921875 L 225.839844 241.921875 C 225.140625 241.921875 224.441406 241.222656 224.441406 240.523438 L 224.441406 230.265625 C 224.441406 229.566406 225.140625 228.867188 225.839844 228.867188 L 242.152344 228.867188 C 242.851562 228.867188 243.550781 229.566406 243.550781 230.265625 Z M 243.550781 240.523438 " fill-opacity="1" fill-rule="nonzero"/><path fill="#ffffff" d="M 102.546875 55.46875 L 102.546875 51.273438 L 107.441406 51.273438 L 107.441406 55.46875 C 107.441406 57.101562 108.140625 58.265625 110.007812 58.265625 C 111.636719 58.265625 112.335938 57.101562 112.335938 55.46875 L 112.335938 54.304688 C 112.335938 52.4375 111.636719 51.507812 110.007812 49.875 L 106.976562 46.847656 C 103.945312 44.050781 102.78125 42.183594 102.78125 38.6875 L 102.78125 37.757812 C 102.78125 34.027344 105.113281 30.996094 110.007812 30.996094 C 115.132812 30.996094 117.230469 33.5625 117.230469 37.988281 L 117.230469 40.554688 L 112.570312 40.554688 L 112.570312 37.988281 C 112.570312 36.125 111.871094 35.425781 110.238281 35.425781 C 108.839844 35.425781 107.910156 36.125 107.910156 37.988281 L 107.910156 38.6875 C 107.910156 40.320312 108.839844 41.484375 110.238281 42.882812 L 113.503906 46.148438 C 116.300781 48.945312 117.699219 50.808594 117.699219 54.070312 L 117.699219 55.46875 C 117.699219 59.664062 115.367188 62.695312 110.238281 62.695312 C 105.113281 62.695312 102.546875 59.429688 102.546875 55.46875 Z M 134.476562 31.464844 L 134.476562 54.535156 C 134.476562 59.199219 132.378906 62.460938 127.253906 62.460938 C 121.890625 62.460938 119.5625 59.429688 119.5625 54.535156 L 119.5625 31.464844 L 124.6875 31.464844 L 124.6875 55.234375 C 124.6875 57.101562 125.386719 58.265625 127.253906 58.265625 C 129.117188 58.265625 129.816406 57.101562 129.816406 55.234375 L 129.816406 31.464844 Z M 137.273438 55.46875 L 137.273438 51.273438 L 142.167969 51.273438 L 142.167969 55.46875 C 142.167969 57.101562 142.867188 58.265625 144.734375 58.265625 C 146.363281 58.265625 147.0625 57.101562 147.0625 55.46875 L 147.0625 54.304688 C 147.0625 52.4375 146.363281 51.507812 144.734375 49.875 L 141.703125 46.847656 C 138.671875 44.050781 137.507812 42.183594 137.507812 38.6875 L 137.507812 37.757812 C 137.507812 34.027344 139.605469 30.996094 144.734375 30.996094 C 149.859375 30.996094 151.957031 33.5625 151.957031 37.988281 L 151.957031 40.554688 L 147.296875 40.554688 L 147.296875 37.988281 C 147.296875 36.125 146.597656 35.425781 144.964844 35.425781 C 143.566406 35.425781 142.636719 36.125 142.636719 37.988281 L 142.636719 38.6875 C 142.636719 40.320312 143.566406 41.484375 144.964844 42.882812 L 148.230469 46.148438 C 151.027344 48.945312 152.425781 50.808594 152.425781 54.070312 L 152.425781 55.46875 C 152.425781 59.664062 150.09375 62.695312 144.964844 62.695312 C 139.140625 62.460938 137.273438 59.429688 137.273438 55.46875 Z M 153.125 31.464844 L 166.875 31.464844 L 166.875 35.660156 L 162.679688 35.660156 L 162.679688 61.996094 L 157.550781 61.996094 L 157.550781 35.660156 L 153.355469 35.660156 L 153.355469 31.464844 Z M 165.941406 61.996094 L 171.769531 31.464844 L 177.59375 31.464844 L 183.421875 61.996094 L 178.0625 61.996094 L 177.128906 56.402344 L 171.769531 56.402344 L 170.835938 61.996094 Z M 172.46875 52.207031 L 176.664062 52.207031 L 174.566406 39.855469 Z M 185.519531 31.464844 L 190.644531 31.464844 L 190.644531 61.996094 L 185.519531 61.996094 Z M 197.871094 42.652344 L 197.871094 61.996094 L 193.441406 61.996094 L 193.441406 31.464844 L 198.570312 31.464844 L 204.164062 48.945312 L 204.164062 31.464844 L 208.359375 31.464844 L 208.359375 61.996094 L 203.929688 61.996094 Z M 210.222656 61.996094 L 216.050781 31.464844 L 221.875 31.464844 L 227.703125 61.996094 L 222.34375 61.996094 L 221.410156 56.402344 L 216.050781 56.402344 L 215.117188 61.996094 Z M 216.75 52.207031 L 220.945312 52.207031 L 218.847656 39.855469 Z M 229.335938 31.464844 L 236.792969 31.464844 C 241.921875 31.464844 243.550781 33.792969 243.550781 38.222656 L 243.550781 41.253906 C 243.550781 43.816406 242.621094 45.449219 240.523438 46.148438 C 243.085938 46.847656 244.25 48.476562 244.25 51.273438 L 244.25 55.234375 C 244.25 59.664062 242.386719 61.996094 237.257812 61.996094 L 229.335938 61.996094 Z M 234.460938 44.28125 L 236.328125 44.28125 C 237.957031 44.28125 238.65625 43.351562 238.65625 41.71875 L 238.65625 37.988281 C 238.65625 36.359375 237.957031 35.425781 236.09375 35.425781 L 234.230469 35.425781 Z M 234.460938 48.246094 L 234.460938 57.800781 L 236.792969 57.800781 C 238.425781 57.800781 239.355469 56.867188 239.355469 55.234375 L 239.355469 50.574219 C 239.355469 48.945312 238.65625 48.011719 236.792969 48.011719 L 234.460938 48.011719 Z M 246.582031 31.464844 L 251.710938 31.464844 L 251.710938 57.800781 L 257.769531 57.800781 L 257.769531 61.996094 L 246.582031 61.996094 Z M 259.867188 31.464844 L 272.21875 31.464844 L 272.21875 35.660156 L 264.992188 35.660156 L 264.992188 44.515625 L 270.121094 44.515625 L 270.121094 48.710938 L 264.992188 48.710938 L 264.992188 58.03125 L 272.21875 58.03125 L 272.21875 62.226562 L 259.867188 62.226562 Z M 280.84375 54.070312 L 280.84375 39.15625 C 280.84375 34.261719 283.171875 30.996094 288.535156 30.996094 C 294.125 30.996094 295.757812 34.261719 295.757812 38.6875 L 295.757812 42.417969 L 291.097656 42.417969 L 291.097656 38.222656 C 291.097656 36.359375 290.398438 35.191406 288.535156 35.191406 C 286.667969 35.191406 285.96875 36.589844 285.96875 38.457031 L 285.96875 55.003906 C 285.96875 56.867188 286.667969 58.265625 288.535156 58.265625 C 290.398438 58.265625 291.097656 57.101562 291.097656 55.234375 L 291.097656 49.644531 L 295.757812 49.644531 L 295.757812 55.003906 C 295.757812 59.429688 293.894531 62.695312 288.535156 62.695312 C 282.941406 62.460938 280.84375 58.730469 280.84375 54.070312 Z M 298.089844 31.464844 L 303.214844 31.464844 L 303.214844 61.996094 L 298.089844 61.996094 Z M 305.082031 31.464844 L 318.832031 31.464844 L 318.832031 35.660156 L 314.636719 35.660156 L 314.636719 61.996094 L 309.507812 61.996094 L 309.507812 35.660156 L 305.3125 35.660156 L 305.3125 31.464844 Z M 320.929688 31.464844 L 326.054688 31.464844 L 326.054688 61.996094 L 320.929688 61.996094 Z M 328.851562 31.464844 L 341.207031 31.464844 L 341.207031 35.660156 L 333.980469 35.660156 L 333.980469 44.515625 L 339.109375 44.515625 L 339.109375 48.710938 L 333.980469 48.710938 L 333.980469 58.03125 L 341.207031 58.03125 L 341.207031 62.226562 L 328.851562 62.226562 Z M 342.371094 55.46875 L 342.371094 51.273438 L 347.265625 51.273438 L 347.265625 55.46875 C 347.265625 57.101562 347.964844 58.265625 349.828125 58.265625 C 351.460938 58.265625 352.160156 57.101562 352.160156 55.46875 L 352.160156 54.304688 C 352.160156 52.4375 351.460938 51.507812 349.828125 49.875 L 346.800781 46.847656 C 343.769531 44.050781 342.605469 42.183594 342.605469 38.6875 L 342.605469 37.757812 C 342.605469 34.027344 344.933594 30.996094 349.828125 30.996094 C 354.957031 30.996094 357.054688 33.5625 357.054688 37.988281 L 357.054688 40.554688 L 352.394531 40.554688 L 352.394531 37.988281 C 352.394531 36.125 351.695312 35.425781 350.0625 35.425781 C 348.664062 35.425781 347.730469 36.125 347.730469 37.988281 L 347.730469 38.6875 C 347.730469 40.320312 348.664062 41.484375 350.0625 42.882812 L 353.324219 46.148438 C 356.121094 48.945312 357.519531 50.808594 357.519531 54.070312 L 357.519531 55.46875 C 357.519531 59.664062 355.191406 62.695312 350.0625 62.695312 C 344.933594 62.695312 342.371094 59.429688 342.371094 55.46875 Z M 342.371094 55.46875 " fill-opacity="1" fill-rule="nonzero"/><path fill="#ffffff" d="M 102.546875 106.976562 L 108.375 76.445312 L 114.203125 76.445312 L 120.027344 106.976562 L 114.902344 106.976562 L 113.96875 101.382812 L 108.609375 101.382812 L 107.675781 106.976562 Z M 109.074219 97.421875 L 113.269531 97.421875 L 111.171875 85.070312 Z M 126.554688 87.863281 L 126.554688 107.210938 L 122.125 107.210938 L 122.125 76.679688 L 127.253906 76.679688 L 132.847656 94.15625 L 132.847656 76.679688 L 137.042969 76.679688 L 137.042969 107.210938 L 132.613281 107.210938 Z M 155.453125 84.601562 L 155.453125 98.820312 C 155.453125 103.480469 153.589844 106.976562 147.996094 106.976562 L 140.070312 106.976562 L 140.070312 76.445312 L 147.996094 76.445312 C 153.355469 76.445312 155.453125 79.941406 155.453125 84.601562 Z M 147.296875 102.78125 C 149.394531 102.78125 150.328125 101.617188 150.328125 99.75 L 150.328125 83.671875 C 150.328125 81.804688 149.628906 80.640625 147.296875 80.640625 L 145.199219 80.640625 L 145.199219 102.78125 Z M 162.910156 99.050781 L 162.910156 84.136719 C 162.910156 79.242188 165.242188 75.980469 170.601562 75.980469 C 176.195312 75.980469 177.828125 79.242188 177.828125 83.671875 L 177.828125 87.398438 L 173.167969 87.398438 L 173.167969 83.4375 C 173.167969 81.574219 172.46875 80.40625 170.601562 80.40625 C 168.738281 80.40625 168.039062 81.804688 168.039062 83.671875 L 168.039062 100.21875 C 168.039062 102.082031 168.738281 103.480469 170.601562 103.480469 C 172.46875 103.480469 173.167969 102.316406 173.167969 100.449219 L 173.167969 94.855469 L 177.828125 94.855469 L 177.828125 100.21875 C 177.828125 104.644531 175.964844 107.910156 170.601562 107.910156 C 165.007812 107.441406 162.910156 103.945312 162.910156 99.050781 Z M 180.625 99.050781 L 180.625 84.136719 C 180.625 79.242188 182.957031 75.980469 188.316406 75.980469 C 193.675781 75.980469 196.238281 79.476562 196.238281 84.136719 L 196.238281 99.050781 C 196.238281 103.714844 193.910156 107.210938 188.316406 107.210938 C 182.957031 107.441406 180.625 103.945312 180.625 99.050781 Z M 190.878906 99.984375 L 190.878906 83.4375 C 190.878906 81.574219 190.179688 80.175781 188.316406 80.175781 C 186.453125 80.175781 185.753906 81.574219 185.753906 83.4375 L 185.753906 99.984375 C 185.753906 101.847656 186.453125 103.246094 188.316406 103.246094 C 190.179688 103.015625 190.878906 101.847656 190.878906 99.984375 Z M 213.253906 87.164062 L 209.523438 106.976562 L 207.195312 106.976562 L 203.464844 87.164062 L 203.464844 106.976562 L 199.269531 106.976562 L 199.269531 76.445312 L 205.328125 76.445312 L 208.59375 93.691406 L 211.621094 76.445312 L 218.148438 76.445312 L 218.148438 106.976562 L 213.488281 106.976562 Z M 234.929688 87.164062 L 231.199219 106.976562 L 228.867188 106.976562 L 225.140625 87.164062 L 225.140625 106.976562 L 220.945312 106.976562 L 220.945312 76.445312 L 227.003906 76.445312 L 230.265625 93.691406 L 233.296875 76.445312 L 239.824219 76.445312 L 239.824219 106.976562 L 235.160156 106.976562 L 235.160156 87.164062 Z M 257.535156 76.445312 L 257.535156 99.519531 C 257.535156 104.179688 255.4375 107.441406 250.3125 107.441406 C 244.949219 107.441406 242.621094 104.414062 242.621094 99.519531 L 242.621094 76.445312 L 247.746094 76.445312 L 247.746094 100.21875 C 247.746094 102.082031 248.445312 103.246094 250.3125 103.246094 C 252.175781 103.246094 252.875 102.082031 252.875 100.21875 L 252.875 76.445312 Z M 264.527344 87.863281 L 264.527344 107.210938 L 260.097656 107.210938 L 260.097656 76.679688 L 265.226562 76.679688 L 270.820312 94.15625 L 270.820312 76.679688 L 275.015625 76.679688 L 275.015625 107.210938 L 270.585938 107.210938 Z M 278.046875 76.445312 L 283.171875 76.445312 L 283.171875 106.976562 L 278.046875 106.976562 Z M 285.503906 76.445312 L 299.253906 76.445312 L 299.253906 80.640625 L 295.058594 80.640625 L 295.058594 106.976562 L 289.699219 106.976562 L 289.699219 80.640625 L 285.503906 80.640625 Z M 301.585938 76.445312 L 306.710938 76.445312 L 306.710938 106.976562 L 301.585938 106.976562 Z M 309.507812 76.445312 L 321.863281 76.445312 L 321.863281 80.640625 L 314.636719 80.640625 L 314.636719 89.496094 L 319.765625 89.496094 L 319.765625 93.691406 L 314.636719 93.691406 L 314.636719 103.015625 L 321.863281 103.015625 L 321.863281 107.210938 L 309.507812 107.210938 Z M 323.960938 100.449219 L 323.960938 96.253906 L 328.851562 96.253906 L 328.851562 100.449219 C 328.851562 102.082031 329.550781 103.246094 331.417969 103.246094 C 333.046875 103.246094 333.746094 102.082031 333.746094 100.449219 L 333.746094 99.285156 C 333.746094 97.421875 333.046875 96.488281 331.417969 94.855469 L 328.386719 91.828125 C 325.355469 89.03125 324.191406 87.164062 324.191406 83.671875 L 324.191406 82.738281 C 324.191406 79.007812 326.289062 75.980469 331.417969 75.980469 C 336.542969 75.980469 338.640625 78.542969 338.640625 82.972656 L 338.640625 85.535156 L 333.980469 85.535156 L 333.980469 82.972656 C 333.980469 81.105469 333.28125 80.40625 331.648438 80.40625 C 330.25 80.40625 329.320312 81.105469 329.320312 82.972656 L 329.320312 83.671875 C 329.320312 85.300781 330.25 86.464844 331.648438 87.863281 L 334.914062 91.128906 C 337.710938 93.925781 339.109375 95.789062 339.109375 99.050781 L 339.109375 100.449219 C 339.109375 104.644531 336.777344 107.675781 331.648438 107.675781 C 326.054688 107.441406 323.960938 104.414062 323.960938 100.449219 Z M 323.960938 100.449219 " fill-opacity="1" fill-rule="nonzero"/></svg>