<svg xmlns="http://www.w3.org/2000/svg" xmlns:xlink="http://www.w3.org/1999/xlink" width="500" zoomAndPan="magnify" viewBox="0 0 375 374.999991" height="500" preserveAspectRatio="xMidYMid meet" version="1.0"><rect x="-37.5" width="450" fill="#ffffff" y="-37.499999" height="449.999989" fill-opacity="1"/><rect x="-37.5" width="450" fill="#ffffff" y="-37.499999" height="449.999989" fill-opacity="1"/><rect x="-37.5" width="450" fill="#19486a" y="-37.499999" height="449.999989" fill-opacity="1"/><path fill="#ffffff" d="M 56.167969 31.464844 L 56.167969 107.210938 L 43.351562 107.210938 L 43.351562 49.175781 L 34.261719 58.5 L 34.261719 45.214844 L 45.914062 31.464844 Z M 61.996094 31.464844 L 93.691406 31.464844 L 93.691406 43.351562 L 77.144531 107.210938 L 64.558594 107.210938 L 81.574219 41.953125 L 61.996094 41.953125 Z M 282.707031 227.46875 C 282.707031 201.132812 261.730469 179.691406 235.628906 178.761719 C 228.867188 159.882812 210.691406 146.132812 189.480469 146.132812 C 168.273438 146.132812 150.09375 159.648438 143.335938 178.761719 C 117.230469 179.691406 96.253906 201.132812 96.253906 227.46875 C 96.253906 243.085938 103.714844 257.070312 115.132812 265.925781 C 113.96875 270.121094 113.269531 274.78125 113.269531 279.445312 C 113.269531 306.480469 135.175781 328.386719 162.210938 328.386719 C 172.46875 328.386719 182.023438 325.125 189.714844 319.765625 C 197.40625 324.890625 206.726562 327.921875 216.75 327.921875 C 243.785156 327.921875 265.691406 306.011719 265.691406 278.976562 C 265.691406 274.316406 264.992188 269.886719 263.828125 265.691406 C 275.480469 257.070312 282.707031 243.085938 282.707031 227.46875 M 228.636719 195.074219 C 228.636719 214.652344 214.1875 230.734375 195.308594 233.53125 C 195.074219 231.664062 194.839844 229.566406 194.839844 227.46875 C 194.839844 207.894531 209.292969 191.8125 228.167969 189.015625 C 228.402344 190.878906 228.636719 192.976562 228.636719 195.074219 M 189.945312 307.179688 C 182.722656 300.1875 178.0625 290.164062 178.0625 279.210938 C 178.0625 268.488281 182.488281 258.699219 189.480469 251.476562 C 196.707031 258.46875 201.367188 268.488281 201.367188 279.445312 C 201.367188 290.398438 196.9375 300.1875 189.945312 307.179688 M 151.257812 189.015625 C 170.136719 191.8125 184.585938 207.894531 184.585938 227.46875 C 184.585938 229.566406 184.355469 231.433594 184.121094 233.53125 C 165.242188 230.734375 150.792969 214.652344 150.792969 195.074219 C 150.792969 192.976562 150.792969 190.878906 151.257812 189.015625 M 180.390625 244.949219 C 173.867188 257.769531 160.8125 266.625 145.664062 266.625 C 139.140625 266.625 133.078125 264.992188 127.71875 262.195312 C 134.246094 249.378906 147.296875 240.523438 162.679688 240.523438 C 168.738281 240.523438 175.03125 242.152344 180.390625 244.949219 M 199.035156 244.71875 C 204.398438 241.921875 210.457031 240.289062 216.984375 240.289062 C 232.363281 240.289062 245.648438 249.144531 251.941406 262.195312 C 246.582031 264.992188 240.289062 266.625 233.996094 266.625 C 218.613281 266.625 205.328125 257.769531 199.035156 244.71875 M 189.714844 155.917969 C 205.796875 155.917969 219.546875 165.476562 225.371094 179.460938 C 209.523438 182.257812 196.238281 192.742188 189.714844 206.960938 C 183.1875 192.742188 169.902344 182.257812 154.054688 179.460938 C 159.882812 165.707031 173.632812 155.917969 189.714844 155.917969 M 106.511719 227.46875 C 106.511719 207.425781 121.890625 190.878906 141.238281 188.78125 C 141.003906 190.878906 140.769531 192.976562 140.769531 195.074219 C 140.769531 209.292969 146.832031 222.109375 156.617188 231.199219 C 140.304688 233.0625 126.554688 242.851562 119.097656 256.601562 C 111.40625 249.378906 106.511719 239.125 106.511719 227.46875 M 123.289062 279.675781 C 123.289062 276.878906 123.523438 274.316406 124.222656 271.519531 C 130.75 274.550781 137.742188 276.414062 145.433594 276.414062 C 154.054688 276.414062 161.980469 274.316406 168.972656 270.355469 C 168.503906 273.152344 168.039062 276.179688 168.039062 279.445312 C 168.039062 292.726562 173.398438 304.613281 181.789062 313.472656 C 175.964844 316.96875 169.203125 318.832031 162.210938 318.832031 C 140.769531 318.597656 123.289062 301.117188 123.289062 279.675781 M 256.136719 279.210938 C 256.136719 300.652344 238.65625 318.132812 217.214844 318.132812 C 210.222656 318.132812 203.699219 316.269531 197.871094 313.003906 C 206.261719 304.148438 211.390625 292.496094 211.390625 279.445312 C 211.390625 276.179688 211.15625 273.152344 210.457031 270.121094 C 217.449219 274.082031 225.605469 276.179688 234.230469 276.179688 C 241.921875 276.179688 249.144531 274.316406 255.4375 271.285156 C 255.671875 274.082031 256.136719 276.648438 256.136719 279.210938 M 222.808594 230.734375 C 232.363281 221.875 238.425781 209.058594 238.425781 194.839844 C 238.425781 192.742188 238.191406 190.644531 237.957031 188.546875 C 257.535156 190.644531 272.683594 207.195312 272.683594 227.238281 C 272.683594 238.65625 267.789062 248.914062 259.867188 256.136719 C 252.875 242.621094 239.125 232.832031 222.808594 230.734375 " fill-opacity="1" fill-rule="nonzero"/><path fill="#ffffff" d="M 119.5625 31.464844 L 127.253906 31.464844 C 132.378906 31.464844 134.246094 34.027344 134.246094 38.222656 L 134.246094 44.75 C 134.246094 48.945312 132.378906 51.738281 127.253906 51.738281 L 124.6875 51.738281 L 124.6875 62.226562 L 119.5625 62.226562 Z M 124.921875 35.660156 L 124.921875 47.777344 L 126.785156 47.777344 C 128.652344 47.777344 129.351562 46.847656 129.351562 45.214844 L 129.351562 38.222656 C 129.351562 36.589844 128.652344 35.660156 126.785156 35.660156 Z M 134.945312 62.226562 L 140.769531 31.695312 L 146.597656 31.695312 L 152.425781 62.226562 L 147.0625 62.226562 L 146.132812 56.632812 L 140.769531 56.632812 L 139.839844 62.226562 Z M 141.46875 52.4375 L 145.664062 52.4375 L 143.566406 40.085938 Z M 160.347656 48.011719 L 160.347656 61.996094 L 155.21875 61.996094 L 155.21875 31.464844 L 162.679688 31.464844 C 167.804688 31.464844 169.671875 34.027344 169.671875 38.222656 L 169.671875 42.183594 C 169.671875 45.449219 168.503906 47.3125 165.476562 48.011719 L 170.371094 61.996094 L 165.007812 61.996094 Z M 160.347656 35.660156 L 160.347656 45.214844 L 161.980469 45.214844 C 163.84375 45.214844 164.542969 44.28125 164.542969 42.652344 L 164.542969 38.222656 C 164.542969 36.589844 163.84375 35.660156 161.980469 35.660156 Z M 171.535156 31.464844 L 185.285156 31.464844 L 185.285156 35.660156 L 181.089844 35.660156 L 181.089844 61.996094 L 175.964844 61.996094 L 175.964844 35.660156 L 171.769531 35.660156 L 171.769531 31.464844 Z M 192.742188 42.882812 L 192.742188 62.226562 L 188.316406 62.226562 L 188.316406 31.695312 L 193.441406 31.695312 L 199.035156 49.175781 L 199.035156 31.695312 L 203.230469 31.695312 L 203.230469 62.226562 L 198.804688 62.226562 Z M 207.660156 31.464844 L 220.011719 31.464844 L 220.011719 35.660156 L 212.789062 35.660156 L 212.789062 44.515625 L 217.914062 44.515625 L 217.914062 48.710938 L 212.789062 48.710938 L 212.789062 58.03125 L 220.011719 58.03125 L 220.011719 62.226562 L 207.660156 62.226562 Z M 228.402344 48.011719 L 228.402344 61.996094 L 223.273438 61.996094 L 223.273438 31.464844 L 230.734375 31.464844 C 235.859375 31.464844 237.726562 34.027344 237.726562 38.222656 L 237.726562 42.183594 C 237.726562 45.449219 236.558594 47.3125 233.53125 48.011719 L 238.425781 61.996094 L 233.0625 61.996094 Z M 228.402344 35.660156 L 228.402344 45.214844 L 230.035156 45.214844 C 231.898438 45.214844 232.597656 44.28125 232.597656 42.652344 L 232.597656 38.222656 C 232.597656 36.589844 231.898438 35.660156 230.035156 35.660156 Z M 240.289062 55.46875 L 240.289062 51.507812 L 245.183594 51.507812 L 245.183594 55.703125 C 245.183594 57.332031 245.882812 58.5 247.746094 58.5 C 249.378906 58.5 250.078125 57.332031 250.078125 55.703125 L 250.078125 54.535156 C 250.078125 52.671875 249.378906 51.738281 247.746094 50.109375 L 244.71875 47.078125 C 241.6875 44.28125 240.523438 42.417969 240.523438 38.921875 L 240.523438 37.988281 C 240.523438 34.261719 242.851562 31.230469 247.746094 31.230469 C 252.875 31.230469 254.972656 33.792969 254.972656 38.222656 L 254.972656 40.785156 L 250.3125 40.785156 L 250.3125 38.222656 C 250.3125 36.359375 249.613281 35.660156 247.980469 35.660156 C 246.582031 35.660156 245.648438 36.359375 245.648438 38.222656 L 245.648438 38.921875 C 245.648438 40.554688 246.582031 41.71875 247.980469 43.117188 L 251.242188 46.378906 C 254.039062 49.175781 255.4375 51.039062 255.4375 54.304688 L 255.4375 55.703125 C 255.4375 59.898438 253.109375 62.925781 247.980469 62.925781 C 242.386719 62.460938 240.289062 59.664062 240.289062 55.46875 Z M 268.488281 48.710938 L 263.59375 48.710938 L 263.59375 62.226562 L 258.234375 62.226562 L 258.234375 31.695312 L 263.363281 31.695312 L 263.363281 44.75 L 268.257812 44.75 L 268.257812 31.695312 L 273.382812 31.695312 L 273.382812 62.226562 L 268.257812 62.226562 L 268.257812 48.710938 Z M 277.113281 31.464844 L 282.242188 31.464844 L 282.242188 61.996094 L 277.113281 61.996094 Z M 285.503906 31.464844 L 293.195312 31.464844 C 298.320312 31.464844 300.1875 34.027344 300.1875 38.222656 L 300.1875 44.75 C 300.1875 48.945312 298.320312 51.738281 293.195312 51.738281 L 290.863281 51.738281 L 290.863281 62.226562 L 285.738281 62.226562 Z M 290.863281 35.660156 L 290.863281 47.777344 L 292.726562 47.777344 C 294.59375 47.777344 295.292969 46.847656 295.292969 45.214844 L 295.292969 38.222656 C 295.292969 36.589844 294.59375 35.660156 292.726562 35.660156 Z M 302.285156 55.46875 L 302.285156 51.507812 L 307.179688 51.507812 L 307.179688 55.703125 C 307.179688 57.332031 307.878906 58.5 309.742188 58.5 C 311.375 58.5 312.074219 57.332031 312.074219 55.703125 L 312.074219 54.535156 C 312.074219 52.671875 311.375 51.738281 309.742188 50.109375 L 306.710938 47.078125 C 303.683594 44.28125 302.515625 42.417969 302.515625 38.921875 L 302.515625 37.988281 C 302.515625 34.261719 304.847656 31.230469 309.742188 31.230469 C 314.871094 31.230469 316.96875 33.792969 316.96875 38.222656 L 316.96875 40.785156 L 312.304688 40.785156 L 312.304688 38.222656 C 312.304688 36.359375 311.605469 35.660156 309.976562 35.660156 C 308.578125 35.660156 307.644531 36.359375 307.644531 38.222656 L 307.644531 38.921875 C 307.644531 40.554688 308.578125 41.71875 309.976562 43.117188 L 313.238281 46.378906 C 316.035156 49.175781 317.433594 51.039062 317.433594 54.304688 L 317.433594 55.703125 C 317.433594 59.898438 315.101562 62.925781 309.976562 62.925781 C 304.382812 62.460938 302.285156 59.664062 302.285156 55.46875 Z M 302.285156 55.46875 " fill-opacity="1" fill-rule="nonzero"/><path fill="#ffffff" d="M 119.5625 75.980469 L 131.679688 75.980469 L 131.679688 80.175781 L 124.6875 80.175781 L 124.6875 89.03125 L 129.816406 89.03125 L 129.816406 93.226562 L 124.6875 93.226562 L 124.6875 106.742188 L 119.5625 106.742188 Z M 133.546875 98.820312 L 133.546875 83.902344 C 133.546875 79.007812 135.875 75.746094 141.238281 75.746094 C 146.597656 75.746094 149.160156 79.242188 149.160156 83.902344 L 149.160156 98.820312 C 149.160156 103.480469 146.832031 106.976562 141.238281 106.976562 C 135.875 106.976562 133.546875 103.480469 133.546875 98.820312 Z M 144.035156 99.519531 L 144.035156 82.972656 C 144.035156 81.105469 143.335938 79.707031 141.46875 79.707031 C 139.605469 79.707031 138.90625 81.105469 138.90625 82.972656 L 138.90625 99.519531 C 138.90625 101.382812 139.605469 102.78125 141.46875 102.78125 C 143.101562 102.78125 144.035156 101.382812 144.035156 99.519531 Z M 157.550781 92.527344 L 157.550781 106.511719 L 152.425781 106.511719 L 152.425781 75.980469 L 159.882812 75.980469 C 165.007812 75.980469 166.875 78.542969 166.875 82.738281 L 166.875 86.699219 C 166.875 89.960938 165.707031 91.828125 162.679688 92.527344 L 167.574219 106.511719 L 162.210938 106.511719 Z M 157.550781 80.175781 L 157.550781 89.730469 L 159.183594 89.730469 C 161.046875 89.730469 161.746094 88.796875 161.746094 87.164062 L 161.746094 82.738281 C 161.746094 81.105469 161.046875 80.175781 159.183594 80.175781 Z M 175.265625 75.980469 L 189.015625 75.980469 L 189.015625 80.175781 L 184.820312 80.175781 L 184.820312 106.511719 L 179.691406 106.511719 L 179.691406 80.175781 L 175.496094 80.175781 L 175.496094 75.980469 Z M 201.367188 93.226562 L 196.472656 93.226562 L 196.472656 106.742188 L 191.34375 106.742188 L 191.34375 76.210938 L 196.472656 76.210938 L 196.472656 89.261719 L 201.367188 89.261719 L 201.367188 76.210938 L 206.496094 76.210938 L 206.496094 106.742188 L 201.367188 106.742188 Z M 209.992188 75.980469 L 222.34375 75.980469 L 222.34375 80.175781 L 215.117188 80.175781 L 215.117188 89.03125 L 220.246094 89.03125 L 220.246094 93.226562 L 215.117188 93.226562 L 215.117188 102.546875 L 222.34375 102.546875 L 222.34375 106.742188 L 209.992188 106.742188 Z M 238.890625 90.429688 L 246.117188 90.429688 L 246.117188 106.742188 L 242.386719 106.742188 L 242.386719 103.480469 C 241.6875 105.8125 240.289062 107.210938 237.492188 107.210938 C 233.0625 107.210938 230.964844 103.714844 230.964844 99.050781 L 230.964844 84.136719 C 230.964844 79.242188 233.296875 75.980469 238.65625 75.980469 C 244.25 75.980469 246.117188 79.242188 246.117188 83.671875 L 246.117188 86.464844 L 241.453125 86.464844 L 241.453125 83.4375 C 241.453125 81.574219 240.753906 80.40625 238.890625 80.40625 C 237.027344 80.40625 236.328125 81.804688 236.328125 83.671875 L 236.328125 100.21875 C 236.328125 102.082031 237.027344 103.480469 238.890625 103.480469 C 240.523438 103.480469 241.453125 102.546875 241.453125 100.449219 L 241.453125 95.089844 L 239.125 95.089844 L 239.125 90.429688 Z M 248.914062 98.820312 L 248.914062 83.902344 C 248.914062 79.007812 251.242188 75.746094 256.601562 75.746094 C 261.964844 75.746094 264.527344 79.242188 264.527344 83.902344 L 264.527344 98.820312 C 264.527344 103.480469 262.195312 106.976562 256.601562 106.976562 C 251.476562 106.976562 248.914062 103.480469 248.914062 98.820312 Z M 259.398438 99.519531 L 259.398438 82.972656 C 259.398438 81.105469 258.699219 79.707031 256.835938 79.707031 C 254.972656 79.707031 254.273438 81.105469 254.273438 82.972656 L 254.273438 99.519531 C 254.273438 101.382812 254.972656 102.78125 256.835938 102.78125 C 258.699219 102.78125 259.398438 101.382812 259.398438 99.519531 Z M 266.160156 106.742188 L 271.984375 76.210938 L 277.8125 76.210938 L 283.640625 106.742188 L 278.277344 106.742188 L 277.347656 101.148438 L 271.984375 101.148438 L 271.054688 106.742188 Z M 272.453125 96.953125 L 276.648438 96.953125 L 274.550781 84.601562 Z M 286.203125 75.980469 L 291.328125 75.980469 L 291.328125 102.316406 L 297.390625 102.316406 L 297.390625 106.511719 L 286.203125 106.511719 Z M 299.253906 99.984375 L 299.253906 95.789062 L 304.148438 95.789062 L 304.148438 99.984375 C 304.148438 101.617188 304.847656 102.78125 306.710938 102.78125 C 308.34375 102.78125 309.042969 101.617188 309.042969 99.984375 L 309.042969 98.820312 C 309.042969 96.953125 308.34375 96.023438 306.710938 94.390625 L 303.683594 91.359375 C 300.652344 88.5625 299.488281 86.699219 299.488281 83.203125 L 299.488281 82.273438 C 299.488281 78.542969 301.816406 75.511719 306.710938 75.511719 C 311.839844 75.511719 313.9375 78.078125 313.9375 82.503906 L 313.9375 85.066406 L 309.277344 85.066406 L 309.277344 82.503906 C 309.277344 80.640625 308.578125 79.941406 306.945312 79.941406 C 305.546875 79.941406 304.613281 80.640625 304.613281 82.503906 L 304.613281 83.203125 C 304.613281 84.835938 305.546875 86 306.945312 87.398438 L 310.207031 90.660156 C 313.003906 93.457031 314.402344 95.324219 314.402344 98.585938 L 314.402344 99.984375 C 314.402344 104.179688 312.074219 107.210938 306.945312 107.210938 C 301.351562 106.976562 299.253906 104.179688 299.253906 99.984375 Z M 299.253906 99.984375 " fill-opacity="1" fill-rule="nonzero"/></svg>