<svg xmlns="http://www.w3.org/2000/svg" xmlns:xlink="http://www.w3.org/1999/xlink" width="500" zoomAndPan="magnify" viewBox="0 0 375 374.999991" height="500" preserveAspectRatio="xMidYMid meet" version="1.0"><rect x="-37.5" width="450" fill="#ffffff" y="-37.499999" height="449.999989" fill-opacity="1"/><rect x="-37.5" width="450" fill="#ffffff" y="-37.499999" height="449.999989" fill-opacity="1"/><rect x="-37.5" width="450" fill="#56c02b" y="-37.499999" height="449.999989" fill-opacity="1"/><path fill="#ffffff" d="M 27.5 45.214844 L 27.5 58.5 L 36.359375 49.175781 L 36.589844 49.175781 L 36.589844 107.210938 L 49.175781 107.210938 L 49.175781 31.464844 L 39.15625 31.464844 Z M 79.476562 55.46875 C 74.347656 55.46875 70.851562 57.332031 68.753906 60.597656 L 68.753906 41.71875 L 90.660156 41.71875 L 90.660156 31.464844 L 57.101562 31.464844 L 57.101562 74.113281 L 68.753906 74.113281 L 68.753906 72.484375 C 68.753906 68.054688 70.851562 65.492188 74.347656 65.492188 C 78.308594 65.492188 79.707031 68.054688 79.707031 72.25 L 79.707031 90.429688 C 79.707031 94.390625 78.308594 97.1875 74.347656 97.1875 C 69.917969 97.1875 68.519531 94.390625 68.519531 89.730469 L 68.519531 80.175781 L 56.867188 80.175781 L 56.867188 88.796875 C 56.867188 100.21875 61.527344 107.675781 74.347656 107.675781 C 87.164062 107.675781 92.527344 100.917969 92.527344 90.429688 L 92.527344 72.015625 C 92.527344 60.363281 86.234375 55.46875 79.476562 55.46875 " fill-opacity="1" fill-rule="nonzero"/><path fill="#ffffff" d="M 157.085938 253.574219 C 157.550781 253.574219 158.015625 254.039062 158.015625 254.507812 L 158.015625 281.773438 C 158.015625 282.242188 157.550781 282.707031 157.085938 282.707031 L 146.132812 282.707031 C 145.664062 282.707031 145.199219 282.242188 145.199219 281.773438 L 145.199219 254.507812 C 145.199219 254.039062 145.664062 253.574219 146.132812 253.574219 Z M 278.511719 294.359375 L 96.488281 294.359375 C 96.023438 294.359375 95.554688 294.824219 95.554688 295.292969 L 95.554688 306.480469 C 95.554688 306.945312 96.023438 307.410156 96.488281 307.410156 L 278.511719 307.410156 C 278.976562 307.410156 279.445312 306.945312 279.445312 306.480469 L 279.445312 295.292969 C 279.445312 294.824219 278.976562 294.359375 278.511719 294.359375 M 278.511719 316.5 L 96.488281 316.5 C 96.023438 316.5 95.554688 316.96875 95.554688 317.433594 L 95.554688 328.621094 C 95.554688 329.085938 96.023438 329.550781 96.488281 329.550781 L 278.511719 329.550781 C 278.976562 329.550781 279.445312 329.085938 279.445312 328.621094 L 279.445312 317.433594 C 279.445312 316.96875 278.976562 316.5 278.511719 316.5 M 243.785156 223.507812 C 241.453125 221.644531 235.394531 217.683594 227.9375 217.683594 C 222.574219 217.683594 217.683594 219.78125 213.253906 223.972656 C 213.019531 224.207031 212.789062 224.671875 212.789062 225.140625 L 212.789062 226.070312 C 212.789062 226.539062 213.019531 227.003906 213.253906 227.238281 C 213.71875 227.46875 213.953125 227.703125 214.652344 227.46875 L 214.886719 227.46875 C 215.117188 227.238281 215.585938 227.238281 215.816406 227.003906 C 216.75 226.304688 219.3125 225.371094 223.042969 225.371094 C 227.003906 225.371094 234.460938 226.304688 241.921875 233.296875 L 242.152344 233.53125 C 242.621094 233.996094 243.085938 234.230469 243.785156 234.230469 C 244.25 234.230469 244.949219 233.996094 245.417969 233.53125 L 245.648438 233.296875 C 253.109375 226.539062 260.566406 225.371094 264.527344 225.371094 C 268.257812 225.371094 270.820312 226.304688 271.753906 227.003906 C 271.984375 227.238281 272.21875 227.46875 272.683594 227.703125 C 272.917969 227.703125 273.382812 227.9375 273.851562 227.703125 C 274.550781 227.46875 275.015625 227.003906 275.015625 226.304688 L 275.015625 225.371094 C 275.015625 224.90625 274.78125 224.441406 274.550781 224.207031 C 270.121094 220.011719 265.226562 217.914062 259.632812 217.914062 C 252.175781 217.449219 246.117188 221.644531 243.785156 223.507812 M 232.597656 150.792969 C 232.132812 151.027344 231.898438 151.257812 231.898438 151.726562 L 231.664062 152.425781 C 231.433594 152.890625 231.664062 153.355469 231.898438 153.820312 C 232.132812 154.289062 232.597656 154.519531 233.0625 154.519531 L 233.296875 154.519531 C 233.53125 154.519531 233.996094 154.519531 234.230469 154.289062 C 234.460938 154.289062 234.695312 154.054688 235.394531 154.054688 C 236.09375 154.054688 243.550781 154.289062 248.445312 162.445312 L 248.445312 162.679688 C 248.679688 163.144531 249.144531 163.378906 249.613281 163.609375 L 250.078125 163.609375 C 250.3125 163.609375 250.777344 163.609375 251.011719 163.378906 L 251.242188 163.378906 C 253.808594 161.980469 256.601562 161.28125 259.398438 161.28125 C 264.0625 161.28125 267.089844 163.144531 267.789062 163.84375 L 268.488281 164.542969 C 268.722656 164.542969 268.957031 164.777344 269.1875 164.777344 L 269.65625 164.777344 C 269.886719 164.777344 270.121094 164.777344 270.355469 164.542969 C 270.820312 164.308594 271.054688 164.078125 271.054688 163.609375 L 271.285156 163.144531 L 271.285156 162.679688 C 271.285156 162.445312 271.285156 162.210938 271.054688 161.980469 C 267.558594 155.917969 262.429688 154.519531 258.699219 154.519531 C 255.90625 154.519531 253.574219 155.21875 252.175781 155.6875 C 250.542969 153.355469 246.347656 148.695312 239.824219 148.695312 C 237.257812 149.160156 234.929688 149.628906 232.597656 150.792969 M 194.140625 178.992188 L 194.140625 179.925781 C 194.140625 180.390625 194.375 180.859375 194.839844 181.089844 C 195.308594 181.324219 195.773438 181.324219 196.007812 181.324219 L 196.238281 181.324219 C 196.472656 181.089844 196.707031 181.089844 196.9375 180.859375 C 197.636719 180.390625 200.203125 179.226562 203.929688 179.226562 C 207.425781 179.226562 212.789062 180.160156 218.382812 184.585938 L 218.613281 184.820312 C 219.082031 185.054688 219.546875 185.285156 220.011719 185.285156 L 220.246094 185.285156 C 220.710938 185.285156 221.410156 185.054688 221.644531 184.585938 L 221.875 184.355469 C 227.9375 177.828125 234.460938 176.894531 237.957031 176.894531 C 240.289062 176.894531 242.152344 177.363281 242.621094 177.828125 C 242.851562 178.0625 243.085938 178.292969 243.550781 178.292969 L 244.71875 178.292969 C 245.417969 178.0625 245.882812 177.363281 245.648438 176.664062 L 245.648438 175.964844 C 245.648438 175.496094 245.417969 175.265625 245.183594 174.796875 C 241.453125 171.769531 237.726562 170.136719 233.53125 170.136719 C 227.238281 170.136719 222.109375 173.867188 220.011719 175.730469 C 218.148438 174.332031 213.488281 171.769531 207.894531 171.769531 C 203 171.769531 198.804688 173.867188 195.074219 177.828125 C 194.140625 178.0625 194.140625 178.527344 194.140625 178.992188 M 101.847656 193.441406 C 101.847656 182.488281 110.707031 173.632812 121.660156 173.632812 L 122.824219 173.632812 C 123.757812 159.882812 135.410156 148.929688 149.394531 148.929688 C 164.078125 148.929688 176.195312 160.8125 176.195312 175.730469 C 176.195312 179.925781 175.265625 183.886719 173.398438 187.382812 C 186.683594 190.414062 196.707031 202.300781 196.707031 216.515625 C 196.707031 233.0625 183.421875 246.347656 166.875 246.347656 C 165.707031 246.347656 127.019531 246.117188 127.019531 246.117188 C 115.367188 246.117188 105.8125 236.558594 105.8125 224.90625 C 105.8125 219.3125 107.910156 214.1875 111.636719 210.457031 C 106.042969 207.195312 101.847656 200.902344 101.847656 193.441406 Z M 101.847656 193.441406 " fill-opacity="1" fill-rule="nonzero"/><path fill="#ffffff" d="M 119.792969 31.464844 L 124.921875 31.464844 L 124.921875 57.800781 L 130.980469 57.800781 L 130.980469 61.996094 L 119.792969 61.996094 Z M 134.011719 31.464844 L 139.140625 31.464844 L 139.140625 61.996094 L 134.011719 61.996094 Z M 142.867188 31.464844 L 154.988281 31.464844 L 154.988281 35.660156 L 147.996094 35.660156 L 147.996094 44.515625 L 153.125 44.515625 L 153.125 48.710938 L 147.996094 48.710938 L 147.996094 62.226562 L 142.867188 62.226562 Z M 157.785156 31.464844 L 170.136719 31.464844 L 170.136719 35.660156 L 162.910156 35.660156 L 162.910156 44.515625 L 168.039062 44.515625 L 168.039062 48.710938 L 162.910156 48.710938 L 162.910156 58.03125 L 170.136719 58.03125 L 170.136719 62.226562 L 157.785156 62.226562 Z M 157.785156 31.464844 " fill-opacity="1" fill-rule="nonzero"/><path fill="#ffffff" d="M 119.792969 99.285156 L 119.792969 84.371094 C 119.792969 79.476562 122.125 76.210938 127.484375 76.210938 C 132.847656 76.210938 135.410156 79.707031 135.410156 84.371094 L 135.410156 99.285156 C 135.410156 103.945312 133.078125 107.441406 127.484375 107.441406 C 122.125 107.441406 119.792969 103.945312 119.792969 99.285156 Z M 130.28125 99.984375 L 130.28125 83.4375 C 130.28125 81.574219 129.582031 80.175781 127.71875 80.175781 C 125.855469 80.175781 125.15625 81.574219 125.15625 83.4375 L 125.15625 99.984375 C 125.15625 101.847656 125.855469 103.246094 127.71875 103.246094 C 129.351562 103.246094 130.28125 101.847656 130.28125 99.984375 Z M 142.636719 87.863281 L 142.636719 107.210938 L 138.207031 107.210938 L 138.207031 76.679688 L 143.335938 76.679688 L 148.929688 94.15625 L 148.929688 76.679688 L 153.125 76.679688 L 153.125 107.210938 L 148.695312 107.210938 Z M 164.308594 76.445312 L 169.4375 76.445312 L 169.4375 102.78125 L 175.496094 102.78125 L 175.496094 106.976562 L 164.308594 106.976562 Z M 176.894531 107.210938 L 182.722656 76.679688 L 188.546875 76.679688 L 194.375 107.210938 L 189.015625 107.210938 L 188.082031 101.617188 L 182.722656 101.617188 L 181.789062 107.210938 Z M 183.421875 97.421875 L 187.617188 97.421875 L 185.519531 85.070312 Z M 200.902344 87.863281 L 200.902344 107.210938 L 196.472656 107.210938 L 196.472656 76.679688 L 201.601562 76.679688 L 207.195312 94.15625 L 207.195312 76.679688 L 211.390625 76.679688 L 211.390625 107.210938 L 206.960938 107.210938 Z M 230.265625 84.835938 L 230.265625 99.050781 C 230.265625 103.714844 228.402344 107.210938 222.808594 107.210938 L 214.886719 107.210938 L 214.886719 76.679688 L 222.808594 76.679688 C 228.167969 76.445312 230.265625 79.941406 230.265625 84.835938 Z M 222.109375 103.015625 C 224.207031 103.015625 225.140625 101.847656 225.140625 99.984375 L 225.140625 83.902344 C 225.140625 82.039062 224.441406 80.875 222.109375 80.875 L 220.011719 80.875 L 220.011719 103.015625 Z M 222.109375 103.015625 " fill-opacity="1" fill-rule="nonzero"/></svg>