<svg xmlns="http://www.w3.org/2000/svg" xmlns:xlink="http://www.w3.org/1999/xlink" width="500" zoomAndPan="magnify" viewBox="0 0 375 374.999991" height="500" preserveAspectRatio="xMidYMid meet" version="1.0"><rect x="-37.5" width="450" fill="#ffffff" y="-37.499999" height="449.999989" fill-opacity="1"/><rect x="-37.5" width="450" fill="#ffffff" y="-37.499999" height="449.999989" fill-opacity="1"/><rect x="-37.5" width="450" fill="#bf8b2e" y="-37.499999" height="449.999989" fill-opacity="1"/><path fill="#ffffff" d="M 37.523438 49.175781 L 37.757812 107.210938 L 50.34375 107.210938 L 50.34375 31.464844 L 40.320312 31.464844 L 28.433594 45.214844 L 28.433594 58.5 L 28.667969 58.5 Z M 58.03125 47.078125 L 58.03125 56.167969 L 69.6875 56.167969 L 69.6875 46.613281 C 69.6875 41.953125 72.015625 40.785156 74.582031 40.785156 C 77.144531 40.785156 79.242188 41.71875 79.242188 46.378906 L 79.242188 52.671875 C 79.242188 58.964844 78.777344 61.296875 74.582031 65.722656 L 67.355469 73.414062 C 60.363281 80.875 57.800781 85.765625 57.800781 93.226562 L 57.800781 107.210938 L 90.894531 107.210938 L 90.894531 96.722656 L 69.917969 96.722656 L 69.917969 93.226562 C 69.917969 87.398438 72.015625 85.070312 75.28125 81.574219 L 83.4375 72.949219 C 89.960938 65.957031 91.359375 61.527344 91.359375 53.835938 L 91.359375 46.378906 C 91.359375 35.660156 86.234375 30.53125 74.8125 30.53125 C 63.625 30.53125 58.03125 36.589844 58.03125 47.078125 M 292.027344 200.902344 C 276.648438 188.78125 258.46875 187.617188 251.242188 187.617188 C 247.515625 187.617188 244.019531 187.847656 241.453125 188.546875 L 240.523438 188.78125 C 230.734375 191.113281 214.652344 194.839844 195.773438 218.382812 L 195.308594 219.082031 C 195.074219 219.546875 194.839844 220.011719 194.839844 220.480469 C 194.839844 220.945312 194.839844 221.410156 195.074219 221.644531 L 195.539062 222.34375 C 198.570312 227.46875 201.132812 232.132812 203.230469 235.859375 C 203.929688 237.257812 206.027344 237.726562 207.195312 236.328125 C 207.425781 236.09375 207.425781 235.859375 207.660156 235.859375 C 223.972656 213.253906 236.792969 210.222656 245.183594 208.359375 L 246.117188 208.125 C 247.28125 207.894531 249.144531 207.660156 251.242188 207.660156 C 255.207031 207.660156 268.722656 208.359375 279.445312 216.75 C 289 224.207031 293.660156 236.09375 293.660156 252.175781 C 293.660156 279.210938 280.609375 289.699219 269.65625 293.660156 C 265.460938 295.292969 261.03125 295.992188 256.371094 295.992188 C 245.183594 295.992188 236.328125 291.5625 236.328125 291.328125 L 235.628906 290.863281 C 226.304688 286.667969 212.089844 278.277344 198.804688 251.476562 C 171.535156 196.707031 148.695312 191.578125 133.546875 188.082031 L 132.847656 187.847656 C 131.679688 187.617188 128.417969 186.917969 123.058594 186.917969 C 114.203125 186.917969 97.421875 188.546875 82.972656 200.203125 C 73.183594 208.125 61.296875 223.507812 61.296875 251.476562 C 61.296875 268.722656 64.792969 279.910156 73.882812 291.796875 C 75.511719 294.125 91.359375 314.402344 121.660156 314.402344 C 126.085938 314.402344 130.75 313.9375 135.410156 313.003906 C 141.003906 311.839844 149.394531 309.277344 158.949219 302.285156 L 166.875 309.507812 C 167.804688 310.207031 169.203125 310.207031 170.136719 309.277344 C 170.601562 308.808594 170.835938 308.34375 170.601562 307.878906 L 176.664062 269.886719 L 176.664062 269.421875 C 176.664062 268.722656 176.429688 268.257812 175.964844 267.789062 C 175.496094 267.324219 175.03125 267.089844 174.332031 267.089844 L 137.273438 277.347656 L 136.574219 277.347656 C 136.109375 277.347656 135.644531 277.578125 135.410156 278.046875 C 134.945312 278.511719 134.710938 279.210938 134.710938 279.675781 C 134.710938 280.375 134.945312 280.84375 135.410156 281.308594 L 143.101562 288.300781 C 139.140625 290.863281 134.945312 292.496094 131.214844 293.195312 C 127.953125 293.894531 124.6875 294.125 121.425781 294.125 C 100.449219 294.125 90.195312 280.375 89.730469 279.675781 L 89.496094 279.445312 C 83.203125 271.054688 80.875 263.828125 80.875 251.242188 C 80.875 235.160156 85.535156 223.042969 94.855469 215.585938 C 105.34375 207.195312 118.628906 206.726562 122.359375 206.726562 C 124.457031 206.726562 126.320312 206.960938 127.484375 207.195312 L 128.417969 207.425781 C 140.539062 210.222656 157.085938 213.953125 180.160156 260.097656 C 192.277344 284.570312 207.425781 300.417969 226.539062 308.808594 C 228.867188 309.976562 240.523438 315.570312 255.90625 315.570312 C 262.894531 315.570312 269.886719 314.402344 276.414062 311.839844 C 287.601562 307.644531 313.472656 293.425781 313.472656 251.242188 C 314.171875 224.207031 302.050781 208.824219 292.027344 200.902344 Z M 292.027344 200.902344 " fill-opacity="1" fill-rule="nonzero"/><path fill="#ffffff" d="M 124.921875 48.011719 L 124.921875 61.996094 L 119.792969 61.996094 L 119.792969 31.464844 L 127.253906 31.464844 C 132.378906 31.464844 134.246094 34.027344 134.246094 38.222656 L 134.246094 42.183594 C 134.246094 45.449219 133.078125 47.3125 130.050781 48.011719 L 134.945312 61.996094 L 129.582031 61.996094 Z M 124.921875 35.660156 L 124.921875 45.214844 L 126.554688 45.214844 C 128.417969 45.214844 129.117188 44.28125 129.117188 42.652344 L 129.117188 38.222656 C 129.117188 36.589844 128.417969 35.660156 126.554688 35.660156 Z M 137.742188 31.464844 L 150.09375 31.464844 L 150.09375 35.660156 L 142.867188 35.660156 L 142.867188 44.515625 L 147.996094 44.515625 L 147.996094 48.710938 L 142.867188 48.710938 L 142.867188 58.03125 L 150.09375 58.03125 L 150.09375 62.226562 L 137.742188 62.226562 Z M 152.890625 55.46875 L 152.890625 51.273438 L 157.785156 51.273438 L 157.785156 55.46875 C 157.785156 57.101562 158.484375 58.265625 160.347656 58.265625 C 161.980469 58.265625 162.679688 57.101562 162.679688 55.46875 L 162.679688 54.304688 C 162.679688 52.4375 161.980469 51.507812 160.347656 49.875 L 157.316406 46.847656 C 154.289062 44.050781 153.121094 42.183594 153.121094 38.6875 L 153.121094 37.757812 C 153.121094 34.027344 155.453125 30.996094 160.347656 30.996094 C 165.476562 30.996094 167.574219 33.5625 167.574219 37.988281 L 167.574219 40.554688 L 162.910156 40.554688 L 162.910156 37.988281 C 162.910156 36.125 162.210938 35.425781 160.582031 35.425781 C 159.183594 35.425781 158.25 36.125 158.25 37.988281 L 158.25 38.6875 C 158.25 40.320312 159.183594 41.484375 160.582031 42.882812 L 163.84375 46.148438 C 166.640625 48.945312 168.039062 50.808594 168.039062 54.070312 L 168.039062 55.46875 C 168.039062 59.664062 165.707031 62.695312 160.582031 62.695312 C 154.988281 62.460938 152.890625 59.429688 152.890625 55.46875 Z M 170.835938 31.464844 L 178.527344 31.464844 C 183.65625 31.464844 185.519531 34.027344 185.519531 38.222656 L 185.519531 44.75 C 185.519531 48.945312 183.65625 51.738281 178.527344 51.738281 L 175.964844 51.738281 L 175.964844 62.226562 L 170.835938 62.226562 Z M 175.964844 35.660156 L 175.964844 47.777344 L 177.828125 47.777344 C 179.691406 47.777344 180.390625 46.847656 180.390625 45.214844 L 180.390625 38.222656 C 180.390625 36.589844 179.691406 35.660156 177.828125 35.660156 Z M 188.78125 54.070312 L 188.78125 39.15625 C 188.78125 34.261719 191.113281 30.996094 196.472656 30.996094 C 201.832031 30.996094 204.398438 34.492188 204.398438 39.15625 L 204.398438 54.070312 C 204.398438 58.730469 202.066406 62.226562 196.472656 62.226562 C 191.113281 62.460938 188.78125 58.730469 188.78125 54.070312 Z M 199.269531 55.003906 L 199.269531 38.457031 C 199.269531 36.589844 198.570312 35.191406 196.707031 35.191406 C 194.839844 35.191406 194.140625 36.589844 194.140625 38.457031 L 194.140625 55.003906 C 194.140625 56.867188 194.839844 58.265625 196.707031 58.265625 C 198.335938 58.03125 199.269531 56.867188 199.269531 55.003906 Z M 212.089844 42.652344 L 212.089844 61.996094 L 207.660156 61.996094 L 207.660156 31.464844 L 212.789062 31.464844 L 218.382812 48.945312 L 218.382812 31.464844 L 222.574219 31.464844 L 222.574219 61.996094 L 218.148438 61.996094 Z M 226.070312 55.46875 L 226.070312 51.273438 L 230.964844 51.273438 L 230.964844 55.46875 C 230.964844 57.101562 231.664062 58.265625 233.53125 58.265625 C 235.160156 58.265625 235.859375 57.101562 235.859375 55.46875 L 235.859375 54.304688 C 235.859375 52.4375 235.160156 51.507812 233.53125 49.875 L 230.5 46.847656 C 227.46875 44.050781 226.304688 42.183594 226.304688 38.6875 L 226.304688 37.757812 C 226.304688 34.027344 228.636719 30.996094 233.53125 30.996094 C 238.65625 30.996094 240.753906 33.5625 240.753906 37.988281 L 240.753906 40.554688 L 236.09375 40.554688 L 236.09375 37.988281 C 236.09375 36.125 235.394531 35.425781 233.761719 35.425781 C 232.363281 35.425781 231.433594 36.125 231.433594 37.988281 L 231.433594 38.6875 C 231.433594 40.320312 232.363281 41.484375 233.761719 42.882812 L 237.027344 46.148438 C 239.824219 48.945312 241.222656 50.808594 241.222656 54.070312 L 241.222656 55.46875 C 241.222656 59.664062 238.890625 62.695312 233.761719 62.695312 C 227.9375 62.460938 226.070312 59.429688 226.070312 55.46875 Z M 243.785156 31.464844 L 248.914062 31.464844 L 248.914062 61.996094 L 243.785156 61.996094 Z M 252.410156 31.464844 L 259.867188 31.464844 C 264.992188 31.464844 266.625 33.792969 266.625 38.222656 L 266.625 41.253906 C 266.625 43.816406 265.691406 45.449219 263.59375 46.148438 C 266.160156 46.847656 267.324219 48.476562 267.324219 51.273438 L 267.324219 55.234375 C 267.324219 59.664062 265.460938 61.996094 260.332031 61.996094 L 252.410156 61.996094 Z M 257.769531 44.28125 L 259.632812 44.28125 C 261.265625 44.28125 261.964844 43.351562 261.964844 41.71875 L 261.964844 37.988281 C 261.964844 36.359375 261.265625 35.425781 259.398438 35.425781 L 257.535156 35.425781 Z M 257.769531 48.246094 L 257.769531 57.800781 L 260.097656 57.800781 C 261.730469 57.800781 262.664062 56.867188 262.664062 55.234375 L 262.664062 50.574219 C 262.664062 48.945312 261.964844 48.011719 260.097656 48.011719 L 257.769531 48.011719 Z M 270.585938 31.464844 L 275.714844 31.464844 L 275.714844 57.800781 L 281.773438 57.800781 L 281.773438 61.996094 L 270.585938 61.996094 Z M 284.804688 31.464844 L 297.15625 31.464844 L 297.15625 35.660156 L 289.933594 35.660156 L 289.933594 44.515625 L 295.058594 44.515625 L 295.058594 48.710938 L 289.933594 48.710938 L 289.933594 58.03125 L 297.15625 58.03125 L 297.15625 62.226562 L 284.804688 62.226562 Z M 284.804688 31.464844 " fill-opacity="1" fill-rule="nonzero"/><path fill="#ffffff" d="M 119.792969 99.050781 L 119.792969 84.136719 C 119.792969 79.242188 122.125 75.980469 127.484375 75.980469 C 133.078125 75.980469 134.710938 79.242188 134.710938 83.671875 L 134.710938 87.398438 L 130.050781 87.398438 L 130.050781 83.4375 C 130.050781 81.574219 129.351562 80.40625 127.484375 80.40625 C 125.621094 80.40625 124.921875 81.804688 124.921875 83.671875 L 124.921875 100.21875 C 124.921875 102.082031 125.621094 103.480469 127.484375 103.480469 C 129.351562 103.480469 130.050781 102.316406 130.050781 100.449219 L 130.050781 94.855469 L 134.710938 94.855469 L 134.710938 100.21875 C 134.710938 104.644531 132.847656 107.910156 127.484375 107.910156 C 122.125 107.441406 119.792969 103.945312 119.792969 99.050781 Z M 137.972656 99.050781 L 137.972656 84.136719 C 137.972656 79.242188 140.304688 75.980469 145.664062 75.980469 C 151.027344 75.980469 153.589844 79.476562 153.589844 84.136719 L 153.589844 99.050781 C 153.589844 103.714844 151.257812 107.210938 145.664062 107.210938 C 140.304688 107.441406 137.972656 103.945312 137.972656 99.050781 Z M 148.460938 99.984375 L 148.460938 83.4375 C 148.460938 81.574219 147.761719 80.175781 145.898438 80.175781 C 144.035156 80.175781 143.335938 81.574219 143.335938 83.4375 L 143.335938 99.984375 C 143.335938 101.847656 144.035156 103.246094 145.898438 103.246094 C 147.761719 103.015625 148.460938 101.847656 148.460938 99.984375 Z M 161.28125 87.863281 L 161.28125 107.210938 L 156.851562 107.210938 L 156.851562 76.679688 L 161.980469 76.679688 L 167.574219 94.15625 L 167.574219 76.679688 L 171.769531 76.679688 L 171.769531 107.210938 L 167.339844 107.210938 Z M 175.03125 100.449219 L 175.03125 96.253906 L 179.925781 96.253906 L 179.925781 100.449219 C 179.925781 102.082031 180.625 103.246094 182.488281 103.246094 C 184.121094 103.246094 184.820312 102.082031 184.820312 100.449219 L 184.820312 99.285156 C 184.820312 97.421875 184.121094 96.488281 182.488281 94.855469 L 179.460938 91.828125 C 176.429688 89.03125 175.265625 87.164062 175.265625 83.671875 L 175.265625 82.738281 C 175.265625 79.007812 177.59375 75.980469 182.488281 75.980469 C 187.617188 75.980469 189.714844 78.542969 189.714844 82.972656 L 189.714844 85.535156 L 185.054688 85.535156 L 185.054688 82.972656 C 185.054688 81.105469 184.355469 80.40625 182.722656 80.40625 C 181.324219 80.40625 180.390625 81.105469 180.390625 82.972656 L 180.390625 83.671875 C 180.390625 85.300781 181.324219 86.464844 182.722656 87.863281 L 185.984375 91.128906 C 188.78125 93.925781 190.179688 95.789062 190.179688 99.050781 L 190.179688 100.449219 C 190.179688 104.644531 187.847656 107.675781 182.722656 107.675781 C 177.128906 107.441406 175.03125 104.414062 175.03125 100.449219 Z M 207.894531 76.445312 L 207.894531 99.519531 C 207.894531 104.179688 205.796875 107.441406 200.667969 107.441406 C 195.308594 107.441406 192.976562 104.414062 192.976562 99.519531 L 192.976562 76.445312 L 198.105469 76.445312 L 198.105469 100.21875 C 198.105469 102.082031 198.804688 103.246094 200.667969 103.246094 C 202.53125 103.246094 203.230469 102.082031 203.230469 100.21875 L 203.230469 76.445312 Z M 225.605469 87.164062 L 221.878906 106.976562 L 219.546875 106.976562 L 215.816406 87.164062 L 215.816406 106.976562 L 211.621094 106.976562 L 211.621094 76.445312 L 217.683594 76.445312 L 220.945312 93.691406 L 223.972656 76.445312 L 230.5 76.445312 L 230.5 106.976562 L 225.839844 106.976562 L 225.839844 87.164062 Z M 233.761719 76.445312 L 241.453125 76.445312 C 246.582031 76.445312 248.445312 79.007812 248.445312 83.203125 L 248.445312 89.730469 C 248.445312 93.925781 246.582031 96.722656 241.453125 96.722656 L 238.890625 96.722656 L 238.890625 107.210938 L 233.761719 107.210938 Z M 238.890625 80.640625 L 238.890625 92.757812 L 240.753906 92.757812 C 242.621094 92.757812 243.320312 91.828125 243.320312 90.195312 L 243.320312 83.203125 C 243.320312 81.574219 242.621094 80.640625 240.753906 80.640625 Z M 250.078125 76.445312 L 263.828125 76.445312 L 263.828125 80.640625 L 259.632812 80.640625 L 259.632812 106.976562 L 254.507812 106.976562 L 254.507812 80.640625 L 250.3125 80.640625 Z M 266.160156 76.445312 L 271.285156 76.445312 L 271.285156 106.976562 L 266.160156 106.976562 Z M 274.316406 99.050781 L 274.316406 84.136719 C 274.316406 79.242188 276.648438 75.980469 282.007812 75.980469 C 287.367188 75.980469 289.933594 79.476562 289.933594 84.136719 L 289.933594 99.050781 C 289.933594 103.714844 287.601562 107.210938 282.007812 107.210938 C 276.648438 107.441406 274.316406 103.945312 274.316406 99.050781 Z M 284.804688 99.984375 L 284.804688 83.4375 C 284.804688 81.574219 284.105469 80.175781 282.242188 80.175781 C 280.375 80.175781 279.675781 81.574219 279.675781 83.4375 L 279.675781 99.984375 C 279.675781 101.847656 280.375 103.246094 282.242188 103.246094 C 283.871094 103.015625 284.804688 101.847656 284.804688 99.984375 Z M 297.390625 87.863281 L 297.390625 107.210938 L 292.960938 107.210938 L 292.960938 76.679688 L 298.089844 76.679688 L 303.683594 94.15625 L 303.683594 76.679688 L 307.878906 76.679688 L 307.878906 107.210938 L 303.449219 107.210938 Z M 297.390625 87.863281 " fill-opacity="1" fill-rule="nonzero"/><path fill="#ffffff" d="M 119.097656 151.957031 L 124.921875 121.425781 L 130.75 121.425781 L 136.574219 151.957031 L 131.214844 151.957031 L 130.28125 146.363281 L 124.921875 146.363281 L 123.988281 151.957031 Z M 125.386719 142.402344 L 129.582031 142.402344 L 127.484375 130.050781 Z M 143.101562 132.847656 L 143.101562 152.191406 L 138.671875 152.191406 L 138.671875 121.660156 L 143.800781 121.660156 L 149.394531 139.140625 L 149.394531 121.660156 L 153.589844 121.660156 L 153.589844 152.191406 L 149.160156 152.191406 Z M 172.234375 129.582031 L 172.234375 143.800781 C 172.234375 148.460938 170.371094 151.957031 164.777344 151.957031 L 156.851562 151.957031 L 156.851562 121.425781 L 164.777344 121.425781 C 170.136719 121.425781 172.234375 124.921875 172.234375 129.582031 Z M 164.078125 147.761719 C 166.175781 147.761719 167.105469 146.597656 167.105469 144.734375 L 167.105469 128.652344 C 167.105469 126.785156 166.40625 125.621094 164.078125 125.621094 L 161.980469 125.621094 L 161.980469 147.761719 Z M 180.160156 121.425781 L 187.851562 121.425781 C 192.976562 121.425781 194.839844 123.988281 194.839844 128.183594 L 194.839844 134.710938 C 194.839844 138.90625 192.976562 141.703125 187.851562 141.703125 L 185.285156 141.703125 L 185.285156 152.191406 L 180.160156 152.191406 Z M 185.285156 125.621094 L 185.285156 137.742188 L 187.152344 137.742188 C 189.015625 137.742188 189.714844 136.808594 189.714844 135.175781 L 189.714844 128.183594 C 189.714844 126.554688 189.015625 125.621094 187.152344 125.621094 Z M 202.765625 137.972656 L 202.765625 151.957031 L 197.636719 151.957031 L 197.636719 121.425781 L 205.097656 121.425781 C 210.222656 121.425781 212.089844 123.988281 212.089844 128.183594 L 212.089844 132.148438 C 212.089844 135.410156 210.921875 137.273438 207.894531 137.972656 L 212.789062 151.957031 L 207.425781 151.957031 Z M 202.765625 125.621094 L 202.765625 135.175781 L 204.398438 135.175781 C 206.261719 135.175781 206.960938 134.246094 206.960938 132.613281 L 206.960938 128.183594 C 206.960938 126.554688 206.261719 125.621094 204.398438 125.621094 Z M 215.117188 144.035156 L 215.117188 129.117188 C 215.117188 124.222656 217.449219 120.960938 222.808594 120.960938 C 228.167969 120.960938 230.734375 124.457031 230.734375 129.117188 L 230.734375 144.035156 C 230.734375 148.695312 228.402344 152.191406 222.808594 152.191406 C 217.449219 152.425781 215.117188 148.929688 215.117188 144.035156 Z M 225.605469 144.964844 L 225.605469 128.417969 C 225.605469 126.554688 224.90625 125.15625 223.042969 125.15625 C 221.179688 125.15625 220.480469 126.554688 220.480469 128.417969 L 220.480469 144.964844 C 220.480469 146.832031 221.179688 148.230469 223.042969 148.230469 C 224.90625 147.996094 225.605469 146.832031 225.605469 144.964844 Z M 249.378906 129.582031 L 249.378906 143.800781 C 249.378906 148.460938 247.515625 151.957031 241.921875 151.957031 L 233.996094 151.957031 L 233.996094 121.425781 L 241.921875 121.425781 C 247.28125 121.425781 249.378906 124.921875 249.378906 129.582031 Z M 241.222656 147.761719 C 243.320312 147.761719 244.25 146.597656 244.25 144.734375 L 244.25 128.652344 C 244.25 126.785156 243.550781 125.621094 241.222656 125.621094 L 239.125 125.621094 L 239.125 147.761719 Z M 267.324219 121.425781 L 267.324219 144.5 C 267.324219 149.160156 265.226562 152.425781 260.097656 152.425781 C 254.738281 152.425781 252.410156 149.394531 252.410156 144.5 L 252.410156 121.425781 L 257.535156 121.425781 L 257.535156 145.199219 C 257.535156 147.0625 258.234375 148.230469 260.097656 148.230469 C 261.964844 148.230469 262.664062 147.0625 262.664062 145.199219 L 262.664062 121.425781 Z M 270.355469 144.035156 L 270.355469 129.117188 C 270.355469 124.222656 272.683594 120.960938 278.046875 120.960938 C 283.640625 120.960938 285.269531 124.222656 285.269531 128.652344 L 285.269531 132.378906 L 280.609375 132.378906 L 280.609375 128.417969 C 280.609375 126.554688 279.910156 125.386719 278.046875 125.386719 C 276.179688 125.386719 275.480469 126.785156 275.480469 128.652344 L 275.480469 145.199219 C 275.480469 147.0625 276.179688 148.460938 278.046875 148.460938 C 279.910156 148.460938 280.609375 147.296875 280.609375 145.433594 L 280.609375 139.839844 L 285.269531 139.839844 L 285.269531 145.199219 C 285.269531 149.628906 283.40625 152.890625 278.046875 152.890625 C 272.683594 152.425781 270.355469 148.929688 270.355469 144.035156 Z M 287.835938 121.425781 L 301.585938 121.425781 L 301.585938 125.621094 L 297.390625 125.621094 L 297.390625 151.957031 L 292.261719 151.957031 L 292.261719 125.621094 L 288.066406 125.621094 Z M 303.914062 121.425781 L 309.042969 121.425781 L 309.042969 151.957031 L 303.914062 151.957031 Z M 312.074219 144.035156 L 312.074219 129.117188 C 312.074219 124.222656 314.402344 120.960938 319.765625 120.960938 C 325.125 120.960938 327.6875 124.457031 327.6875 129.117188 L 327.6875 144.035156 C 327.6875 148.695312 325.355469 152.191406 319.765625 152.191406 C 314.402344 152.425781 312.074219 148.929688 312.074219 144.035156 Z M 322.5625 144.964844 L 322.5625 128.417969 C 322.5625 126.554688 321.863281 125.15625 319.996094 125.15625 C 318.132812 125.15625 317.433594 126.554688 317.433594 128.417969 L 317.433594 144.964844 C 317.433594 146.832031 318.132812 148.230469 319.996094 148.230469 C 321.628906 147.996094 322.5625 146.832031 322.5625 144.964844 Z M 334.914062 132.847656 L 334.914062 152.191406 L 330.484375 152.191406 L 330.484375 121.660156 L 335.613281 121.660156 L 341.207031 139.140625 L 341.207031 121.660156 L 345.402344 121.660156 L 345.402344 152.191406 L 340.972656 152.191406 Z M 334.914062 132.847656 " fill-opacity="1" fill-rule="nonzero"/></svg>