<svg xmlns="http://www.w3.org/2000/svg" xmlns:xlink="http://www.w3.org/1999/xlink" width="500" zoomAndPan="magnify" viewBox="0 0 375 374.999991" height="500" preserveAspectRatio="xMidYMid meet" version="1.0"><rect x="-37.5" width="450" fill="#ffffff" y="-37.499999" height="449.999989" fill-opacity="1"/><rect x="-37.5" width="450" fill="#ffffff" y="-37.499999" height="449.999989" fill-opacity="1"/><rect x="-37.5" width="450" fill="#0a97d9" y="-37.499999" height="449.999989" fill-opacity="1"/><path fill="#ffffff" d="M 48.945312 31.695312 L 48.945312 107.210938 L 36.125 107.210938 L 36.125 49.410156 L 27.269531 58.730469 L 27.035156 58.730469 L 27.035156 45.449219 L 38.6875 31.695312 Z M 87.632812 107.210938 L 87.632812 94.855469 L 92.757812 94.855469 L 92.757812 84.835938 L 87.632812 84.835938 L 87.632812 31.464844 L 75.046875 31.464844 L 53.136719 86.933594 L 53.136719 94.855469 L 75.511719 94.855469 L 75.511719 107.210938 Z M 64.324219 85.070312 L 75.746094 53.835938 L 75.746094 85.070312 Z M 288.765625 273.851562 C 284.105469 267.558594 253.574219 228.636719 210.921875 228.636719 C 173.867188 228.636719 134.011719 262.195312 134.011719 262.195312 C 134.011719 262.195312 119.097656 231.664062 88.5625 228.636719 L 87.863281 228.636719 C 87.164062 228.636719 86.699219 229.335938 86.699219 229.800781 C 86.699219 230.265625 87.164062 230.964844 87.164062 230.964844 C 91.128906 237.492188 101.148438 256.136719 101.148438 274.550781 C 101.148438 293.195312 91.128906 311.839844 87.164062 318.367188 L 86.933594 318.832031 C 86.933594 319.066406 86.699219 319.296875 86.699219 319.53125 C 86.699219 320.230469 87.164062 320.695312 87.863281 320.695312 L 88.332031 320.695312 C 118.863281 317.898438 134.011719 287.136719 134.011719 287.136719 C 134.011719 287.136719 173.632812 320.695312 210.921875 320.695312 C 253.574219 320.695312 284.105469 281.773438 288.765625 275.480469 C 289 275.25 289 275.25 289 275.015625 L 289 274.082031 L 288.765625 273.851562 M 234.460938 279.675781 C 227.46875 279.675781 221.875 274.082031 221.875 267.089844 C 221.875 260.097656 227.46875 254.738281 234.460938 254.738281 C 241.453125 254.738281 247.046875 260.332031 247.046875 267.089844 C 247.046875 274.082031 241.453125 279.675781 234.460938 279.675781 M 87.398438 155.453125 L 87.164062 155.453125 C 86.464844 155.453125 86 155.917969 86 156.617188 L 86 165.242188 C 86 165.707031 86.234375 165.941406 86.464844 166.175781 C 107.210938 184.121094 126.554688 167.339844 131.214844 162.910156 C 131.214844 162.679688 131.449219 162.679688 131.449219 162.679688 C 131.679688 162.445312 131.914062 162.445312 132.148438 162.445312 C 132.378906 162.445312 132.847656 162.679688 133.078125 162.679688 C 156.386719 184.820312 180.859375 166.875 185.984375 162.679688 L 186.453125 162.210938 L 187.382812 162.210938 L 187.847656 162.679688 C 192.976562 166.875 217.449219 184.820312 240.753906 162.679688 C 240.988281 162.445312 241.222656 162.445312 241.6875 162.445312 C 241.921875 162.445312 242.152344 162.445312 242.386719 162.679688 C 242.621094 162.679688 242.621094 162.910156 242.621094 162.910156 C 247.046875 167.339844 266.625 184.121094 287.367188 166.175781 C 287.601562 165.941406 287.835938 165.707031 287.835938 165.242188 L 287.835938 156.617188 C 287.835938 155.917969 287.367188 155.453125 286.667969 155.453125 L 286.4375 155.453125 C 286.203125 155.453125 285.96875 155.6875 285.738281 155.6875 C 279.445312 158.949219 259.632812 166.40625 241.921875 149.628906 L 241.453125 149.160156 L 240.523438 149.160156 C 240.289062 149.160156 240.054688 149.394531 239.824219 149.628906 C 234.460938 153.589844 209.992188 170.136719 188.316406 149.859375 L 188.082031 149.628906 C 187.851562 149.394531 187.617188 149.160156 187.152344 149.160156 C 186.917969 149.160156 186.453125 149.394531 186.21875 149.628906 L 185.984375 149.859375 C 164.308594 170.136719 139.839844 153.589844 134.476562 149.628906 C 134.246094 149.394531 134.246094 149.160156 133.777344 149.160156 L 132.847656 149.160156 L 132.378906 149.628906 C 114.433594 166.640625 94.855469 158.949219 88.5625 155.6875 C 87.863281 155.6875 87.632812 155.453125 87.398438 155.453125 M 130.980469 193.675781 C 130.980469 193.441406 131.214844 193.441406 131.214844 193.441406 C 131.449219 193.210938 131.679688 193.210938 131.914062 193.210938 C 132.148438 193.210938 132.613281 193.441406 132.847656 193.441406 C 156.152344 215.585938 180.625 197.636719 185.753906 193.441406 L 186.21875 192.976562 L 187.152344 192.976562 L 187.617188 193.441406 C 192.742188 197.636719 217.214844 215.585938 240.523438 193.441406 C 240.753906 193.210938 240.988281 193.210938 241.453125 193.210938 C 241.6875 193.210938 241.921875 193.210938 242.152344 193.441406 C 242.386719 193.441406 242.386719 193.675781 242.386719 193.675781 C 246.816406 198.105469 266.390625 214.886719 287.136719 196.9375 C 287.367188 196.707031 287.601562 196.472656 287.601562 196.007812 L 287.601562 187.382812 C 287.601562 186.683594 287.136719 186.21875 286.4375 186.21875 L 286.203125 186.21875 C 285.96875 186.21875 285.738281 186.453125 285.503906 186.453125 C 279.210938 189.714844 259.398438 197.171875 241.6875 180.390625 L 241.222656 179.925781 C 240.988281 179.925781 240.988281 179.691406 240.753906 179.691406 L 240.289062 179.691406 C 240.054688 179.691406 239.824219 179.925781 239.589844 180.160156 C 234.230469 184.121094 209.757812 200.667969 188.082031 180.390625 L 187.851562 180.160156 C 187.617188 179.925781 187.382812 179.925781 186.917969 179.925781 C 186.683594 179.925781 186.21875 180.160156 185.984375 180.160156 L 185.753906 180.390625 C 164.078125 200.667969 139.605469 184.121094 134.246094 180.160156 C 134.011719 179.925781 134.011719 179.691406 133.546875 179.691406 L 133.078125 179.691406 C 132.847656 179.691406 132.847656 179.691406 132.613281 179.925781 L 132.148438 180.390625 C 114.203125 197.171875 94.625 189.714844 88.332031 186.453125 C 88.097656 186.453125 87.863281 186.21875 87.632812 186.21875 L 87.398438 186.21875 C 86.699219 186.21875 86.234375 186.683594 86.234375 187.382812 L 86.234375 196.007812 C 86.234375 196.472656 86.464844 196.707031 86.699219 196.9375 C 106.976562 214.886719 126.554688 198.105469 130.980469 193.675781 M 119.792969 31.464844 L 124.921875 31.464844 L 124.921875 57.800781 L 130.980469 57.800781 L 130.980469 61.996094 L 119.792969 61.996094 Z M 133.546875 31.464844 L 138.671875 31.464844 L 138.671875 61.996094 L 133.546875 61.996094 Z M 141.9375 31.464844 L 154.054688 31.464844 L 154.054688 35.660156 L 147.0625 35.660156 L 147.0625 44.515625 L 152.191406 44.515625 L 152.191406 48.710938 L 147.0625 48.710938 L 147.0625 62.226562 L 141.9375 62.226562 Z M 156.386719 31.464844 L 168.738281 31.464844 L 168.738281 35.660156 L 161.511719 35.660156 L 161.511719 44.515625 L 166.640625 44.515625 L 166.640625 48.710938 L 161.511719 48.710938 L 161.511719 58.03125 L 168.738281 58.03125 L 168.738281 62.226562 L 156.386719 62.226562 Z M 178.292969 31.464844 L 185.753906 31.464844 C 190.878906 31.464844 192.511719 33.792969 192.511719 38.222656 L 192.511719 41.253906 C 192.511719 43.816406 191.578125 45.449219 189.480469 46.148438 C 192.042969 46.847656 193.210938 48.476562 193.210938 51.273438 L 193.210938 55.234375 C 193.210938 59.664062 191.34375 61.996094 186.21875 61.996094 L 178.292969 61.996094 Z M 183.421875 44.515625 L 185.285156 44.515625 C 186.917969 44.515625 187.617188 43.582031 187.617188 41.953125 L 187.617188 38.222656 C 187.617188 36.589844 186.917969 35.660156 185.054688 35.660156 L 183.1875 35.660156 L 183.1875 44.515625 Z M 183.421875 48.476562 L 183.421875 58.03125 L 185.753906 58.03125 C 187.382812 58.03125 188.316406 57.101562 188.316406 55.46875 L 188.316406 50.808594 C 188.316406 49.175781 187.617188 48.246094 185.753906 48.246094 Z M 195.539062 31.464844 L 207.894531 31.464844 L 207.894531 35.660156 L 200.667969 35.660156 L 200.667969 44.515625 L 205.796875 44.515625 L 205.796875 48.710938 L 200.667969 48.710938 L 200.667969 58.03125 L 207.894531 58.03125 L 207.894531 62.226562 L 195.539062 62.226562 Z M 211.15625 31.464844 L 216.285156 31.464844 L 216.285156 57.800781 L 222.34375 57.800781 L 222.34375 61.996094 L 211.15625 61.996094 Z M 224.441406 54.304688 L 224.441406 39.386719 C 224.441406 34.492188 226.769531 31.230469 232.132812 31.230469 C 237.492188 31.230469 240.054688 34.726562 240.054688 39.386719 L 240.054688 54.304688 C 240.054688 58.964844 237.726562 62.460938 232.132812 62.460938 C 226.769531 62.460938 224.441406 58.964844 224.441406 54.304688 Z M 234.695312 55.003906 L 234.695312 38.457031 C 234.695312 36.589844 233.996094 35.191406 232.132812 35.191406 C 230.265625 35.191406 229.566406 36.589844 229.566406 38.457031 L 229.566406 55.003906 C 229.566406 56.867188 230.265625 58.265625 232.132812 58.265625 C 233.996094 58.265625 234.695312 56.867188 234.695312 55.003906 Z M 253.574219 43.117188 L 250.777344 61.996094 L 245.882812 61.996094 L 241.6875 31.464844 L 246.582031 31.464844 L 248.914062 50.808594 L 251.476562 31.464844 L 255.671875 31.464844 L 258.46875 50.808594 L 260.796875 31.464844 L 265.226562 31.464844 L 261.265625 61.996094 L 256.371094 61.996094 Z M 253.574219 43.117188 " fill-opacity="1" fill-rule="nonzero"/><path fill="#ffffff" d="M 130.980469 88.097656 L 128.183594 106.976562 L 123.289062 106.976562 L 119.097656 76.445312 L 123.988281 76.445312 L 126.320312 95.789062 L 128.882812 76.445312 L 133.078125 76.445312 L 135.875 95.789062 L 138.207031 76.445312 L 142.636719 76.445312 L 138.671875 106.976562 L 133.777344 106.976562 Z M 142.402344 107.210938 L 148.230469 76.679688 L 154.054688 76.679688 L 159.882812 107.210938 L 154.519531 107.210938 L 153.589844 101.617188 L 148.230469 101.617188 L 147.296875 107.210938 Z M 148.695312 97.421875 L 152.890625 97.421875 L 150.792969 85.070312 Z M 158.714844 76.445312 L 172.46875 76.445312 L 172.46875 80.640625 L 168.273438 80.640625 L 168.273438 106.976562 L 163.144531 106.976562 L 163.144531 80.640625 L 158.949219 80.640625 L 158.949219 76.445312 Z M 174.796875 76.445312 L 187.152344 76.445312 L 187.152344 80.640625 L 179.925781 80.640625 L 179.925781 89.496094 L 185.054688 89.496094 L 185.054688 93.691406 L 179.925781 93.691406 L 179.925781 103.015625 L 187.152344 103.015625 L 187.152344 107.210938 L 174.796875 107.210938 Z M 195.074219 92.992188 L 195.074219 106.976562 L 189.945312 106.976562 L 189.945312 76.445312 L 197.40625 76.445312 C 202.53125 76.445312 204.398438 79.007812 204.398438 83.203125 L 204.398438 87.164062 C 204.398438 90.429688 203.230469 92.292969 200.203125 92.992188 L 205.097656 106.976562 L 199.734375 106.976562 Z M 195.074219 80.640625 L 195.074219 90.195312 L 196.707031 90.195312 C 198.570312 90.195312 199.269531 89.261719 199.269531 87.632812 L 199.269531 83.203125 C 199.269531 81.574219 198.570312 80.640625 196.707031 80.640625 Z M 195.074219 80.640625 " fill-opacity="1" fill-rule="nonzero"/></svg>