<svg xmlns="http://www.w3.org/2000/svg" xmlns:xlink="http://www.w3.org/1999/xlink" width="500" zoomAndPan="magnify" viewBox="0 0 375 374.999991" height="500" preserveAspectRatio="xMidYMid meet" version="1.0"><rect x="-37.5" width="450" fill="#ffffff" y="-37.499999" height="449.999989" fill-opacity="1"/><rect x="-37.5" width="450" fill="#ffffff" y="-37.499999" height="449.999989" fill-opacity="1"/><rect x="-37.5" width="450" fill="#3f7e44" y="-37.499999" height="449.999989" fill-opacity="1"/><path fill="#ffffff" d="M 47.3125 31.464844 L 47.3125 107.210938 L 34.492188 107.210938 L 34.492188 49.175781 L 25.636719 58.5 L 25.402344 58.5 L 25.402344 45.214844 L 37.058594 31.464844 Z M 89.261719 48.011719 L 89.261719 54.535156 C 89.261719 60.828125 85.765625 65.023438 80.640625 66.890625 C 86.933594 68.289062 89.960938 72.714844 89.960938 79.707031 L 89.960938 90.894531 C 89.960938 101.382812 84.371094 108.140625 71.550781 108.140625 C 58.730469 108.140625 54.070312 100.683594 54.070312 89.261719 L 54.070312 79.242188 L 65.722656 79.242188 L 65.722656 89.960938 C 65.722656 94.390625 67.355469 97.421875 71.550781 97.421875 C 75.511719 97.421875 77.144531 94.625 77.144531 90.660156 L 77.144531 78.078125 C 77.144531 74.113281 75.28125 72.015625 70.851562 72.015625 L 65.492188 72.015625 L 65.492188 62.226562 L 70.386719 62.226562 C 74.582031 62.226562 77.144531 60.128906 77.144531 56.167969 L 77.144531 48.011719 C 77.144531 43.816406 75.746094 41.253906 71.785156 41.253906 C 67.820312 41.253906 66.421875 43.816406 66.421875 48.710938 L 66.421875 56.402344 L 54.769531 56.402344 L 54.769531 49.644531 C 54.769531 38.457031 59.429688 30.765625 72.484375 30.765625 C 84.136719 30.765625 89.261719 37.289062 89.261719 48.011719 M 325.125 234.929688 C 315.335938 221.179688 270.585938 165.707031 187.382812 165.707031 C 104.179688 165.707031 59.664062 220.945312 49.644531 234.929688 C 49.175781 235.628906 48.945312 236.09375 48.476562 236.558594 C 48.710938 237.027344 49.175781 237.492188 49.644531 238.191406 C 59.429688 251.941406 104.179688 307.410156 187.382812 307.410156 C 270.355469 307.410156 315.101562 252.175781 325.125 238.191406 C 325.589844 237.492188 325.824219 237.027344 326.289062 236.558594 C 325.824219 236.09375 325.589844 235.394531 325.125 234.929688 M 141.003906 200.667969 C 141.703125 199.503906 144.265625 196.472656 144.5 196.007812 C 145.199219 195.074219 146.363281 195.074219 147.296875 194.839844 C 148.230469 194.609375 149.394531 195.074219 149.394531 195.773438 C 149.628906 196.472656 149.160156 199.035156 148.695312 199.503906 C 147.53125 200.667969 144.265625 202.53125 142.636719 202.300781 C 141.46875 202.066406 140.769531 201.132812 141.003906 200.667969 M 138.207031 206.496094 C 138.441406 206.261719 138.441406 206.261719 138.441406 206.027344 C 139.371094 204.863281 141.46875 204.628906 143.101562 204.398438 C 144.5 204.164062 146.363281 204.863281 146.597656 205.796875 C 146.832031 206.726562 143.101562 208.59375 142.167969 209.058594 C 140.070312 210.921875 137.042969 214.652344 135.175781 215.117188 C 134.476562 215.351562 134.011719 215.117188 133.777344 214.886719 C 134.945312 212.320312 136.574219 209.292969 138.207031 206.496094 M 169.203125 270.355469 C 168.039062 274.78125 166.875 276.414062 165.707031 277.8125 C 164.542969 279.210938 160.347656 281.074219 157.785156 280.84375 C 155.21875 280.609375 154.753906 273.617188 154.753906 270.121094 C 154.753906 268.957031 152.890625 272.683594 151.957031 264.992188 C 151.257812 260.097656 148.230469 265.460938 147.996094 262.195312 C 147.761719 258.933594 146.132812 259.632812 144.5 257.535156 C 142.867188 255.4375 140.769531 257.769531 138.671875 258.699219 C 136.34375 259.632812 137.273438 260.332031 134.246094 259.167969 L 134.011719 259.167969 C 130.980469 252.175781 129.351562 244.71875 129.351562 236.558594 C 129.351562 234.695312 129.351562 232.597656 129.582031 230.734375 C 129.582031 230.5 129.816406 230.265625 130.050781 230.265625 C 133.078125 226.539062 133.078125 225.839844 133.078125 225.839844 L 136.574219 224.671875 C 136.574219 224.671875 141.9375 225.605469 146.132812 227.003906 C 149.394531 228.167969 154.753906 231.199219 157.785156 229.800781 C 160.113281 228.867188 161.746094 227.703125 161.511719 225.839844 C 161.28125 223.507812 159.414062 223.042969 157.316406 224.441406 C 156.386719 224.90625 154.753906 220.945312 153.355469 221.179688 C 151.957031 221.410156 154.988281 226.070312 153.820312 226.070312 C 152.65625 226.304688 150.328125 221.179688 149.859375 220.480469 C 149.394531 219.78125 147.761719 217.683594 146.132812 219.3125 C 142.636719 222.574219 137.273438 222.34375 136.109375 223.273438 C 132.613281 225.839844 131.914062 222.34375 131.914062 220.480469 C 132.148438 220.011719 132.148438 219.546875 132.378906 219.082031 C 133.546875 217.914062 137.507812 217.449219 138.90625 218.382812 C 140.304688 219.3125 141.46875 218.148438 142.167969 217.449219 C 142.867188 216.75 142.636719 215.816406 142.167969 215.117188 C 141.703125 214.417969 142.867188 213.71875 143.800781 213.488281 C 144.5 213.253906 147.0625 211.390625 148.230469 210.921875 C 149.160156 210.222656 154.519531 209.757812 157.085938 210.921875 C 159.414062 212.089844 161.746094 211.15625 162.910156 209.757812 C 164.308594 207.894531 166.175781 206.726562 167.105469 206.261719 C 168.039062 205.796875 165.007812 203.230469 162.679688 206.027344 C 160.347656 209.058594 159.183594 209.292969 158.015625 209.292969 C 156.851562 209.292969 150.328125 207.660156 149.394531 205.5625 C 148.695312 203.464844 151.492188 201.832031 154.054688 200.667969 C 156.617188 199.503906 163.378906 199.503906 165.007812 199.035156 C 168.503906 198.335938 172.933594 196.472656 175.265625 198.105469 C 177.59375 199.503906 165.941406 202.300781 169.671875 204.398438 C 171.070312 205.097656 177.128906 200.902344 179.226562 199.734375 C 184.121094 197.171875 174.332031 196.238281 175.730469 191.113281 C 177.128906 185.285156 163.609375 187.382812 157.085938 188.082031 C 166.175781 182.257812 176.664062 178.992188 188.316406 178.992188 C 215.585938 178.992188 238.425781 197.871094 244.484375 223.273438 C 244.484375 224.441406 244.25 225.371094 244.25 225.839844 C 243.785156 227.9375 239.824219 229.800781 237.492188 226.304688 C 236.792969 225.371094 234.460938 223.042969 234.460938 227.238281 C 234.460938 231.199219 238.425781 231.664062 234.695312 233.996094 C 230.964844 236.328125 230.265625 235.859375 228.636719 236.328125 C 227.003906 237.027344 225.371094 240.988281 225.605469 243.320312 C 226.070312 245.417969 231.199219 251.476562 227.46875 251.242188 C 226.539062 251.242188 219.546875 246.347656 218.382812 243.320312 C 217.214844 240.054688 215.816406 237.027344 214.886719 234.460938 C 213.953125 232.132812 211.390625 231.433594 209.523438 232.832031 C 207.425781 234.230469 209.992188 235.628906 208.59375 238.65625 C 207.195312 241.6875 206.027344 244.25 203.929688 241.921875 C 198.335938 235.394531 190.179688 238.65625 188.78125 231.433594 C 188.082031 227.46875 184.820312 227.9375 182.023438 225.605469 C 179.226562 223.507812 177.59375 222.109375 177.128906 223.742188 C 176.664062 225.140625 185.984375 232.597656 186.683594 234.460938 C 187.617188 237.257812 183.886719 239.824219 181.089844 240.289062 C 178.292969 240.988281 177.128906 238.65625 174.332031 235.859375 C 171.535156 233.0625 170.371094 230.964844 170.371094 233.296875 C 170.136719 236.558594 172.933594 241.222656 175.730469 242.851562 C 178.0625 244.25 180.625 244.949219 179.925781 247.515625 C 179.226562 249.84375 179.925781 248.445312 177.363281 251.242188 C 174.796875 253.808594 174.332031 254.738281 174.332031 258.234375 C 174.566406 261.964844 173.632812 261.964844 172.933594 264.992188 C 171.769531 268.488281 170.371094 265.925781 169.203125 270.355469 M 231.433594 247.28125 C 233.296875 247.046875 236.328125 249.84375 235.160156 250.777344 C 233.996094 251.710938 231.199219 251.476562 229.566406 250.3125 C 228.167969 249.144531 230.5 247.28125 231.433594 247.28125 M 228.867188 245.417969 C 228.167969 245.183594 227.703125 244.484375 227.238281 243.085938 C 226.769531 241.6875 227.9375 240.753906 229.101562 241.453125 C 230.265625 242.152344 231.898438 243.785156 231.898438 244.71875 C 231.898438 245.882812 229.566406 245.882812 228.867188 245.417969 M 203.230469 245.417969 C 202.066406 246.347656 199.269531 246.117188 197.636719 244.949219 C 196.238281 243.785156 198.570312 241.921875 199.503906 241.921875 C 201.601562 241.6875 204.398438 244.484375 203.230469 245.417969 M 179.691406 256.835938 C 178.992188 258.234375 176.664062 267.789062 175.265625 266.625 C 173.867188 265.460938 175.964844 255.4375 176.195312 254.507812 C 178.527344 250.542969 183.421875 250.777344 179.691406 256.835938 M 187.617188 294.59375 C 182.023438 294.59375 176.429688 293.660156 171.300781 292.261719 C 170.601562 291.5625 170.136719 290.628906 170.601562 289.464844 C 172.46875 284.804688 177.828125 282.941406 182.023438 282.472656 C 191.34375 281.542969 203.699219 288.535156 205.796875 287.367188 C 207.660156 286.203125 211.621094 281.074219 217.449219 281.308594 C 221.410156 281.542969 221.410156 282.242188 222.808594 282.707031 C 213.019531 290.164062 200.667969 294.59375 187.617188 294.59375 M 228.402344 277.8125 C 227.9375 277.578125 227.238281 277.347656 226.539062 277.113281 C 223.273438 275.480469 223.742188 278.046875 222.109375 277.578125 C 220.480469 277.113281 223.972656 273.382812 219.082031 276.414062 C 214.417969 279.445312 215.585938 275.949219 213.71875 270.820312 C 211.621094 265.691406 216.050781 259.867188 219.78125 258.46875 C 224.90625 256.601562 227.9375 256.371094 230.265625 255.671875 C 237.257812 254.039062 238.65625 249.84375 240.054688 252.410156 L 240.753906 253.808594 C 241.222656 254.507812 241.6875 256.136719 241.6875 257.535156 C 238.65625 265.226562 234.230469 271.984375 228.402344 277.8125 M 244.25 248.679688 C 242.621094 248.214844 236.09375 239.355469 241.453125 233.296875 C 242.386719 232.363281 239.824219 229.566406 240.523438 229.335938 C 243.320312 229.101562 244.71875 230.964844 245.648438 233.296875 L 245.648438 236.558594 C 245.417969 240.753906 244.949219 244.71875 244.25 248.679688 M 119.5625 54.304688 L 119.5625 39.386719 C 119.5625 34.492188 121.890625 31.230469 127.253906 31.230469 C 132.847656 31.230469 134.476562 34.492188 134.476562 38.921875 L 134.476562 42.652344 L 129.816406 42.652344 L 129.816406 38.6875 C 129.816406 36.824219 129.117188 35.660156 127.253906 35.660156 C 125.386719 35.660156 124.6875 37.058594 124.6875 38.921875 L 124.6875 55.46875 C 124.6875 57.332031 125.386719 58.730469 127.253906 58.730469 C 129.117188 58.730469 129.816406 57.566406 129.816406 55.703125 L 129.816406 50.109375 L 134.476562 50.109375 L 134.476562 55.46875 C 134.476562 59.898438 132.613281 63.160156 127.253906 63.160156 C 121.890625 62.460938 119.5625 58.964844 119.5625 54.304688 Z M 137.742188 31.464844 L 142.867188 31.464844 L 142.867188 57.800781 L 148.929688 57.800781 L 148.929688 61.996094 L 137.742188 61.996094 Z M 151.957031 31.464844 L 157.085938 31.464844 L 157.085938 61.996094 L 151.957031 61.996094 Z M 175.03125 42.183594 L 171.300781 61.996094 L 168.972656 61.996094 L 165.242188 42.183594 L 165.242188 61.996094 L 161.046875 61.996094 L 161.046875 31.464844 L 167.105469 31.464844 L 170.371094 48.710938 L 173.398438 31.464844 L 179.925781 31.464844 L 179.925781 61.996094 L 175.265625 61.996094 Z M 182.488281 62.226562 L 188.316406 31.695312 L 194.140625 31.695312 L 199.96875 62.226562 L 194.609375 62.226562 L 193.675781 56.632812 L 188.316406 56.632812 L 187.382812 62.226562 Z M 188.78125 52.4375 L 192.976562 52.4375 L 190.878906 40.085938 Z M 199.269531 31.464844 L 213.019531 31.464844 L 213.019531 35.660156 L 208.824219 35.660156 L 208.824219 61.996094 L 203.699219 61.996094 L 203.699219 35.660156 L 199.503906 35.660156 Z M 215.816406 31.464844 L 228.167969 31.464844 L 228.167969 35.660156 L 220.945312 35.660156 L 220.945312 44.515625 L 226.070312 44.515625 L 226.070312 48.710938 L 220.945312 48.710938 L 220.945312 58.03125 L 228.167969 58.03125 L 228.167969 62.226562 L 215.816406 62.226562 Z M 118.628906 106.511719 L 124.457031 75.980469 L 130.28125 75.980469 L 136.109375 106.511719 L 130.980469 106.511719 L 130.050781 100.917969 L 124.6875 100.917969 L 123.757812 106.511719 Z M 125.15625 96.722656 L 129.351562 96.722656 L 127.253906 84.371094 Z M 137.742188 98.585938 L 137.742188 83.671875 C 137.742188 78.777344 140.070312 75.511719 145.433594 75.511719 C 151.027344 75.511719 152.65625 78.777344 152.65625 83.203125 L 152.65625 86.933594 L 147.996094 86.933594 L 147.996094 82.972656 C 147.996094 81.105469 147.296875 79.941406 145.433594 79.941406 C 143.566406 79.941406 142.867188 81.339844 142.867188 83.203125 L 142.867188 99.75 C 142.867188 101.617188 143.566406 103.015625 145.433594 103.015625 C 147.296875 103.015625 147.996094 101.847656 147.996094 99.984375 L 147.996094 94.390625 L 152.65625 94.390625 L 152.65625 99.75 C 152.65625 104.179688 150.792969 107.441406 145.433594 107.441406 C 139.839844 106.976562 137.742188 103.246094 137.742188 98.585938 Z M 154.519531 75.980469 L 168.273438 75.980469 L 168.273438 80.175781 L 164.078125 80.175781 L 164.078125 106.511719 L 158.949219 106.511719 L 158.949219 80.175781 L 154.753906 80.175781 Z M 171.070312 75.980469 L 176.195312 75.980469 L 176.195312 106.511719 L 171.070312 106.511719 Z M 179.691406 98.585938 L 179.691406 83.671875 C 179.691406 78.777344 182.023438 75.511719 187.382812 75.511719 C 192.742188 75.511719 195.308594 79.007812 195.308594 83.671875 L 195.308594 98.585938 C 195.308594 103.246094 192.976562 106.742188 187.382812 106.742188 C 182.023438 106.976562 179.691406 103.246094 179.691406 98.585938 Z M 189.945312 99.519531 L 189.945312 82.972656 C 189.945312 81.105469 189.246094 79.707031 187.382812 79.707031 C 185.519531 79.707031 184.820312 81.105469 184.820312 82.972656 L 184.820312 99.519531 C 184.820312 101.382812 185.519531 102.78125 187.382812 102.78125 C 189.246094 102.546875 189.945312 101.382812 189.945312 99.519531 Z M 203 87.164062 L 203 106.511719 L 198.570312 106.511719 L 198.570312 75.980469 L 203.699219 75.980469 L 209.292969 93.457031 L 209.292969 75.980469 L 213.488281 75.980469 L 213.488281 106.511719 L 209.058594 106.511719 Z M 203 87.164062 " fill-opacity="1" fill-rule="nonzero"/></svg>