<svg xmlns="http://www.w3.org/2000/svg" xmlns:xlink="http://www.w3.org/1999/xlink" width="500" zoomAndPan="magnify" viewBox="0 0 375 374.999991" height="500" preserveAspectRatio="xMidYMid meet" version="1.0"><rect x="-37.5" width="450" fill="#ffffff" y="-37.499999" height="449.999989" fill-opacity="1"/><rect x="-37.5" width="450" fill="#ffffff" y="-37.499999" height="449.999989" fill-opacity="1"/><rect x="-37.5" width="450" fill="#dd1367" y="-37.499999" height="449.999989" fill-opacity="1"/><path fill="#ffffff" d="M 36.359375 49.175781 L 36.359375 106.976562 L 48.945312 106.976562 L 48.945312 31.464844 L 38.921875 31.464844 L 27.035156 44.980469 L 27.035156 58.265625 L 27.269531 58.265625 Z M 95.554688 87.632812 L 95.554688 51.042969 C 95.554688 39.15625 89.730469 30.53125 76.679688 30.53125 C 63.859375 30.53125 58.03125 39.15625 58.03125 51.042969 L 58.03125 87.632812 C 58.03125 99.285156 63.859375 108.140625 76.679688 108.140625 C 89.496094 107.910156 95.554688 99.285156 95.554688 87.632812 M 70.617188 89.496094 L 70.617188 48.945312 C 70.617188 44.28125 72.25 41.019531 76.679688 41.019531 C 81.105469 41.019531 82.738281 44.28125 82.738281 48.945312 L 82.738281 89.496094 C 82.738281 94.15625 81.105469 97.421875 76.679688 97.421875 C 72.25 97.421875 70.617188 94.15625 70.617188 89.496094 " fill-opacity="1" fill-rule="nonzero"/><path fill="#ffffff" d="M 124.921875 48.011719 L 124.921875 61.996094 L 119.792969 61.996094 L 119.792969 31.230469 L 127.253906 31.230469 C 132.378906 31.230469 134.246094 33.792969 134.246094 37.988281 L 134.246094 41.953125 C 134.246094 45.214844 133.078125 47.078125 130.050781 47.777344 L 134.945312 61.761719 L 129.582031 61.761719 Z M 124.921875 35.425781 L 124.921875 44.980469 L 126.554688 44.980469 C 128.417969 44.980469 129.117188 44.050781 129.117188 42.417969 L 129.117188 37.988281 C 129.117188 36.359375 128.417969 35.425781 126.554688 35.425781 Z M 137.742188 31.230469 L 150.09375 31.230469 L 150.09375 35.425781 L 142.867188 35.425781 L 142.867188 44.28125 L 147.996094 44.28125 L 147.996094 48.476562 L 142.867188 48.476562 L 142.867188 57.800781 L 150.09375 57.800781 L 150.09375 61.996094 L 137.742188 61.996094 Z M 167.574219 39.621094 L 167.574219 53.835938 C 167.574219 58.5 165.707031 61.996094 160.113281 61.996094 L 152.191406 61.996094 L 152.191406 31.230469 L 160.113281 31.230469 C 165.707031 31.230469 167.574219 34.726562 167.574219 39.621094 Z M 159.414062 57.800781 C 161.511719 57.800781 162.445312 56.632812 162.445312 54.769531 L 162.445312 38.6875 C 162.445312 36.824219 161.746094 35.660156 159.414062 35.660156 L 157.316406 35.660156 L 157.316406 57.800781 Z M 185.984375 31.230469 L 185.984375 54.304688 C 185.984375 58.964844 183.886719 62.226562 178.761719 62.226562 C 173.398438 62.226562 171.070312 59.199219 171.070312 54.304688 L 171.070312 31.230469 L 176.195312 31.230469 L 176.195312 55.003906 C 176.195312 56.867188 176.894531 58.03125 178.761719 58.03125 C 180.625 58.03125 181.324219 56.867188 181.324219 55.003906 L 181.324219 31.230469 Z M 189.246094 54.070312 L 189.246094 39.15625 C 189.246094 34.261719 191.578125 30.996094 196.9375 30.996094 C 202.53125 30.996094 204.164062 34.261719 204.164062 38.6875 L 204.164062 42.417969 L 199.503906 42.417969 L 199.503906 38.222656 C 199.503906 36.359375 198.804688 35.191406 196.9375 35.191406 C 195.074219 35.191406 194.375 36.589844 194.375 38.457031 L 194.375 55.003906 C 194.375 56.867188 195.074219 58.265625 196.9375 58.265625 C 198.804688 58.265625 199.503906 57.101562 199.503906 55.234375 L 199.503906 49.644531 L 204.164062 49.644531 L 204.164062 55.003906 C 204.164062 59.429688 202.300781 62.695312 196.9375 62.695312 C 191.578125 62.226562 189.246094 58.730469 189.246094 54.070312 Z M 207.425781 31.230469 L 219.78125 31.230469 L 219.78125 35.425781 L 212.554688 35.425781 L 212.554688 44.28125 L 217.683594 44.28125 L 217.683594 48.476562 L 212.554688 48.476562 L 212.554688 57.800781 L 219.78125 57.800781 L 219.78125 61.996094 L 207.425781 61.996094 Z M 238.425781 39.621094 L 238.425781 53.835938 C 238.425781 58.5 236.558594 61.996094 230.964844 61.996094 L 223.042969 61.996094 L 223.042969 31.230469 L 230.964844 31.230469 C 236.558594 31.230469 238.425781 34.726562 238.425781 39.621094 Z M 230.265625 57.800781 C 232.363281 57.800781 233.296875 56.632812 233.296875 54.769531 L 233.296875 38.6875 C 233.296875 36.824219 232.597656 35.660156 230.265625 35.660156 L 228.167969 35.660156 L 228.167969 57.800781 Z M 230.265625 57.800781 " fill-opacity="1" fill-rule="nonzero"/><path fill="#ffffff" d="M 119.792969 75.980469 L 124.921875 75.980469 L 124.921875 106.511719 L 119.792969 106.511719 Z M 132.613281 87.164062 L 132.613281 106.511719 L 128.183594 106.511719 L 128.183594 75.980469 L 133.3125 75.980469 L 138.90625 93.457031 L 138.90625 75.980469 L 143.101562 75.980469 L 143.101562 106.511719 L 138.671875 106.511719 Z M 146.132812 75.980469 L 158.484375 75.980469 L 158.484375 80.175781 L 151.257812 80.175781 L 151.257812 89.03125 L 156.386719 89.03125 L 156.386719 93.226562 L 151.257812 93.226562 L 151.257812 102.546875 L 158.484375 102.546875 L 158.484375 106.742188 L 146.132812 106.742188 Z M 166.175781 108.609375 L 166.175781 106.511719 C 161.980469 105.8125 160.347656 102.78125 160.347656 98.585938 L 160.347656 83.671875 C 160.347656 78.777344 162.679688 75.511719 168.039062 75.511719 C 173.398438 75.511719 175.964844 79.007812 175.964844 83.671875 L 175.964844 98.585938 C 175.964844 101.847656 174.796875 104.644531 172.234375 105.8125 L 175.964844 106.511719 L 175.964844 110.238281 Z M 170.835938 99.75 L 170.835938 82.972656 C 170.835938 81.105469 170.136719 79.707031 168.273438 79.707031 C 166.40625 79.707031 165.707031 81.105469 165.707031 82.972656 L 165.707031 99.75 C 165.707031 101.617188 166.40625 103.015625 168.273438 103.015625 C 169.902344 102.78125 170.835938 101.617188 170.835938 99.75 Z M 193.675781 75.980469 L 193.675781 99.050781 C 193.675781 103.714844 191.578125 106.976562 186.453125 106.976562 C 181.089844 106.976562 178.761719 103.945312 178.761719 99.050781 L 178.761719 75.980469 L 183.886719 75.980469 L 183.886719 99.75 C 183.886719 101.617188 184.585938 102.78125 186.453125 102.78125 C 188.316406 102.78125 189.015625 101.617188 189.015625 99.75 L 189.015625 75.980469 Z M 195.308594 106.511719 L 201.132812 75.980469 L 206.960938 75.980469 L 212.789062 106.511719 L 207.425781 106.511719 L 206.496094 100.917969 L 201.132812 100.917969 L 200.203125 106.511719 Z M 201.832031 96.722656 L 206.027344 96.722656 L 203.929688 84.371094 Z M 215.117188 75.980469 L 220.246094 75.980469 L 220.246094 102.316406 L 226.304688 102.316406 L 226.304688 106.511719 L 215.117188 106.511719 Z M 228.636719 75.980469 L 233.761719 75.980469 L 233.761719 106.511719 L 228.636719 106.511719 Z M 236.09375 75.980469 L 249.84375 75.980469 L 249.84375 80.175781 L 245.648438 80.175781 L 245.648438 106.511719 L 240.523438 106.511719 L 240.523438 80.175781 L 236.328125 80.175781 L 236.328125 75.980469 Z M 252.175781 75.980469 L 257.300781 75.980469 L 257.300781 106.511719 L 252.175781 106.511719 Z M 260.332031 75.980469 L 272.683594 75.980469 L 272.683594 80.175781 L 265.460938 80.175781 L 265.460938 89.03125 L 270.585938 89.03125 L 270.585938 93.226562 L 265.460938 93.226562 L 265.460938 102.546875 L 272.683594 102.546875 L 272.683594 106.742188 L 260.332031 106.742188 Z M 274.78125 99.984375 L 274.78125 95.789062 L 279.675781 95.789062 L 279.675781 99.984375 C 279.675781 101.617188 280.375 102.78125 282.242188 102.78125 C 283.871094 102.78125 284.570312 101.617188 284.570312 99.984375 L 284.570312 98.820312 C 284.570312 96.953125 283.871094 96.023438 282.242188 94.390625 L 279.210938 91.359375 C 276.179688 88.5625 275.015625 86.699219 275.015625 83.203125 L 275.015625 82.273438 C 275.015625 78.542969 277.347656 75.511719 282.242188 75.511719 C 287.367188 75.511719 289.464844 78.078125 289.464844 82.503906 L 289.464844 85.066406 L 284.804688 85.066406 L 284.804688 82.503906 C 284.804688 80.640625 284.105469 79.941406 282.472656 79.941406 C 281.074219 79.941406 280.144531 80.640625 280.144531 82.503906 L 280.144531 83.203125 C 280.144531 84.835938 281.074219 86 282.472656 87.398438 L 285.738281 90.660156 C 288.535156 93.457031 289.929688 95.324219 289.929688 98.585938 L 289.929688 99.984375 C 289.929688 104.179688 287.601562 107.210938 282.472656 107.210938 C 276.648438 106.976562 274.78125 103.945312 274.78125 99.984375 Z M 274.78125 99.984375 " fill-opacity="1" fill-rule="nonzero"/><path fill="#ffffff" d="M 123.757812 204.863281 L 88.5625 240.054688 L 123.757812 275.480469 Z M 251.476562 275.480469 L 286.667969 240.054688 L 251.476562 204.863281 Z M 223.042969 176.429688 L 187.617188 141.238281 L 152.425781 176.429688 Z M 152.425781 303.914062 L 187.617188 339.109375 L 223.042969 303.914062 Z M 149.394531 207.195312 L 226.070312 207.195312 L 226.070312 228.402344 L 149.394531 228.402344 Z M 149.394531 251.011719 L 226.070312 251.011719 L 226.070312 273.152344 L 149.394531 273.152344 Z M 149.394531 251.011719 " fill-opacity="1" fill-rule="nonzero"/></svg>