<svg xmlns="http://www.w3.org/2000/svg" xmlns:xlink="http://www.w3.org/1999/xlink" width="500" zoomAndPan="magnify" viewBox="0 0 375 374.999991" height="500" preserveAspectRatio="xMidYMid meet" version="1.0"><rect x="-37.5" width="450" fill="#ffffff" y="-37.499999" height="449.999989" fill-opacity="1"/><rect x="-37.5" width="450" fill="#ffffff" y="-37.499999" height="449.999989" fill-opacity="1"/><rect x="-37.5" width="450" fill="#ffffff" y="-37.499999" height="449.999989" fill-opacity="1"/><rect x="-37.5" width="450" fill="#e5243b" y="-37.499999" height="449.999989" fill-opacity="1"/><path fill="#ffffff" d="M 52.207031 49.410156 L 52.4375 107.210938 L 65.023438 107.210938 L 65.023438 31.695312 L 55.003906 31.695312 L 43.351562 45.449219 L 43.351562 58.730469 Z M 305.78125 189.480469 C 311.605469 189.480469 316.035156 184.820312 316.035156 178.992188 C 316.035156 173.167969 311.375 168.503906 305.78125 168.503906 C 299.953125 168.503906 295.292969 173.167969 295.292969 178.992188 C 295.292969 184.820312 299.953125 189.480469 305.78125 189.480469 Z M 317.898438 193.441406 L 293.660156 193.441406 C 286.667969 194.140625 281.074219 199.96875 281.074219 207.195312 L 281.074219 235.859375 C 281.074219 237.957031 282.941406 239.824219 285.039062 239.824219 C 287.367188 239.824219 289 237.957031 289 235.859375 L 289 211.15625 C 289 210.222656 289.234375 209.058594 290.863281 209.058594 C 292.027344 209.058594 292.261719 210.222656 292.261719 211.15625 L 292.261719 285.269531 C 292.261719 288.535156 294.824219 291.097656 298.089844 291.097656 C 301.351562 291.097656 303.914062 288.535156 303.914062 285.269531 L 303.914062 242.386719 C 303.914062 241.921875 304.148438 240.753906 305.546875 240.753906 C 306.945312 240.753906 307.179688 241.921875 307.179688 242.386719 L 307.179688 285.039062 C 307.179688 288.300781 309.742188 290.863281 313.003906 290.863281 C 316.269531 290.863281 318.832031 288.300781 318.832031 285.039062 L 318.832031 210.921875 C 318.832031 210.222656 319.066406 208.824219 320.230469 208.824219 C 321.863281 208.824219 322.09375 209.992188 322.09375 210.921875 L 322.09375 235.628906 C 322.09375 237.726562 323.960938 239.589844 326.054688 239.589844 C 328.386719 239.589844 330.019531 237.726562 330.019531 235.628906 L 330.019531 207.195312 C 330.484375 199.96875 324.890625 193.910156 317.898438 193.441406 Z M 223.742188 194.375 C 229.101562 194.375 233.53125 189.945312 233.53125 184.585938 C 233.53125 179.226562 229.101562 174.796875 223.742188 174.796875 C 218.382812 174.796875 213.953125 179.226562 213.953125 184.585938 C 213.953125 189.945312 218.382812 194.375 223.742188 194.375 Z M 235.394531 212.320312 C 236.792969 211.855469 237.027344 213.71875 237.027344 213.71875 L 243.550781 235.859375 C 243.550781 235.859375 244.71875 240.523438 248.914062 239.355469 C 253.109375 238.191406 251.710938 233.296875 251.710938 233.296875 L 243.550781 206.726562 C 243.550781 206.726562 240.523438 199.035156 234.230469 199.035156 L 213.253906 199.035156 C 206.726562 199.035156 203.929688 206.726562 203.929688 206.726562 L 195.773438 233.296875 C 195.773438 233.296875 194.375 238.191406 198.570312 239.355469 C 202.765625 240.523438 203.929688 235.859375 203.929688 235.859375 L 210.457031 213.71875 C 210.457031 213.71875 210.921875 212.089844 212.089844 212.320312 C 213.488281 212.789062 212.789062 214.417969 212.789062 214.417969 L 201.367188 256.136719 L 212.089844 256.136719 L 212.089844 285.96875 C 212.089844 288.765625 214.417969 291.097656 217.214844 291.097656 C 220.011719 291.097656 222.34375 288.765625 222.34375 285.96875 L 222.34375 256.136719 L 225.140625 256.136719 L 225.140625 285.96875 C 225.140625 288.765625 227.46875 291.097656 230.265625 291.097656 C 233.0625 291.097656 235.394531 288.765625 235.394531 285.96875 L 235.394531 256.136719 L 246.117188 256.136719 L 234.695312 214.417969 C 234.695312 214.417969 234.230469 212.789062 235.394531 212.320312 Z M 164.777344 194.375 C 170.136719 194.375 174.566406 189.945312 174.566406 184.585938 C 174.566406 179.226562 170.136719 174.796875 164.777344 174.796875 C 159.414062 174.796875 154.988281 179.226562 154.988281 184.585938 C 154.988281 189.945312 159.414062 194.375 164.777344 194.375 Z M 184.585938 206.726562 C 184.585938 206.726562 181.789062 199.035156 175.265625 199.035156 L 154.289062 199.035156 C 147.761719 199.035156 144.964844 206.726562 144.964844 206.726562 L 136.808594 233.296875 C 136.808594 233.296875 136.574219 233.996094 136.574219 234.929688 C 136.109375 234.230469 135.175781 233.761719 134.246094 233.761719 C 133.078125 233.761719 132.148438 234.230469 131.679688 235.160156 C 131.449219 235.394531 127.71875 242.152344 126.320312 243.320312 C 124.921875 244.71875 123.757812 244.484375 123.757812 244.484375 L 113.96875 244.484375 C 113.96875 244.484375 112.804688 244.71875 111.40625 243.320312 C 110.238281 242.152344 106.277344 235.160156 106.042969 235.160156 C 105.578125 234.230469 104.644531 233.761719 103.480469 233.761719 C 102.546875 233.761719 101.617188 234.230469 101.148438 235.160156 L 101.148438 207.195312 C 101.148438 199.96875 95.554688 194.140625 88.5625 193.441406 L 64.324219 193.441406 C 57.332031 194.140625 51.738281 199.96875 51.738281 207.195312 L 51.738281 235.859375 C 51.738281 237.492188 52.671875 238.65625 53.835938 239.355469 C 53.835938 239.355469 53.605469 239.589844 53.605469 239.824219 L 44.28125 288.765625 C 44.050781 289.699219 44.75 290.398438 45.449219 290.628906 L 45.679688 290.628906 C 46.378906 290.628906 47.078125 290.164062 47.078125 289.464844 L 56.402344 240.523438 L 56.402344 240.054688 C 58.265625 239.589844 59.429688 237.957031 59.429688 236.09375 L 59.429688 211.390625 C 59.429688 210.457031 59.664062 209.292969 61.296875 209.292969 C 62.460938 209.292969 62.695312 210.457031 62.695312 211.390625 L 62.695312 285.503906 C 62.695312 288.765625 65.257812 291.328125 68.519531 291.328125 C 71.785156 291.328125 74.347656 288.765625 74.347656 285.503906 L 74.347656 242.386719 C 74.347656 241.921875 74.582031 240.753906 75.980469 240.753906 C 77.378906 240.753906 77.609375 241.921875 77.609375 242.386719 L 77.609375 285.039062 C 77.609375 288.300781 80.175781 290.863281 83.4375 290.863281 C 86.699219 290.863281 89.261719 288.300781 89.261719 285.039062 L 89.261719 210.921875 C 89.261719 210.222656 89.496094 208.824219 90.660156 208.824219 C 92.292969 208.824219 92.527344 209.992188 92.527344 210.921875 L 92.527344 235.628906 C 92.527344 237.726562 94.390625 239.589844 96.488281 239.589844 C 98.121094 239.589844 99.519531 238.65625 100.21875 237.257812 C 100.21875 237.492188 100.449219 237.726562 100.449219 237.726562 L 108.609375 252.640625 C 108.609375 252.640625 109.074219 253.574219 109.074219 254.507812 L 109.074219 257.535156 L 104.644531 273.617188 L 109.074219 273.617188 L 109.074219 286.667969 C 109.074219 289 110.9375 290.628906 113.035156 290.628906 C 115.367188 290.628906 117 288.765625 117 286.667969 L 117 273.617188 L 119.328125 273.617188 L 119.328125 286.667969 C 119.328125 289 121.191406 290.628906 123.289062 290.628906 C 125.621094 290.628906 127.253906 288.765625 127.253906 286.667969 L 127.253906 273.617188 L 131.679688 273.617188 L 127.253906 257.535156 L 127.253906 254.738281 C 127.253906 253.808594 127.71875 252.875 127.71875 252.875 L 135.410156 239.125 C 135.410156 239.125 135.875 238.191406 136.109375 237.257812 C 136.574219 238.191406 137.273438 238.890625 138.441406 239.355469 C 142.636719 240.523438 143.800781 235.859375 143.800781 235.859375 L 150.328125 213.71875 C 150.328125 213.71875 150.792969 212.089844 151.957031 212.320312 C 153.355469 212.789062 152.65625 214.417969 152.65625 214.417969 L 141.238281 256.136719 L 151.957031 256.136719 L 151.957031 285.96875 C 151.957031 288.765625 154.289062 291.097656 157.085938 291.097656 C 159.882812 291.097656 162.210938 288.765625 162.210938 285.96875 L 162.210938 256.136719 L 165.007812 256.136719 L 165.007812 285.96875 C 165.007812 288.765625 167.339844 291.097656 170.136719 291.097656 C 172.933594 291.097656 175.265625 288.765625 175.265625 285.96875 L 175.265625 256.136719 L 185.984375 256.136719 L 174.566406 214.417969 C 174.566406 214.417969 174.097656 212.554688 175.265625 212.320312 C 176.664062 211.855469 176.894531 213.71875 176.894531 213.71875 L 183.421875 235.859375 C 183.421875 235.859375 184.585938 240.523438 188.78125 239.355469 C 192.976562 238.191406 191.578125 233.296875 191.578125 233.296875 Z M 266.625 239.355469 C 271.054688 239.355469 274.78125 235.628906 274.78125 231.199219 C 274.78125 226.769531 271.054688 223.042969 266.625 223.042969 C 262.195312 223.042969 258.46875 226.769531 258.46875 231.199219 C 258.46875 235.859375 261.964844 239.355469 266.625 239.355469 Z M 285.96875 262.664062 C 285.96875 262.429688 280.84375 249.84375 280.144531 247.980469 C 278.277344 242.621094 275.015625 242.621094 271.753906 242.621094 L 260.332031 242.621094 C 256.136719 242.851562 254.738281 244.949219 250.078125 257.070312 C 249.378906 258.699219 247.046875 264.527344 247.046875 264.761719 C 246.582031 265.691406 246.347656 267.789062 248.214844 268.722656 C 250.542969 269.65625 251.710938 267.558594 251.710938 267.558594 L 256.136719 253.339844 C 256.136719 253.339844 256.835938 252.410156 256.835938 253.339844 L 256.835938 286.667969 C 256.835938 289 258.699219 290.863281 261.03125 290.863281 C 263.363281 290.863281 265.226562 289 265.226562 286.667969 L 265.226562 273.382812 C 265.226562 273.382812 264.992188 271.519531 266.390625 271.519531 C 267.789062 271.519531 267.558594 273.382812 267.558594 273.382812 L 267.558594 286.667969 C 267.558594 289 269.421875 290.863281 271.753906 290.863281 C 274.082031 290.863281 275.949219 289 275.949219 286.667969 L 275.949219 253.339844 C 275.949219 252.410156 276.414062 253.109375 276.414062 253.109375 L 279.910156 262.894531 C 279.910156 262.894531 281.308594 267.324219 281.773438 267.324219 C 283.40625 268.023438 285.269531 267.324219 285.738281 265.691406 C 286.667969 264.761719 286.4375 263.59375 285.96875 262.664062 Z M 76.445312 189.480469 C 82.273438 189.480469 86.933594 184.820312 86.933594 178.992188 C 86.933594 173.167969 82.273438 168.503906 76.445312 168.503906 C 70.617188 168.503906 66.191406 173.167969 66.191406 178.992188 C 66.191406 184.820312 70.851562 189.480469 76.445312 189.480469 Z M 76.445312 189.480469 " fill-opacity="1" fill-rule="nonzero"/><path fill="#ffffff" d="M 118.863281 239.355469 C 123.289062 239.355469 127.019531 235.628906 127.019531 231.199219 C 127.019531 226.769531 123.289062 223.042969 118.863281 223.042969 C 114.433594 223.042969 110.707031 226.769531 110.707031 231.199219 C 110.707031 235.859375 114.433594 239.355469 118.863281 239.355469 Z M 112.105469 42.417969 L 112.105469 61.761719 L 107.675781 61.761719 L 107.675781 31.230469 L 112.804688 31.230469 L 118.398438 48.710938 L 118.398438 31.230469 L 122.589844 31.230469 L 122.589844 61.761719 L 118.164062 61.761719 Z M 126.085938 53.835938 L 126.085938 38.921875 C 126.085938 34.027344 128.417969 30.765625 133.777344 30.765625 C 139.140625 30.765625 141.703125 34.261719 141.703125 38.921875 L 141.703125 53.835938 C 141.703125 58.5 139.371094 61.996094 133.777344 61.996094 C 128.417969 61.996094 126.085938 58.5 126.085938 53.835938 Z M 136.574219 54.535156 L 136.574219 37.988281 C 136.574219 36.125 135.875 34.726562 134.011719 34.726562 C 132.148438 34.726562 131.449219 36.125 131.449219 37.988281 L 131.449219 54.535156 C 131.449219 56.402344 132.148438 57.800781 134.011719 57.800781 C 135.644531 57.800781 136.574219 56.402344 136.574219 54.535156 Z M 107.910156 76.445312 L 115.601562 76.445312 C 120.726562 76.445312 122.589844 79.007812 122.589844 83.203125 L 122.589844 89.730469 C 122.589844 93.925781 120.726562 96.722656 115.601562 96.722656 L 113.035156 96.722656 L 113.035156 107.210938 L 107.910156 107.210938 Z M 113.035156 80.640625 L 113.035156 92.757812 L 114.902344 92.757812 C 116.765625 92.757812 117.464844 91.828125 117.464844 90.195312 L 117.464844 83.203125 C 117.464844 81.574219 116.765625 80.640625 114.902344 80.640625 Z M 125.621094 99.285156 L 125.621094 84.371094 C 125.621094 79.476562 127.953125 76.210938 133.3125 76.210938 C 138.671875 76.210938 141.238281 79.707031 141.238281 84.371094 L 141.238281 99.285156 C 141.238281 103.945312 138.90625 107.441406 133.3125 107.441406 C 127.953125 107.441406 125.621094 103.945312 125.621094 99.285156 Z M 136.109375 99.984375 L 136.109375 83.4375 C 136.109375 81.574219 135.410156 80.175781 133.546875 80.175781 C 131.679688 80.175781 130.980469 81.574219 130.980469 83.4375 L 130.980469 99.984375 C 130.980469 101.847656 131.679688 103.246094 133.546875 103.246094 C 135.175781 103.246094 136.109375 101.847656 136.109375 99.984375 Z M 160.347656 76.445312 L 154.519531 106.976562 L 148.929688 106.976562 L 143.101562 76.445312 L 148.230469 76.445312 L 151.726562 97.886719 L 155.453125 76.445312 Z M 162.910156 76.445312 L 175.265625 76.445312 L 175.265625 80.640625 L 168.039062 80.640625 L 168.039062 89.496094 L 173.167969 89.496094 L 173.167969 93.691406 L 168.039062 93.691406 L 168.039062 103.015625 L 175.265625 103.015625 L 175.265625 107.210938 L 162.910156 107.210938 Z M 183.421875 92.992188 L 183.421875 106.976562 L 178.292969 106.976562 L 178.292969 76.445312 L 185.753906 76.445312 C 190.878906 76.445312 192.742188 79.007812 192.742188 83.203125 L 192.742188 87.164062 C 192.742188 90.429688 191.578125 92.292969 188.546875 92.992188 L 193.441406 106.976562 L 188.082031 106.976562 Z M 183.421875 80.640625 L 183.421875 90.195312 L 185.054688 90.195312 C 186.917969 90.195312 187.617188 89.261719 187.617188 87.632812 L 187.617188 83.203125 C 187.617188 81.574219 186.917969 80.640625 185.054688 80.640625 Z M 195.074219 76.445312 L 208.824219 76.445312 L 208.824219 80.640625 L 204.628906 80.640625 L 204.628906 107.210938 L 199.503906 107.210938 L 199.503906 80.875 L 195.308594 80.875 Z M 221.644531 95.324219 L 221.644531 106.976562 L 216.515625 106.976562 L 216.515625 95.324219 L 210.691406 76.445312 L 216.050781 76.445312 L 219.082031 88.097656 L 222.109375 76.445312 L 227.003906 76.445312 Z M 221.644531 95.324219 " fill-opacity="1" fill-rule="nonzero"/></svg>