<svg xmlns="http://www.w3.org/2000/svg" xmlns:xlink="http://www.w3.org/1999/xlink" width="500" zoomAndPan="magnify" viewBox="0 0 375 374.999991" height="500" preserveAspectRatio="xMidYMid meet" version="1.0"><rect x="-37.5" width="450" fill="#ffffff" y="-37.499999" height="449.999989" fill-opacity="1"/><rect x="-37.5" width="450" fill="#ffffff" y="-37.499999" height="449.999989" fill-opacity="1"/><rect x="-37.5" width="450" fill="#ffffff" y="-37.499999" height="449.999989" fill-opacity="1"/><rect x="-37.5" width="450" fill="#00689d" y="-37.499999" height="449.999989" fill-opacity="1"/><path fill="#ffffff" d="M 28.898438 45.214844 L 28.898438 58.5 L 29.132812 58.5 L 37.988281 49.175781 L 37.988281 107.210938 L 50.808594 107.210938 L 50.808594 31.464844 L 40.554688 31.464844 Z M 95.324219 89.03125 L 95.324219 77.84375 C 95.324219 65.492188 90.429688 59.199219 81.339844 59.199219 C 75.980469 59.199219 72.714844 61.761719 70.851562 65.257812 L 70.851562 48.945312 C 70.851562 44.28125 72.25 41.019531 76.910156 41.019531 C 81.574219 41.019531 82.738281 43.582031 82.738281 48.476562 L 82.738281 53.605469 L 94.390625 53.605469 L 94.390625 49.644531 C 94.390625 38.457031 90.660156 30.765625 76.679688 30.765625 C 63.394531 30.765625 58.265625 39.386719 58.265625 51.273438 L 58.265625 88.097656 C 58.265625 99.75 63.394531 108.375 76.679688 108.375 C 89.960938 108.140625 95.324219 100.683594 95.324219 89.03125 M 82.738281 90.195312 C 82.738281 95.089844 80.875 97.886719 76.679688 97.886719 C 72.484375 97.886719 70.851562 95.089844 70.851562 90.195312 L 70.851562 76.445312 C 71.085938 72.25 72.949219 69.453125 76.910156 69.453125 C 81.339844 69.453125 82.972656 72.015625 82.972656 77.144531 Z M 82.738281 90.195312 " fill-opacity="1" fill-rule="nonzero"/><path fill="#ffffff" d="M 119.792969 31.464844 L 127.484375 31.464844 C 132.613281 31.464844 134.476562 34.027344 134.476562 38.222656 L 134.476562 44.75 C 134.476562 48.945312 132.613281 51.738281 127.484375 51.738281 L 124.921875 51.738281 L 124.921875 62.226562 L 119.792969 62.226562 Z M 124.921875 35.660156 L 124.921875 47.777344 L 126.785156 47.777344 C 128.652344 47.777344 129.351562 46.847656 129.351562 45.214844 L 129.351562 38.222656 C 129.351562 36.589844 128.652344 35.660156 126.785156 35.660156 Z M 137.042969 31.464844 L 149.394531 31.464844 L 149.394531 35.660156 L 142.167969 35.660156 L 142.167969 44.515625 L 147.296875 44.515625 L 147.296875 48.710938 L 142.167969 48.710938 L 142.167969 58.03125 L 149.394531 58.03125 L 149.394531 62.226562 L 137.042969 62.226562 Z M 151.492188 62.226562 L 157.316406 31.695312 L 163.144531 31.695312 L 168.972656 62.226562 L 163.609375 62.226562 L 162.679688 56.632812 L 157.316406 56.632812 L 156.386719 62.226562 Z M 158.015625 52.4375 L 162.210938 52.4375 L 160.113281 40.085938 Z M 170.835938 54.304688 L 170.835938 39.386719 C 170.835938 34.492188 173.167969 31.230469 178.527344 31.230469 C 184.121094 31.230469 185.753906 34.492188 185.753906 38.921875 L 185.753906 42.652344 L 181.089844 42.652344 L 181.089844 38.6875 C 181.089844 36.824219 180.390625 35.660156 178.527344 35.660156 C 176.664062 35.660156 175.964844 37.058594 175.964844 38.921875 L 175.964844 55.46875 C 175.964844 57.332031 176.664062 58.730469 178.527344 58.730469 C 180.390625 58.730469 181.089844 57.566406 181.089844 55.703125 L 181.089844 50.109375 L 185.753906 50.109375 L 185.753906 55.46875 C 185.753906 59.898438 183.886719 63.160156 178.527344 63.160156 C 173.167969 62.460938 170.835938 58.964844 170.835938 54.304688 Z M 189.015625 31.464844 L 201.367188 31.464844 L 201.367188 35.660156 L 194.140625 35.660156 L 194.140625 44.515625 L 199.269531 44.515625 L 199.269531 48.710938 L 194.140625 48.710938 L 194.140625 58.03125 L 201.367188 58.03125 L 201.367188 62.226562 L 189.015625 62.226562 Z M 209.757812 57.566406 L 207.195312 64.558594 L 204.398438 64.558594 L 205.097656 57.332031 Z M 232.132812 31.464844 L 232.132812 55.234375 C 232.132812 59.664062 230.265625 62.460938 225.140625 62.460938 C 219.78125 62.460938 218.382812 59.429688 218.382812 55.703125 L 218.382812 49.644531 L 223.273438 49.644531 L 223.273438 55.933594 C 223.273438 57.566406 223.742188 58.265625 225.140625 58.265625 C 226.539062 58.265625 227.003906 57.332031 227.003906 55.703125 L 227.003906 31.464844 Z M 250.3125 31.464844 L 250.3125 54.535156 C 250.3125 59.199219 248.214844 62.460938 243.085938 62.460938 C 237.726562 62.460938 235.394531 59.429688 235.394531 54.535156 L 235.394531 31.464844 L 240.523438 31.464844 L 240.523438 55.234375 C 240.523438 57.101562 241.222656 58.265625 243.085938 58.265625 C 244.949219 58.265625 245.648438 57.101562 245.648438 55.234375 L 245.648438 31.464844 Z M 253.574219 55.46875 L 253.574219 51.507812 L 258.46875 51.507812 L 258.46875 55.703125 C 258.46875 57.332031 259.167969 58.5 261.03125 58.5 C 262.664062 58.5 263.363281 57.332031 263.363281 55.703125 L 263.363281 54.535156 C 263.363281 52.671875 262.664062 51.738281 261.03125 50.109375 L 258 47.078125 C 254.972656 44.28125 253.808594 42.417969 253.808594 38.921875 L 253.808594 37.988281 C 253.808594 34.261719 256.136719 31.230469 261.03125 31.230469 C 266.160156 31.230469 268.257812 33.792969 268.257812 38.222656 L 268.257812 40.785156 L 263.59375 40.785156 L 263.59375 38.222656 C 263.59375 36.359375 262.894531 35.660156 261.265625 35.660156 C 259.867188 35.660156 258.933594 36.359375 258.933594 38.222656 L 258.933594 38.921875 C 258.933594 40.554688 259.867188 41.71875 261.265625 43.117188 L 264.527344 46.378906 C 267.324219 49.175781 268.722656 51.039062 268.722656 54.304688 L 268.722656 55.703125 C 268.722656 59.898438 266.390625 62.925781 261.265625 62.925781 C 255.4375 62.460938 253.574219 59.664062 253.574219 55.46875 Z M 270.820312 31.464844 L 284.570312 31.464844 L 284.570312 35.660156 L 280.375 35.660156 L 280.375 61.996094 L 275.25 61.996094 L 275.25 35.660156 L 270.820312 35.660156 Z M 287.367188 31.464844 L 292.496094 31.464844 L 292.496094 61.996094 L 287.367188 61.996094 Z M 295.992188 54.304688 L 295.992188 39.386719 C 295.992188 34.492188 298.320312 31.230469 303.683594 31.230469 C 309.277344 31.230469 310.90625 34.492188 310.90625 38.921875 L 310.90625 42.652344 L 306.246094 42.652344 L 306.246094 38.6875 C 306.246094 36.824219 305.546875 35.660156 303.683594 35.660156 C 301.816406 35.660156 301.117188 37.058594 301.117188 38.921875 L 301.117188 55.46875 C 301.117188 57.332031 301.816406 58.730469 303.683594 58.730469 C 305.546875 58.730469 306.246094 57.566406 306.246094 55.703125 L 306.246094 50.109375 L 310.90625 50.109375 L 310.90625 55.46875 C 310.90625 59.898438 309.042969 63.160156 303.683594 63.160156 C 298.320312 62.460938 295.992188 58.964844 295.992188 54.304688 Z M 314.171875 31.464844 L 326.523438 31.464844 L 326.523438 35.660156 L 319.296875 35.660156 L 319.296875 44.515625 L 324.425781 44.515625 L 324.425781 48.710938 L 319.296875 48.710938 L 319.296875 58.03125 L 326.523438 58.03125 L 326.523438 62.226562 L 314.171875 62.226562 Z M 314.171875 31.464844 " fill-opacity="1" fill-rule="nonzero"/><path fill="#ffffff" d="M 118.863281 108.140625 L 124.6875 77.609375 L 130.515625 77.609375 L 136.34375 108.140625 L 130.980469 108.140625 L 130.050781 102.546875 L 124.6875 102.546875 L 123.757812 108.140625 Z M 125.386719 98.351562 L 129.582031 98.351562 L 127.484375 86 Z M 143.335938 88.796875 L 143.335938 108.140625 L 138.90625 108.140625 L 138.90625 77.609375 L 144.035156 77.609375 L 149.628906 95.089844 L 149.628906 77.609375 L 153.820312 77.609375 L 153.820312 108.140625 L 149.394531 108.140625 Z M 172.699219 85.765625 L 172.699219 99.984375 C 172.699219 104.644531 170.835938 108.140625 165.242188 108.140625 L 157.316406 108.140625 L 157.316406 77.609375 L 165.242188 77.609375 C 170.835938 77.378906 172.699219 80.875 172.699219 85.765625 Z M 164.777344 103.945312 C 166.875 103.945312 167.804688 102.78125 167.804688 100.917969 L 167.804688 84.835938 C 167.804688 82.972656 167.105469 81.804688 164.777344 81.804688 L 162.679688 81.804688 L 162.679688 103.945312 Z M 181.089844 101.617188 L 181.089844 97.421875 L 185.984375 97.421875 L 185.984375 101.617188 C 185.984375 103.246094 186.683594 104.414062 188.546875 104.414062 C 190.179688 104.414062 190.878906 103.246094 190.878906 101.617188 L 190.878906 100.449219 C 190.878906 98.585938 190.179688 97.652344 188.546875 96.023438 L 185.519531 92.992188 C 182.488281 90.195312 181.324219 88.332031 181.324219 84.835938 L 181.324219 83.902344 C 181.324219 80.175781 183.65625 77.144531 188.546875 77.144531 C 193.675781 77.144531 195.773438 79.707031 195.773438 84.136719 L 195.773438 86.699219 L 191.113281 86.699219 L 191.113281 84.136719 C 191.113281 82.273438 190.414062 81.574219 188.78125 81.574219 C 187.382812 81.574219 186.453125 82.273438 186.453125 84.136719 L 186.453125 84.835938 C 186.453125 86.464844 187.382812 87.632812 188.78125 89.03125 L 192.042969 92.292969 C 194.839844 95.089844 196.238281 96.953125 196.238281 100.21875 L 196.238281 101.617188 C 196.238281 105.8125 193.910156 108.839844 188.78125 108.839844 C 183.1875 108.375 181.089844 105.578125 181.089844 101.617188 Z M 197.871094 77.378906 L 211.621094 77.378906 L 211.621094 81.574219 L 207.425781 81.574219 L 207.425781 107.910156 L 202.300781 107.910156 L 202.300781 81.574219 L 198.105469 81.574219 L 198.105469 77.378906 Z M 219.546875 94.15625 L 219.546875 108.140625 L 214.417969 108.140625 L 214.417969 77.609375 L 221.875 77.609375 C 227.003906 77.609375 228.867188 80.175781 228.867188 84.371094 L 228.867188 88.332031 C 228.867188 91.59375 227.703125 93.457031 224.671875 94.15625 L 229.566406 108.140625 L 224.207031 108.140625 Z M 219.546875 81.574219 L 219.546875 91.128906 L 221.179688 91.128906 C 223.042969 91.128906 223.742188 90.195312 223.742188 88.5625 L 223.742188 84.136719 C 223.742188 82.503906 223.042969 81.574219 221.179688 81.574219 Z M 232.132812 100.21875 L 232.132812 85.300781 C 232.132812 80.40625 234.460938 77.144531 239.824219 77.144531 C 245.183594 77.144531 247.746094 80.640625 247.746094 85.300781 L 247.746094 100.21875 C 247.746094 104.878906 245.417969 108.375 239.824219 108.375 C 234.460938 108.375 232.132812 104.878906 232.132812 100.21875 Z M 242.621094 100.917969 L 242.621094 84.371094 C 242.621094 82.503906 241.921875 81.105469 240.054688 81.105469 C 238.191406 81.105469 237.492188 82.503906 237.492188 84.371094 L 237.492188 100.917969 C 237.492188 102.78125 238.191406 104.179688 240.054688 104.179688 C 241.6875 104.179688 242.621094 102.78125 242.621094 100.917969 Z M 255.4375 88.796875 L 255.4375 108.140625 L 251.011719 108.140625 L 251.011719 77.609375 L 256.136719 77.609375 L 261.730469 95.089844 L 261.730469 77.609375 L 265.925781 77.609375 L 265.925781 108.140625 L 261.496094 108.140625 Z M 277.347656 91.828125 L 284.570312 91.828125 L 284.570312 108.140625 L 280.84375 108.140625 L 280.84375 104.878906 C 280.144531 107.210938 278.746094 108.609375 275.949219 108.609375 C 271.519531 108.609375 269.421875 105.113281 269.421875 100.449219 L 269.421875 85.535156 C 269.421875 80.640625 271.753906 77.378906 277.113281 77.378906 C 282.707031 77.378906 284.570312 80.640625 284.570312 85.066406 L 284.570312 87.863281 L 279.910156 87.863281 L 279.910156 84.835938 C 279.910156 82.972656 279.210938 81.804688 277.347656 81.804688 C 275.480469 81.804688 274.78125 83.203125 274.78125 85.070312 L 274.78125 101.617188 C 274.78125 103.480469 275.480469 104.878906 277.347656 104.878906 C 278.976562 104.878906 279.910156 103.945312 279.910156 101.847656 L 279.910156 95.789062 L 277.578125 95.789062 L 277.578125 91.828125 Z M 277.347656 91.828125 " fill-opacity="1" fill-rule="nonzero"/><path fill="#ffffff" d="M 119.792969 121.425781 L 124.921875 121.425781 L 124.921875 151.957031 L 119.792969 151.957031 Z M 132.847656 132.847656 L 132.847656 152.191406 L 128.652344 152.191406 L 128.652344 121.425781 L 133.777344 121.425781 L 139.371094 138.90625 L 139.371094 121.425781 L 143.566406 121.425781 L 143.566406 151.957031 L 139.140625 151.957031 Z M 146.597656 145.433594 L 146.597656 141.238281 L 151.492188 141.238281 L 151.492188 145.433594 C 151.492188 147.0625 152.191406 148.230469 154.054688 148.230469 C 155.6875 148.230469 156.386719 147.0625 156.386719 145.433594 L 156.386719 144.265625 C 156.386719 142.402344 155.6875 141.46875 154.054688 139.839844 L 151.027344 136.808594 C 147.996094 134.011719 146.832031 132.148438 146.832031 128.652344 L 146.832031 127.71875 C 146.832031 123.988281 149.160156 120.960938 154.054688 120.960938 C 159.183594 120.960938 161.28125 123.523438 161.28125 127.953125 L 161.28125 130.515625 L 156.617188 130.515625 L 156.617188 127.953125 C 156.617188 126.085938 155.917969 125.386719 154.289062 125.386719 C 152.890625 125.386719 151.957031 126.085938 151.957031 127.953125 L 151.957031 128.652344 C 151.957031 130.28125 152.890625 131.449219 154.289062 132.847656 L 157.550781 136.109375 C 160.347656 138.90625 161.746094 140.769531 161.746094 144.035156 L 161.746094 145.433594 C 161.746094 149.628906 159.414062 152.65625 154.289062 152.65625 C 148.695312 152.425781 146.597656 149.394531 146.597656 145.433594 Z M 163.378906 121.425781 L 177.128906 121.425781 L 177.128906 125.621094 L 172.933594 125.621094 L 172.933594 151.957031 L 167.804688 151.957031 L 167.804688 125.621094 L 163.609375 125.621094 Z M 179.925781 121.425781 L 185.054688 121.425781 L 185.054688 151.957031 L 179.925781 151.957031 Z M 187.847656 121.425781 L 201.601562 121.425781 L 201.601562 125.621094 L 197.40625 125.621094 L 197.40625 151.957031 L 192.277344 151.957031 L 192.277344 125.621094 L 188.082031 125.621094 L 188.082031 121.425781 Z M 219.3125 121.425781 L 219.3125 144.5 C 219.3125 149.160156 217.214844 152.425781 212.089844 152.425781 C 206.726562 152.425781 204.398438 149.394531 204.398438 144.5 L 204.398438 121.425781 L 209.523438 121.425781 L 209.523438 145.199219 C 209.523438 147.0625 210.222656 148.230469 212.089844 148.230469 C 213.953125 148.230469 214.652344 147.0625 214.652344 145.199219 L 214.652344 121.425781 Z M 222.109375 121.425781 L 235.859375 121.425781 L 235.859375 125.621094 L 231.664062 125.621094 L 231.664062 151.957031 L 226.539062 151.957031 L 226.539062 125.621094 L 222.34375 125.621094 L 222.34375 121.425781 Z M 238.65625 121.425781 L 243.785156 121.425781 L 243.785156 151.957031 L 238.65625 151.957031 Z M 247.28125 144.035156 L 247.28125 129.117188 C 247.28125 124.222656 249.613281 120.960938 254.972656 120.960938 C 260.332031 120.960938 262.894531 124.457031 262.894531 129.117188 L 262.894531 144.035156 C 262.894531 148.695312 260.566406 152.191406 254.972656 152.191406 C 249.613281 152.425781 247.28125 148.929688 247.28125 144.035156 Z M 257.769531 144.964844 L 257.769531 128.417969 C 257.769531 126.554688 257.070312 125.15625 255.207031 125.15625 C 253.339844 125.15625 252.640625 126.554688 252.640625 128.417969 L 252.640625 144.964844 C 252.640625 146.832031 253.339844 148.230469 255.207031 148.230469 C 256.835938 147.996094 257.769531 146.832031 257.769531 144.964844 Z M 270.585938 132.847656 L 270.585938 152.191406 L 266.160156 152.191406 L 266.160156 121.425781 L 271.285156 121.425781 L 276.878906 138.90625 L 276.878906 121.425781 L 281.074219 121.425781 L 281.074219 151.957031 L 276.648438 151.957031 Z M 284.339844 145.433594 L 284.339844 141.238281 L 289.234375 141.238281 L 289.234375 145.433594 C 289.234375 147.0625 289.933594 148.230469 291.796875 148.230469 C 293.425781 148.230469 294.125 147.0625 294.125 145.433594 L 294.125 144.265625 C 294.125 142.402344 293.425781 141.46875 291.796875 139.839844 L 288.765625 136.808594 C 285.738281 134.011719 284.570312 132.148438 284.570312 128.652344 L 284.570312 127.71875 C 284.570312 123.988281 286.902344 120.960938 291.796875 120.960938 C 296.921875 120.960938 299.019531 123.523438 299.019531 127.953125 L 299.019531 130.515625 L 294.359375 130.515625 L 294.359375 127.953125 C 294.359375 126.085938 293.660156 125.386719 292.027344 125.386719 C 290.628906 125.386719 289.699219 126.085938 289.699219 127.953125 L 289.699219 128.652344 C 289.699219 130.28125 290.628906 131.449219 292.027344 132.847656 L 295.292969 136.109375 C 298.089844 138.90625 299.488281 140.769531 299.488281 144.035156 L 299.488281 145.433594 C 299.488281 149.628906 297.15625 152.65625 292.027344 152.65625 C 286.4375 152.425781 284.339844 149.394531 284.339844 145.433594 Z M 284.339844 145.433594 " fill-opacity="1" fill-rule="nonzero"/><path fill="#ffffff" d="M 242.386719 184.585938 C 242.386719 184.585938 239.125 188.78125 240.054688 192.976562 C 240.988281 197.171875 245.648438 199.503906 245.648438 199.503906 C 245.648438 199.503906 248.914062 195.308594 247.980469 191.113281 C 247.046875 186.917969 242.386719 184.585938 242.386719 184.585938 M 237.257812 208.359375 C 237.257812 208.359375 240.523438 204.164062 239.589844 199.96875 C 238.65625 195.773438 233.996094 193.441406 233.996094 193.441406 C 233.996094 193.441406 230.734375 197.636719 231.664062 201.601562 C 232.597656 206.027344 237.257812 208.359375 237.257812 208.359375 M 250.3125 203.929688 C 250.3125 203.929688 253.574219 207.195312 257.535156 206.960938 C 261.265625 206.726562 264.0625 202.765625 264.0625 202.765625 C 264.0625 202.765625 260.796875 199.503906 256.835938 199.734375 C 253.109375 199.96875 250.3125 203.929688 250.3125 203.929688 M 255.671875 185.984375 C 252.640625 189.015625 253.109375 194.609375 253.109375 194.609375 C 253.109375 194.609375 258.46875 195.074219 261.730469 192.042969 C 264.761719 189.015625 264.292969 183.421875 264.292969 183.421875 C 264.292969 183.421875 258.699219 182.957031 255.671875 185.984375 M 248.914062 216.515625 C 252.640625 216.984375 256.136719 213.71875 256.136719 213.71875 C 256.136719 213.71875 253.574219 209.757812 249.84375 209.292969 C 246.117188 208.824219 242.621094 212.089844 242.621094 212.089844 C 242.621094 212.089844 245.183594 216.050781 248.914062 216.515625 M 252.175781 282.007812 L 223.972656 282.007812 C 221.875 282.007812 220.011719 283.871094 220.011719 285.96875 C 220.011719 288.066406 221.878906 289.929688 223.972656 289.929688 L 252.175781 289.929688 C 254.273438 289.929688 256.136719 288.066406 256.136719 285.96875 C 256.371094 283.871094 254.507812 282.007812 252.175781 282.007812 M 252.175781 326.289062 L 223.972656 326.289062 C 221.875 326.289062 220.011719 328.152344 220.011719 330.25 C 220.011719 332.347656 221.878906 334.214844 223.972656 334.214844 L 252.175781 334.214844 C 254.273438 334.214844 256.136719 332.347656 256.136719 330.25 C 256.371094 327.921875 254.507812 326.289062 252.175781 326.289062 M 125.15625 272.453125 C 124.457031 272.21875 123.757812 271.984375 123.289062 271.984375 C 123.289062 271.984375 123.988281 272.21875 125.15625 272.453125 " fill-opacity="1" fill-rule="nonzero"/><path fill="#ffffff" d="M 251.242188 292.960938 L 225.140625 292.960938 C 223.972656 292.960938 222.808594 293.894531 222.808594 295.292969 L 222.808594 303.214844 L 205.796875 305.082031 L 180.859375 304.613281 L 180.859375 289.234375 C 184.121094 288.765625 187.382812 288.066406 190.878906 287.136719 C 214.886719 280.375 220.246094 260.566406 219.546875 246.816406 C 219.082031 232.832031 223.507812 227.46875 230.035156 224.90625 C 231.898438 224.207031 233.761719 223.742188 235.394531 223.507812 C 235.394531 227.003906 236.09375 230.964844 237.726562 235.628906 C 238.191406 235.628906 238.890625 235.628906 239.355469 235.394531 C 237.726562 230.5 237.027344 226.539062 237.027344 223.042969 C 240.289062 222.574219 242.621094 222.808594 242.621094 222.808594 C 242.621094 222.808594 240.289062 221.644531 237.257812 218.847656 C 238.425781 212.320312 242.386719 208.125 246.347656 203.929688 C 248.679688 201.601562 251.011719 199.269531 252.640625 196.472656 L 251.242188 195.539062 C 249.613281 198.335938 247.28125 200.433594 245.183594 202.765625 C 241.222656 206.726562 237.257812 210.921875 235.859375 217.683594 C 234.460938 216.515625 233.0625 215.117188 231.664062 213.488281 C 225.839844 206.726562 218.148438 211.621094 207.195312 221.875 C 196.238281 231.898438 182.722656 232.363281 169.203125 218.613281 C 151.492188 200.433594 136.109375 200.667969 125.621094 201.601562 C 132.847656 204.628906 135.410156 211.390625 139.140625 228.636719 C 142.867188 246.582031 152.65625 254.738281 165.941406 255.902344 C 158.484375 258.46875 158.25 262.664062 148.460938 269.421875 C 140.769531 274.78125 130.050781 273.152344 125.621094 271.984375 C 133.777344 274.550781 143.101562 282.941406 151.726562 285.96875 C 156.617188 287.601562 161.980469 288.765625 167.339844 289.234375 L 167.339844 303.914062 L 122.589844 302.984375 L 122.589844 313.238281 L 206.261719 311.375 L 223.273438 313.238281 L 223.273438 321.164062 C 223.273438 322.328125 224.207031 323.492188 225.605469 323.492188 L 251.710938 323.492188 C 252.875 323.492188 254.039062 322.5625 254.039062 321.164062 L 254.039062 295.058594 C 253.574219 293.894531 252.410156 292.960938 251.242188 292.960938 Z M 171.070312 289.699219 C 172.933594 289.699219 174.796875 289.699219 176.664062 289.464844 L 176.664062 304.148438 L 171.070312 303.914062 Z M 119.5625 311.605469 C 119.5625 313.703125 118.164062 315.570312 116.300781 315.570312 L 114.203125 315.570312 C 112.335938 315.570312 110.9375 313.9375 110.9375 311.605469 L 110.9375 304.613281 C 110.9375 302.515625 112.335938 300.652344 114.203125 300.652344 L 116.300781 300.652344 C 118.164062 300.652344 119.5625 302.285156 119.5625 304.613281 Z M 119.5625 311.605469 " fill-opacity="1" fill-rule="nonzero"/></svg>