<svg xmlns="http://www.w3.org/2000/svg" xmlns:xlink="http://www.w3.org/1999/xlink" width="500" zoomAndPan="magnify" viewBox="0 0 375 374.999991" height="500" preserveAspectRatio="xMidYMid meet" version="1.0"><rect x="-37.5" width="450" fill="#ffffff" y="-37.499999" height="449.999989" fill-opacity="1"/><rect x="-37.5" width="450" fill="#ffffff" y="-37.499999" height="449.999989" fill-opacity="1"/><rect x="-37.5" width="450" fill="#dda63a" y="-37.499999" height="449.999989" fill-opacity="1"/><path fill="#ffffff" d="M 70.152344 96.722656 L 49.410156 96.722656 L 49.410156 93.226562 C 49.410156 87.398438 51.507812 85.070312 54.769531 81.574219 L 62.925781 72.949219 C 69.453125 65.957031 70.851562 61.527344 70.851562 53.835938 L 70.851562 46.613281 C 70.851562 35.890625 65.722656 30.765625 54.304688 30.765625 C 43.117188 30.765625 37.523438 36.589844 37.523438 47.3125 L 37.523438 56.402344 L 49.175781 56.402344 L 49.175781 46.847656 C 49.175781 42.183594 51.507812 41.019531 54.070312 41.019531 C 56.632812 41.019531 58.730469 41.953125 58.730469 46.613281 L 58.730469 52.90625 C 58.730469 59.199219 58.265625 61.527344 54.070312 65.957031 L 46.847656 73.648438 C 39.855469 81.105469 37.289062 86 37.289062 93.457031 L 37.289062 107.441406 L 70.386719 107.441406 Z M 70.152344 96.722656 " fill-opacity="1" fill-rule="nonzero"/><path fill="#ffffff" d="M 154.988281 318.832031 L 154.988281 324.65625 C 154.988281 326.054688 156.152344 326.988281 157.316406 326.988281 L 219.082031 326.988281 C 220.480469 326.988281 221.410156 325.824219 221.410156 324.425781 L 221.410156 318.367188 C 256.136719 306.945312 282.242188 278.746094 288.066406 244.25 L 288.066406 243.785156 C 288.066406 242.386719 286.902344 241.222656 285.503906 241.222656 L 88.332031 241.222656 C 86.933594 241.222656 85.765625 242.386719 85.765625 243.785156 L 86 244.949219 C 92.757812 279.445312 119.5625 307.878906 154.988281 318.832031 M 221.875 156.851562 C 221.179688 158.015625 202.066406 185.519531 222.34375 207.660156 C 231.664062 217.914062 230.734375 226.769531 228.167969 232.832031 L 241.222656 232.832031 C 243.785156 223.972656 242.851562 212.554688 232.132812 201.132812 C 217.214844 184.820312 232.363281 162.679688 232.597656 162.445312 C 234.460938 159.882812 233.53125 156.617188 230.5 155.21875 C 227.46875 153.589844 223.742188 154.289062 221.875 156.851562 M 189.015625 232.832031 L 202.066406 232.832031 C 204.628906 223.972656 203.699219 212.554688 192.976562 201.132812 C 178.0625 184.820312 193.210938 162.679688 193.441406 162.445312 C 195.308594 159.882812 194.375 156.617188 191.34375 155.21875 C 188.316406 153.824219 184.585938 154.519531 182.722656 157.085938 C 181.789062 158.25 162.910156 185.753906 183.1875 207.894531 C 192.511719 217.914062 191.578125 226.769531 189.015625 232.832031 M 143.335938 156.851562 C 142.402344 158.015625 123.523438 185.519531 143.800781 207.660156 C 153.125 217.914062 152.191406 226.769531 149.628906 232.832031 L 162.679688 232.832031 C 165.242188 223.972656 164.308594 212.554688 153.589844 201.132812 C 138.671875 184.820312 153.820312 162.679688 154.054688 162.445312 C 155.917969 159.882812 154.988281 156.617188 151.957031 155.21875 C 149.160156 153.589844 145.199219 154.289062 143.335938 156.851562 " fill-opacity="1" fill-rule="nonzero"/><path fill="#ffffff" d="M 112.335938 58.03125 L 120.261719 58.03125 L 120.261719 62.226562 L 106.976562 62.226562 L 106.976562 58.03125 L 115.132812 35.890625 L 107.910156 35.890625 L 107.910156 31.695312 L 120.726562 31.695312 L 120.726562 35.890625 Z M 123.523438 31.464844 L 135.875 31.464844 L 135.875 35.660156 L 128.652344 35.660156 L 128.652344 44.515625 L 133.777344 44.515625 L 133.777344 48.710938 L 128.652344 48.710938 L 128.652344 58.03125 L 135.875 58.03125 L 135.875 62.226562 L 123.523438 62.226562 Z M 144.265625 48.011719 L 144.265625 61.996094 L 139.140625 61.996094 L 139.140625 31.464844 L 146.597656 31.464844 C 151.726562 31.464844 153.589844 34.027344 153.589844 38.222656 L 153.589844 42.183594 C 153.589844 45.449219 152.425781 47.3125 149.394531 48.011719 L 154.289062 61.996094 L 148.929688 61.996094 Z M 144.265625 35.660156 L 144.265625 45.214844 L 145.898438 45.214844 C 147.761719 45.214844 148.460938 44.28125 148.460938 42.652344 L 148.460938 38.222656 C 148.460938 36.589844 147.761719 35.660156 145.898438 35.660156 Z M 156.851562 54.304688 L 156.851562 39.386719 C 156.851562 34.492188 159.183594 31.230469 164.542969 31.230469 C 169.902344 31.230469 172.46875 34.726562 172.46875 39.386719 L 172.46875 54.304688 C 172.46875 58.964844 170.136719 62.460938 164.542969 62.460938 C 159.183594 62.460938 156.851562 58.964844 156.851562 54.304688 Z M 167.339844 55.003906 L 167.339844 38.457031 C 167.339844 36.589844 166.640625 35.191406 164.777344 35.191406 C 162.910156 35.191406 162.210938 36.589844 162.210938 38.457031 L 162.210938 55.003906 C 162.210938 56.867188 162.910156 58.265625 164.777344 58.265625 C 166.640625 58.265625 167.339844 56.867188 167.339844 55.003906 Z M 167.339844 55.003906 " fill-opacity="1" fill-rule="nonzero"/><path fill="#ffffff" d="M 117.230469 93.457031 L 112.335938 93.457031 L 112.335938 106.976562 L 107.210938 106.976562 L 107.210938 76.445312 L 112.335938 76.445312 L 112.335938 89.496094 L 117.230469 89.496094 L 117.230469 76.445312 L 122.359375 76.445312 L 122.359375 106.976562 L 117.230469 106.976562 Z M 140.769531 76.445312 L 140.769531 99.519531 C 140.769531 104.179688 138.671875 107.441406 133.546875 107.441406 C 128.183594 107.441406 125.855469 104.414062 125.855469 99.519531 L 125.855469 76.445312 L 130.980469 76.445312 L 130.980469 100.21875 C 130.980469 102.082031 131.679688 103.246094 133.546875 103.246094 C 135.410156 103.246094 136.109375 102.082031 136.109375 100.21875 L 136.109375 76.445312 Z M 148.460938 87.863281 L 148.460938 107.210938 L 144.265625 107.210938 L 144.265625 76.679688 L 149.394531 76.679688 L 154.988281 94.15625 L 154.988281 76.679688 L 159.183594 76.679688 L 159.183594 107.210938 L 154.753906 107.210938 Z M 170.371094 90.660156 L 177.59375 90.660156 L 177.59375 106.976562 L 173.867188 106.976562 L 173.867188 103.714844 C 173.167969 106.042969 171.769531 107.441406 168.972656 107.441406 C 164.542969 107.441406 162.445312 103.945312 162.445312 99.285156 L 162.445312 84.371094 C 162.445312 79.476562 164.777344 76.210938 170.136719 76.210938 C 175.730469 76.210938 177.59375 79.476562 177.59375 83.902344 L 177.59375 86.699219 L 172.933594 86.699219 L 172.933594 83.671875 C 172.933594 81.804688 172.234375 80.640625 170.371094 80.640625 C 168.503906 80.640625 167.804688 82.039062 167.804688 83.902344 L 167.804688 100.449219 C 167.804688 102.316406 168.503906 103.714844 170.371094 103.714844 C 172 103.714844 172.933594 102.78125 172.933594 100.683594 L 172.933594 95.324219 L 170.601562 95.324219 L 170.601562 90.660156 Z M 181.089844 76.445312 L 193.441406 76.445312 L 193.441406 80.640625 L 186.21875 80.640625 L 186.21875 89.496094 L 191.34375 89.496094 L 191.34375 93.691406 L 186.21875 93.691406 L 186.21875 103.015625 L 193.441406 103.015625 L 193.441406 107.210938 L 181.089844 107.210938 Z M 201.601562 92.992188 L 201.601562 106.976562 L 196.472656 106.976562 L 196.472656 76.445312 L 203.929688 76.445312 C 209.058594 76.445312 210.921875 79.007812 210.921875 83.203125 L 210.921875 87.164062 C 210.921875 90.429688 209.757812 92.292969 206.726562 92.992188 L 211.621094 106.976562 L 206.261719 106.976562 Z M 201.601562 80.640625 L 201.601562 90.195312 L 203.230469 90.195312 C 205.097656 90.195312 205.796875 89.261719 205.796875 87.632812 L 205.796875 83.203125 C 205.796875 81.574219 205.097656 80.640625 203.230469 80.640625 Z M 201.601562 80.640625 " fill-opacity="1" fill-rule="nonzero"/></svg>