<svg xmlns="http://www.w3.org/2000/svg" xmlns:xlink="http://www.w3.org/1999/xlink" width="500" zoomAndPan="magnify" viewBox="0 0 375 374.999991" height="500" preserveAspectRatio="xMidYMid meet" version="1.0"><rect x="-37.5" width="450" fill="#ffffff" y="-37.499999" height="449.999989" fill-opacity="1"/><rect x="-37.5" width="450" fill="#ffffff" y="-37.499999" height="449.999989" fill-opacity="1"/><rect x="-37.5" width="450" fill="#c5192d" y="-37.499999" height="449.999989" fill-opacity="1"/><path fill="#ffffff" d="M 58.730469 107.210938 L 70.851562 107.210938 L 70.851562 94.855469 L 75.980469 94.855469 L 75.980469 84.835938 L 70.851562 84.835938 L 70.851562 31.464844 L 58.265625 31.464844 L 36.359375 86.933594 L 36.359375 94.625 L 58.730469 94.625 Z M 47.546875 84.835938 L 58.964844 53.605469 L 58.964844 84.835938 Z M 47.546875 84.835938 " fill-opacity="1" fill-rule="nonzero"/><path fill="#ffffff" d="M 164.542969 201.132812 L 97.1875 162.210938 L 97.1875 288.066406 L 164.542969 308.34375 Z M 171.769531 201.367188 L 171.769531 308.34375 L 239.589844 287.835938 L 239.589844 162.210938 Z M 292.261719 159.183594 C 292.261719 154.753906 288.765625 151.257812 284.339844 151.257812 C 279.910156 151.257812 276.414062 154.753906 276.414062 159.183594 L 276.414062 167.804688 L 292.261719 167.804688 Z M 278.511719 285.738281 L 276.414062 285.738281 L 284.339844 313.472656 L 292.261719 285.738281 L 290.398438 285.738281 L 292.261719 285.738281 L 292.261719 173.867188 L 276.414062 173.867188 L 276.414062 285.738281 Z M 278.511719 285.738281 " fill-opacity="1" fill-rule="nonzero"/><path fill="#ffffff" d="M 254.039062 167.804688 L 246.816406 161.980469 L 246.816406 291.328125 L 172 315.570312 L 164.542969 315.570312 L 89.960938 294.824219 L 89.960938 161.980469 L 82.738281 167.804688 L 82.738281 299.71875 L 164.078125 322.328125 L 172.46875 322.328125 L 247.28125 298.554688 L 254.039062 296.457031 Z M 254.039062 167.804688 " fill-opacity="1" fill-rule="nonzero"/><path fill="#ffffff" d="M 107.210938 76.445312 L 119.5625 76.445312 L 119.5625 80.640625 L 112.335938 80.640625 L 112.335938 89.496094 L 117.464844 89.496094 L 117.464844 93.691406 L 112.335938 93.691406 L 112.335938 103.015625 L 119.5625 103.015625 L 119.5625 107.210938 L 107.210938 107.210938 Z M 137.972656 84.601562 L 137.972656 98.820312 C 137.972656 103.480469 136.109375 106.976562 130.515625 106.976562 L 122.589844 106.976562 L 122.589844 76.445312 L 130.515625 76.445312 C 136.109375 76.445312 137.972656 79.941406 137.972656 84.601562 Z M 129.816406 102.78125 C 131.914062 102.78125 132.847656 101.617188 132.847656 99.75 L 132.847656 83.671875 C 132.847656 81.804688 132.148438 80.640625 129.816406 80.640625 L 127.71875 80.640625 L 127.71875 102.78125 Z M 156.386719 76.445312 L 156.386719 99.519531 C 156.386719 104.179688 154.289062 107.441406 149.160156 107.441406 C 143.800781 107.441406 141.46875 104.414062 141.46875 99.519531 L 141.46875 76.445312 L 146.597656 76.445312 L 146.597656 100.21875 C 146.597656 102.082031 147.296875 103.246094 149.160156 103.246094 C 151.027344 103.246094 151.726562 102.082031 151.726562 100.21875 L 151.726562 76.445312 Z M 159.648438 99.050781 L 159.648438 84.136719 C 159.648438 79.242188 161.980469 75.980469 167.339844 75.980469 C 172.933594 75.980469 174.566406 79.242188 174.566406 83.671875 L 174.566406 87.398438 L 169.902344 87.398438 L 169.902344 83.4375 C 169.902344 81.574219 169.203125 80.40625 167.339844 80.40625 C 165.476562 80.40625 164.777344 81.804688 164.777344 83.671875 L 164.777344 100.21875 C 164.777344 102.082031 165.476562 103.480469 167.339844 103.480469 C 169.203125 103.480469 169.902344 102.316406 169.902344 100.449219 L 169.902344 94.855469 L 174.566406 94.855469 L 174.566406 100.21875 C 174.566406 104.644531 172.699219 107.910156 167.339844 107.910156 C 161.980469 107.441406 159.648438 103.945312 159.648438 99.050781 Z M 176.429688 106.976562 L 182.257812 76.445312 L 188.082031 76.445312 L 193.910156 106.976562 L 188.546875 106.976562 L 187.617188 101.382812 L 182.257812 101.382812 L 181.324219 106.976562 Z M 182.722656 97.421875 L 186.917969 97.421875 L 184.820312 85.070312 Z M 193.210938 76.445312 L 206.960938 76.445312 L 206.960938 80.640625 L 202.765625 80.640625 L 202.765625 106.976562 L 197.636719 106.976562 L 197.636719 80.640625 L 193.441406 80.640625 L 193.441406 76.445312 Z M 209.757812 76.445312 L 214.886719 76.445312 L 214.886719 106.976562 L 209.757812 106.976562 Z M 218.382812 99.050781 L 218.382812 84.136719 C 218.382812 79.242188 220.710938 75.980469 226.070312 75.980469 C 231.433594 75.980469 233.996094 79.476562 233.996094 84.136719 L 233.996094 99.050781 C 233.996094 103.714844 231.664062 107.210938 226.070312 107.210938 C 220.710938 107.441406 218.382812 103.945312 218.382812 99.050781 Z M 228.867188 99.984375 L 228.867188 83.4375 C 228.867188 81.574219 228.167969 80.175781 226.304688 80.175781 C 224.441406 80.175781 223.742188 81.574219 223.742188 83.4375 L 223.742188 99.984375 C 223.742188 101.847656 224.441406 103.246094 226.304688 103.246094 C 227.9375 103.015625 228.867188 101.847656 228.867188 99.984375 Z M 241.6875 87.863281 L 241.6875 107.210938 L 237.257812 107.210938 L 237.257812 76.679688 L 242.386719 76.679688 L 247.980469 94.15625 L 247.980469 76.679688 L 252.175781 76.679688 L 252.175781 107.210938 L 247.746094 107.210938 Z M 241.6875 87.863281 " fill-opacity="1" fill-rule="nonzero"/><path fill="#ffffff" d="M 113.035156 64.09375 L 113.035156 61.996094 C 108.839844 61.296875 107.210938 58.265625 107.210938 54.070312 L 107.210938 39.15625 C 107.210938 34.261719 109.539062 30.996094 114.902344 30.996094 C 120.261719 30.996094 122.824219 34.492188 122.824219 39.15625 L 122.824219 54.070312 C 122.824219 57.332031 121.660156 60.128906 119.097656 61.296875 L 122.824219 61.996094 L 122.824219 65.722656 Z M 117.699219 55.234375 L 117.699219 38.457031 C 117.699219 36.589844 117 35.191406 115.132812 35.191406 C 113.269531 35.191406 112.570312 36.589844 112.570312 38.457031 L 112.570312 55.234375 C 112.570312 57.101562 113.269531 58.5 115.132812 58.5 C 116.765625 58.5 117.699219 57.101562 117.699219 55.234375 Z M 141.003906 31.464844 L 141.003906 54.535156 C 141.003906 59.199219 138.90625 62.460938 133.777344 62.460938 C 128.417969 62.460938 126.085938 59.429688 126.085938 54.535156 L 126.085938 31.464844 L 131.214844 31.464844 L 131.214844 55.234375 C 131.214844 57.101562 131.914062 58.265625 133.777344 58.265625 C 135.644531 58.265625 136.34375 57.101562 136.34375 55.234375 L 136.34375 31.464844 Z M 143.101562 61.996094 L 148.929688 31.464844 L 154.753906 31.464844 L 160.582031 61.996094 L 155.21875 61.996094 L 154.289062 56.402344 L 148.929688 56.402344 L 147.996094 61.996094 Z M 149.394531 52.4375 L 153.589844 52.4375 L 151.492188 40.085938 Z M 162.910156 31.464844 L 168.039062 31.464844 L 168.039062 57.800781 L 174.097656 57.800781 L 174.097656 61.996094 L 162.910156 61.996094 Z M 176.664062 31.464844 L 181.789062 31.464844 L 181.789062 61.996094 L 176.664062 61.996094 Z M 184.355469 31.464844 L 198.105469 31.464844 L 198.105469 35.660156 L 193.910156 35.660156 L 193.910156 61.996094 L 188.78125 61.996094 L 188.78125 35.660156 L 184.585938 35.660156 Z M 210.457031 50.34375 L 210.457031 61.996094 L 205.328125 61.996094 L 205.328125 50.34375 L 199.503906 31.464844 L 204.863281 31.464844 L 207.894531 43.117188 L 210.921875 31.464844 L 215.816406 31.464844 Z M 210.457031 50.34375 " fill-opacity="1" fill-rule="nonzero"/></svg>