<svg xmlns="http://www.w3.org/2000/svg" xmlns:xlink="http://www.w3.org/1999/xlink" width="500" zoomAndPan="magnify" viewBox="0 0 375 374.999991" height="500" preserveAspectRatio="xMidYMid meet" version="1.0"><rect x="-37.5" width="450" fill="#ffffff" y="-37.499999" height="449.999989" fill-opacity="1"/><rect x="-37.5" width="450" fill="#ffffff" y="-37.499999" height="449.999989" fill-opacity="1"/><rect x="-37.5" width="450" fill="#ff3a21" y="-37.499999" height="449.999989" fill-opacity="1"/><path fill="#ffffff" d="M 59.664062 55.46875 C 54.535156 55.46875 51.042969 57.332031 48.945312 60.597656 L 48.945312 41.71875 L 70.851562 41.71875 L 70.851562 31.230469 L 37.289062 31.230469 L 37.289062 73.882812 L 48.945312 73.882812 L 48.945312 72.25 C 48.945312 67.820312 51.042969 65.257812 54.535156 65.257812 C 58.5 65.257812 59.898438 68.054688 59.898438 72.015625 L 59.898438 90.195312 C 59.898438 94.15625 58.5 96.953125 54.535156 96.953125 C 50.109375 96.953125 48.710938 94.15625 48.710938 89.496094 L 48.710938 79.941406 L 37.058594 79.941406 L 37.058594 88.5625 C 37.058594 99.984375 41.71875 107.441406 54.535156 107.441406 C 67.355469 107.441406 72.714844 100.683594 72.714844 90.195312 L 72.714844 72.25 C 72.714844 60.128906 66.65625 55.46875 59.664062 55.46875 " fill-opacity="1" fill-rule="nonzero"/><path fill="#ffffff" d="M 273.152344 141.9375 L 226.539062 141.9375 C 226.304688 141.9375 225.839844 142.167969 225.839844 142.636719 L 225.839844 158.015625 C 225.839844 158.25 226.070312 158.714844 226.539062 158.714844 L 245.183594 158.714844 L 224.671875 179.226562 C 214.1875 171.070312 201.132812 166.175781 186.917969 166.175781 C 153.355469 166.175781 125.855469 193.675781 125.855469 227.238281 C 125.855469 258.234375 149.160156 283.871094 178.992188 287.835938 L 178.992188 305.78125 L 160.582031 305.78125 C 160.347656 305.78125 159.882812 306.011719 159.882812 306.480469 L 159.882812 323.027344 C 159.882812 323.261719 160.113281 323.726562 160.582031 323.726562 L 178.992188 323.726562 L 178.992188 341.207031 C 178.992188 341.4375 179.226562 341.90625 179.691406 341.90625 L 196.238281 341.90625 C 196.472656 341.90625 196.9375 341.671875 196.9375 341.207031 L 196.9375 323.726562 L 215.351562 323.726562 C 215.585938 323.726562 216.050781 323.492188 216.050781 323.027344 L 216.050781 306.480469 C 216.050781 306.246094 215.816406 305.78125 215.351562 305.78125 L 196.9375 305.78125 L 196.9375 287.601562 C 225.839844 282.941406 247.980469 257.769531 247.980469 227.46875 C 247.980469 214.417969 243.785156 202.300781 236.792969 192.277344 L 257.070312 172 L 257.070312 189.246094 C 257.070312 189.480469 257.300781 189.945312 257.769531 189.945312 L 273.152344 189.945312 C 273.382812 189.945312 273.851562 189.714844 273.851562 189.246094 L 273.851562 142.636719 C 273.851562 142.167969 273.382812 141.9375 273.152344 141.9375 M 186.917969 272.21875 C 162.210938 272.21875 141.9375 251.941406 141.9375 227.238281 C 141.9375 202.53125 161.980469 182.257812 186.917969 182.257812 C 211.621094 182.257812 231.898438 202.300781 231.898438 227.238281 C 231.898438 251.941406 211.621094 272.21875 186.917969 272.21875 " fill-opacity="1" fill-rule="nonzero"/><path fill="#ffffff" d="M 214.652344 208.824219 L 160.347656 208.824219 C 160.113281 208.824219 159.648438 209.058594 159.648438 209.292969 L 159.648438 222.574219 C 159.648438 222.808594 159.882812 223.042969 160.347656 223.042969 L 214.886719 223.042969 C 215.117188 223.042969 215.585938 222.808594 215.585938 222.574219 L 215.585938 209.292969 C 215.351562 209.058594 215.117188 208.824219 214.652344 208.824219 M 214.652344 232.363281 L 160.347656 232.363281 C 160.113281 232.363281 159.648438 232.597656 159.648438 232.832031 L 159.648438 246.117188 C 159.648438 246.347656 159.882812 246.582031 160.347656 246.582031 L 214.886719 246.582031 C 215.117188 246.582031 215.585938 246.347656 215.585938 246.117188 L 215.585938 232.832031 C 215.351562 232.597656 215.117188 232.363281 214.652344 232.363281 " fill-opacity="1" fill-rule="nonzero"/><path fill="#ffffff" d="M 106.976562 76.445312 L 119.328125 76.445312 L 119.328125 80.640625 L 112.105469 80.640625 L 112.105469 89.496094 L 117.230469 89.496094 L 117.230469 93.691406 L 112.105469 93.691406 L 112.105469 103.015625 L 119.328125 103.015625 L 119.328125 107.210938 L 106.976562 107.210938 Z M 127.484375 109.074219 L 127.484375 106.976562 C 123.289062 106.277344 121.660156 103.246094 121.660156 99.050781 L 121.660156 84.136719 C 121.660156 79.242188 123.988281 75.980469 129.351562 75.980469 C 134.710938 75.980469 137.273438 79.476562 137.273438 84.136719 L 137.273438 99.050781 C 137.273438 102.316406 136.109375 105.113281 133.546875 106.277344 L 137.273438 106.976562 L 137.273438 110.707031 Z M 132.148438 100.21875 L 132.148438 83.4375 C 132.148438 81.574219 131.449219 80.175781 129.582031 80.175781 C 127.71875 80.175781 127.019531 81.574219 127.019531 83.4375 L 127.019531 100.21875 C 127.019531 102.082031 127.71875 103.480469 129.582031 103.480469 C 131.449219 103.480469 132.148438 102.082031 132.148438 100.21875 Z M 155.6875 76.445312 L 155.6875 99.519531 C 155.6875 104.179688 153.589844 107.441406 148.460938 107.441406 C 143.101562 107.441406 140.769531 104.414062 140.769531 99.519531 L 140.769531 76.445312 L 145.898438 76.445312 L 145.898438 100.21875 C 145.898438 102.082031 146.597656 103.246094 148.460938 103.246094 C 150.328125 103.246094 151.027344 102.082031 151.027344 100.21875 L 151.027344 76.445312 Z M 158.25 106.976562 L 164.078125 76.445312 L 169.902344 76.445312 L 175.730469 106.976562 L 170.371094 106.976562 L 169.4375 101.382812 L 164.078125 101.382812 L 163.144531 106.976562 Z M 164.777344 97.421875 L 168.972656 97.421875 L 166.875 85.070312 Z M 178.292969 76.445312 L 183.421875 76.445312 L 183.421875 102.78125 L 189.480469 102.78125 L 189.480469 106.976562 L 178.292969 106.976562 Z M 192.277344 76.445312 L 197.40625 76.445312 L 197.40625 106.976562 L 192.277344 106.976562 Z M 200.203125 76.445312 L 213.953125 76.445312 L 213.953125 80.640625 L 209.757812 80.640625 L 209.757812 106.976562 L 204.628906 106.976562 L 204.628906 80.640625 L 200.433594 80.640625 L 200.433594 76.445312 Z M 226.769531 95.324219 L 226.769531 106.976562 L 221.644531 106.976562 L 221.644531 95.324219 L 215.816406 76.445312 L 221.179688 76.445312 L 224.207031 88.097656 L 227.238281 76.445312 L 232.132812 76.445312 Z M 226.769531 95.324219 " fill-opacity="1" fill-rule="nonzero"/><path fill="#ffffff" d="M 114.902344 45.679688 L 122.125 45.679688 L 122.125 61.996094 L 118.398438 61.996094 L 118.398438 58.730469 C 117.699219 61.0625 116.300781 62.460938 113.503906 62.460938 C 109.074219 62.460938 106.976562 58.964844 106.976562 54.304688 L 106.976562 39.386719 C 106.976562 34.492188 109.308594 31.230469 114.667969 31.230469 C 120.261719 31.230469 122.125 34.492188 122.125 38.921875 L 122.125 41.71875 L 117.464844 41.71875 L 117.464844 38.6875 C 117.464844 36.824219 116.765625 35.660156 114.902344 35.660156 C 113.035156 35.660156 112.335938 37.058594 112.335938 38.921875 L 112.335938 55.46875 C 112.335938 57.332031 113.035156 58.730469 114.902344 58.730469 C 116.53125 58.730469 117.464844 57.800781 117.464844 55.703125 L 117.464844 50.34375 L 115.132812 50.34375 L 115.132812 45.679688 Z M 125.621094 31.464844 L 137.972656 31.464844 L 137.972656 35.660156 L 130.75 35.660156 L 130.75 44.515625 L 135.875 44.515625 L 135.875 48.710938 L 130.75 48.710938 L 130.75 58.03125 L 137.972656 58.03125 L 137.972656 62.226562 L 125.621094 62.226562 Z M 145.433594 42.882812 L 145.433594 62.226562 L 141.003906 62.226562 L 141.003906 31.695312 L 146.132812 31.695312 L 151.726562 49.175781 L 151.726562 31.695312 L 155.917969 31.695312 L 155.917969 62.226562 L 151.492188 62.226562 Z M 174.796875 39.621094 L 174.796875 53.835938 C 174.796875 58.5 172.933594 61.996094 167.339844 61.996094 L 159.414062 61.996094 L 159.414062 31.464844 L 167.339844 31.464844 C 172.933594 31.464844 174.796875 34.960938 174.796875 39.621094 Z M 166.640625 57.800781 C 168.738281 57.800781 169.671875 56.632812 169.671875 54.769531 L 169.671875 38.6875 C 169.671875 36.824219 168.972656 35.660156 166.640625 35.660156 L 164.542969 35.660156 L 164.542969 57.800781 Z M 178.292969 31.464844 L 190.644531 31.464844 L 190.644531 35.660156 L 183.421875 35.660156 L 183.421875 44.515625 L 188.546875 44.515625 L 188.546875 48.710938 L 183.421875 48.710938 L 183.421875 58.03125 L 190.644531 58.03125 L 190.644531 62.226562 L 178.292969 62.226562 Z M 198.804688 48.011719 L 198.804688 61.996094 L 193.675781 61.996094 L 193.675781 31.464844 L 201.132812 31.464844 C 206.261719 31.464844 208.125 34.027344 208.125 38.222656 L 208.125 42.183594 C 208.125 45.449219 206.960938 47.3125 203.929688 48.011719 L 208.824219 61.996094 L 203.464844 61.996094 Z M 198.804688 35.660156 L 198.804688 45.214844 L 200.433594 45.214844 C 202.300781 45.214844 203 44.28125 203 42.652344 L 203 38.222656 C 203 36.589844 202.300781 35.660156 200.433594 35.660156 Z M 198.804688 35.660156 " fill-opacity="1" fill-rule="nonzero"/></svg>