<svg xmlns="http://www.w3.org/2000/svg" xmlns:xlink="http://www.w3.org/1999/xlink" width="500" zoomAndPan="magnify" viewBox="0 0 375 374.999991" height="500" preserveAspectRatio="xMidYMid meet" version="1.0"><rect x="-37.5" width="450" fill="#ffffff" y="-37.499999" height="449.999989" fill-opacity="1"/><rect x="-37.5" width="450" fill="#ffffff" y="-37.499999" height="449.999989" fill-opacity="1"/><rect x="-37.5" width="450" fill="#ffffff" y="-37.499999" height="449.999989" fill-opacity="1"/><rect x="-37.5" width="450" fill="#26bde2" y="-37.499999" height="449.999989" fill-opacity="1"/><path fill="#ffffff" d="M 56.867188 108.140625 C 70.386719 108.140625 75.511719 100.683594 75.511719 89.03125 L 75.511719 77.84375 C 75.511719 65.492188 70.617188 59.199219 61.527344 59.199219 C 56.167969 59.199219 52.90625 61.761719 51.042969 65.257812 L 51.042969 48.945312 C 51.042969 44.28125 52.4375 41.019531 57.101562 41.019531 C 61.761719 41.019531 62.925781 43.816406 62.925781 48.476562 L 62.925781 53.605469 L 74.582031 53.605469 L 74.582031 49.644531 C 74.582031 38.457031 70.851562 30.765625 56.867188 30.765625 C 43.582031 30.765625 38.457031 39.386719 38.457031 51.273438 L 38.457031 88.097656 C 38.222656 99.519531 43.351562 108.140625 56.867188 108.140625 M 51.042969 76.210938 C 51.273438 72.015625 53.136719 69.21875 57.101562 69.21875 C 61.527344 69.21875 63.160156 71.785156 63.160156 76.910156 L 63.160156 89.960938 C 63.160156 94.855469 61.296875 97.652344 57.101562 97.652344 C 52.90625 97.652344 51.273438 94.855469 51.273438 89.960938 Z M 256.835938 151.726562 C 256.601562 151.492188 256.136719 151.257812 255.671875 151.257812 L 119.5625 151.257812 C 119.097656 151.257812 118.628906 151.492188 118.398438 151.726562 C 118.164062 152.191406 117.929688 152.65625 118.164062 153.125 L 141.003906 291.328125 C 141.238281 292.027344 141.703125 292.726562 142.636719 292.726562 L 170.601562 292.726562 L 172.46875 315.335938 L 160.582031 315.335938 L 188.082031 342.835938 L 215.585938 315.335938 L 203.699219 315.335938 L 205.5625 292.960938 L 233.996094 292.960938 C 234.695312 292.960938 235.394531 292.496094 235.628906 291.5625 L 257.070312 153.355469 C 257.300781 152.425781 257.070312 151.957031 256.835938 151.726562 Z M 204.398438 262.429688 C 204.398438 262.429688 198.105469 268.722656 188.082031 268.023438 C 178.0625 268.722656 171.769531 262.429688 171.769531 262.429688 C 161.511719 252.175781 165.242188 239.589844 168.738281 233.0625 C 170.835938 228.867188 186.683594 205.328125 187.847656 203.464844 L 187.847656 203.230469 L 187.847656 203.464844 C 189.246094 205.5625 204.863281 229.101562 206.960938 233.0625 C 210.921875 239.589844 214.417969 252.175781 204.398438 262.429688 Z M 247.515625 180.859375 C 243.785156 179.226562 239.125 179.925781 234.695312 181.558594 C 217.914062 188.316406 206.261719 190.878906 188.546875 185.285156 C 177.363281 181.789062 166.875 174.566406 154.519531 178.992188 C 146.363281 182.023438 138.671875 184.820312 129.351562 184.585938 L 123.988281 157.085938 L 251.242188 157.085938 Z M 247.515625 180.859375 " fill-opacity="1" fill-rule="nonzero"/><path fill="#ffffff" d="M 106.742188 106.976562 L 112.570312 76.445312 L 118.398438 76.445312 L 124.222656 106.976562 L 118.863281 106.976562 L 117.929688 101.382812 L 112.570312 101.382812 L 111.636719 106.976562 Z M 113.269531 97.421875 L 117.464844 97.421875 L 115.367188 85.070312 Z M 130.75 87.863281 L 130.75 107.210938 L 126.320312 107.210938 L 126.320312 76.679688 L 131.449219 76.679688 L 137.042969 94.15625 L 137.042969 76.679688 L 141.238281 76.679688 L 141.238281 107.210938 L 136.808594 107.210938 Z M 160.347656 84.601562 L 160.347656 98.820312 C 160.347656 103.480469 158.484375 106.976562 152.890625 106.976562 L 144.964844 106.976562 L 144.964844 76.445312 L 152.890625 76.445312 C 158.484375 76.445312 160.347656 79.941406 160.347656 84.601562 Z M 152.425781 102.78125 C 154.519531 102.78125 155.453125 101.617188 155.453125 99.75 L 155.453125 83.671875 C 155.453125 81.804688 154.753906 80.640625 152.425781 80.640625 L 150.328125 80.640625 L 150.328125 102.78125 Z M 172 100.449219 L 172 96.253906 L 176.894531 96.253906 L 176.894531 100.449219 C 176.894531 102.082031 177.59375 103.246094 179.460938 103.246094 C 181.089844 103.246094 181.789062 102.082031 181.789062 100.449219 L 181.789062 99.285156 C 181.789062 97.421875 181.089844 96.488281 179.460938 94.855469 L 176.429688 91.828125 C 173.398438 89.03125 172.234375 87.164062 172.234375 83.671875 L 172.234375 82.738281 C 172.234375 79.007812 174.566406 75.980469 179.460938 75.980469 C 184.585938 75.980469 186.683594 78.542969 186.683594 82.972656 L 186.683594 85.535156 L 182.023438 85.535156 L 182.023438 82.972656 C 182.023438 81.105469 181.324219 80.40625 179.691406 80.40625 C 178.292969 80.40625 177.363281 81.105469 177.363281 82.972656 L 177.363281 83.671875 C 177.363281 85.300781 178.292969 86.464844 179.691406 87.863281 L 182.957031 91.128906 C 185.753906 93.925781 187.152344 95.789062 187.152344 99.050781 L 187.152344 100.449219 C 187.152344 104.644531 184.820312 107.675781 179.691406 107.675781 C 173.867188 107.441406 172 104.414062 172 100.449219 Z M 188.316406 106.976562 L 194.140625 76.445312 L 199.96875 76.445312 L 205.796875 106.976562 L 200.433594 106.976562 L 199.503906 101.382812 L 194.140625 101.382812 L 193.210938 106.976562 Z M 194.609375 97.421875 L 198.804688 97.421875 L 196.707031 85.070312 Z M 212.554688 87.863281 L 212.554688 107.210938 L 208.125 107.210938 L 208.125 76.679688 L 213.253906 76.679688 L 218.847656 94.15625 L 218.847656 76.679688 L 223.042969 76.679688 L 223.042969 107.210938 L 218.613281 107.210938 Z M 227.238281 76.445312 L 232.363281 76.445312 L 232.363281 106.976562 L 227.238281 106.976562 Z M 234.929688 76.445312 L 248.679688 76.445312 L 248.679688 80.640625 L 244.484375 80.640625 L 244.484375 106.976562 L 239.355469 106.976562 L 239.355469 80.640625 L 235.160156 80.640625 Z M 247.28125 106.976562 L 253.109375 76.445312 L 258.933594 76.445312 L 264.761719 106.976562 L 259.398438 106.976562 L 258.46875 101.382812 L 253.109375 101.382812 L 252.175781 106.976562 Z M 253.808594 97.421875 L 258 97.421875 L 255.90625 85.070312 Z M 263.128906 76.445312 L 276.878906 76.445312 L 276.878906 80.640625 L 272.683594 80.640625 L 272.683594 106.976562 L 267.558594 106.976562 L 267.558594 80.640625 L 263.363281 80.640625 Z M 279.675781 76.445312 L 284.804688 76.445312 L 284.804688 106.976562 L 279.675781 106.976562 Z M 288.066406 99.050781 L 288.066406 84.136719 C 288.066406 79.242188 290.398438 75.980469 295.757812 75.980469 C 301.117188 75.980469 303.683594 79.476562 303.683594 84.136719 L 303.683594 99.050781 C 303.683594 103.714844 301.351562 107.210938 295.757812 107.210938 C 290.628906 107.441406 288.066406 103.945312 288.066406 99.050781 Z M 298.554688 99.984375 L 298.554688 83.4375 C 298.554688 81.574219 297.855469 80.175781 295.992188 80.175781 C 294.125 80.175781 293.425781 81.574219 293.425781 83.4375 L 293.425781 99.984375 C 293.425781 101.847656 294.125 103.246094 295.992188 103.246094 C 297.855469 103.015625 298.554688 101.847656 298.554688 99.984375 Z M 311.605469 87.863281 L 311.605469 107.210938 L 307.179688 107.210938 L 307.179688 76.679688 L 312.304688 76.679688 L 317.898438 94.15625 L 317.898438 76.679688 L 322.09375 76.679688 L 322.09375 107.210938 L 317.667969 107.210938 Z M 311.605469 87.863281 " fill-opacity="1" fill-rule="nonzero"/><path fill="#ffffff" d="M 107.441406 53.835938 L 107.441406 38.921875 C 107.441406 34.027344 109.773438 30.765625 115.132812 30.765625 C 120.726562 30.765625 122.359375 34.027344 122.359375 38.457031 L 122.359375 42.183594 L 117.699219 42.183594 L 117.699219 38.222656 C 117.699219 36.359375 117 35.191406 115.132812 35.191406 C 113.269531 35.191406 112.570312 36.589844 112.570312 38.457031 L 112.570312 55.003906 C 112.570312 56.867188 113.269531 58.265625 115.132812 58.265625 C 117 58.265625 117.699219 57.101562 117.699219 55.234375 L 117.699219 49.644531 L 122.359375 49.644531 L 122.359375 55.003906 C 122.359375 59.429688 120.492188 62.695312 115.132812 62.695312 C 109.539062 62.226562 107.441406 58.730469 107.441406 53.835938 Z M 125.621094 31.230469 L 130.75 31.230469 L 130.75 57.566406 L 136.808594 57.566406 L 136.808594 61.761719 L 125.621094 61.761719 Z M 139.605469 31.230469 L 151.957031 31.230469 L 151.957031 35.425781 L 144.734375 35.425781 L 144.734375 44.28125 L 149.859375 44.28125 L 149.859375 48.476562 L 144.734375 48.476562 L 144.734375 57.800781 L 151.957031 57.800781 L 151.957031 61.996094 L 139.605469 61.996094 Z M 154.289062 61.761719 L 160.113281 31.230469 L 165.941406 31.230469 L 171.769531 61.761719 L 166.40625 61.761719 L 165.476562 56.167969 L 160.113281 56.167969 L 159.183594 61.761719 Z M 160.8125 52.207031 L 165.007812 52.207031 L 162.910156 39.855469 Z M 178.761719 42.652344 L 178.761719 61.996094 L 174.332031 61.996094 L 174.332031 31.464844 L 179.460938 31.464844 L 185.054688 48.945312 L 185.054688 31.464844 L 189.246094 31.464844 L 189.246094 61.996094 L 184.820312 61.996094 Z M 211.390625 42.882812 L 208.59375 61.761719 L 203.699219 61.761719 L 199.503906 31.230469 L 204.398438 31.230469 L 206.726562 50.574219 L 209.292969 31.230469 L 213.488281 31.230469 L 216.285156 50.574219 L 218.613281 31.230469 L 223.042969 31.230469 L 219.082031 61.761719 L 214.1875 61.761719 Z M 223.273438 61.761719 L 229.101562 31.230469 L 234.929688 31.230469 L 240.753906 61.761719 L 235.394531 61.761719 L 234.460938 56.167969 L 229.101562 56.167969 L 228.167969 61.761719 Z M 229.566406 52.207031 L 233.761719 52.207031 L 231.664062 39.855469 Z M 240.054688 31.230469 L 253.808594 31.230469 L 253.808594 35.425781 L 249.613281 35.425781 L 249.613281 61.761719 L 244.484375 61.761719 L 244.484375 35.425781 L 240.289062 35.425781 Z M 256.136719 31.230469 L 268.488281 31.230469 L 268.488281 35.425781 L 261.265625 35.425781 L 261.265625 44.28125 L 266.390625 44.28125 L 266.390625 48.476562 L 261.265625 48.476562 L 261.265625 57.800781 L 268.488281 57.800781 L 268.488281 61.996094 L 256.136719 61.996094 Z M 276.414062 47.777344 L 276.414062 61.761719 L 271.285156 61.761719 L 271.285156 31.230469 L 278.746094 31.230469 C 283.871094 31.230469 285.738281 33.792969 285.738281 37.988281 L 285.738281 41.953125 C 285.738281 45.214844 284.570312 47.078125 281.542969 47.777344 L 286.4375 61.761719 L 281.074219 61.761719 Z M 276.414062 35.425781 L 276.414062 44.980469 L 278.046875 44.980469 C 279.910156 44.980469 280.609375 44.050781 280.609375 42.417969 L 280.609375 37.988281 C 280.609375 36.359375 279.910156 35.425781 278.046875 35.425781 Z M 276.414062 35.425781 " fill-opacity="1" fill-rule="nonzero"/></svg>