<svg xmlns="http://www.w3.org/2000/svg" xmlns:xlink="http://www.w3.org/1999/xlink" width="500" zoomAndPan="magnify" viewBox="0 0 375 374.999991" height="500" preserveAspectRatio="xMidYMid meet" version="1.0"><rect x="-37.5" width="450" fill="#ffffff" y="-37.499999" height="449.999989" fill-opacity="1"/><rect x="-37.5" width="450" fill="#ffffff" y="-37.499999" height="449.999989" fill-opacity="1"/><rect x="-37.5" width="450" fill="#fcc30b" y="-37.499999" height="449.999989" fill-opacity="1"/><path fill="#ffffff" d="M 38.457031 41.71875 L 58.03125 41.71875 L 41.019531 106.976562 L 53.605469 106.976562 L 70.386719 43.117188 L 70.386719 31.464844 L 38.457031 31.464844 Z M 38.457031 41.71875 " fill-opacity="1" fill-rule="nonzero"/><path fill="#ffffff" d="M 106.277344 61.996094 L 112.105469 31.464844 L 117.929688 31.464844 L 123.757812 61.996094 L 118.398438 61.996094 L 117.464844 56.402344 L 112.105469 56.402344 L 111.171875 61.996094 Z M 112.804688 52.207031 L 117 52.207031 L 114.902344 39.855469 Z M 125.621094 31.464844 L 137.742188 31.464844 L 137.742188 35.660156 L 130.75 35.660156 L 130.75 44.515625 L 135.875 44.515625 L 135.875 48.710938 L 130.75 48.710938 L 130.75 62.226562 L 125.621094 62.226562 Z M 139.839844 31.464844 L 151.957031 31.464844 L 151.957031 35.660156 L 144.964844 35.660156 L 144.964844 44.515625 L 150.09375 44.515625 L 150.09375 48.710938 L 144.964844 48.710938 L 144.964844 62.226562 L 139.839844 62.226562 Z M 153.355469 54.070312 L 153.355469 39.15625 C 153.355469 34.261719 155.6875 30.996094 161.046875 30.996094 C 166.40625 30.996094 168.972656 34.492188 168.972656 39.15625 L 168.972656 54.070312 C 168.972656 58.730469 166.640625 62.226562 161.046875 62.226562 C 155.6875 62.460938 153.355469 58.730469 153.355469 54.070312 Z M 163.84375 55.003906 L 163.84375 38.457031 C 163.84375 36.589844 163.144531 35.191406 161.28125 35.191406 C 159.414062 35.191406 158.714844 36.589844 158.714844 38.457031 L 158.714844 55.003906 C 158.714844 56.867188 159.414062 58.265625 161.28125 58.265625 C 163.144531 58.03125 163.84375 56.867188 163.84375 55.003906 Z M 176.894531 48.011719 L 176.894531 61.996094 L 171.769531 61.996094 L 171.769531 31.464844 L 179.226562 31.464844 C 184.355469 31.464844 186.21875 34.027344 186.21875 38.222656 L 186.21875 42.183594 C 186.21875 45.449219 185.054688 47.3125 182.023438 48.011719 L 186.917969 61.996094 L 181.558594 61.996094 Z M 176.894531 35.660156 L 176.894531 45.214844 L 178.527344 45.214844 C 180.390625 45.214844 181.089844 44.28125 181.089844 42.652344 L 181.089844 38.222656 C 181.089844 36.589844 180.390625 35.660156 178.527344 35.660156 Z M 204.398438 39.621094 L 204.398438 53.835938 C 204.398438 58.5 202.53125 61.996094 196.9375 61.996094 L 189.015625 61.996094 L 189.015625 31.464844 L 196.9375 31.464844 C 202.300781 31.464844 204.398438 34.960938 204.398438 39.621094 Z M 196.238281 57.800781 C 198.335938 57.800781 199.269531 56.632812 199.269531 54.769531 L 199.269531 38.6875 C 199.269531 36.824219 198.570312 35.660156 196.238281 35.660156 L 194.140625 35.660156 L 194.140625 57.800781 Z M 205.5625 61.996094 L 211.390625 31.464844 L 217.214844 31.464844 L 223.042969 61.996094 L 217.683594 61.996094 L 216.75 56.402344 L 211.390625 56.402344 L 210.457031 61.996094 Z M 212.089844 52.207031 L 216.285156 52.207031 L 214.1875 39.855469 Z M 224.90625 31.464844 L 232.363281 31.464844 C 237.492188 31.464844 239.125 33.792969 239.125 38.222656 L 239.125 41.253906 C 239.125 43.816406 238.191406 45.449219 236.09375 46.148438 C 238.65625 46.847656 239.824219 48.476562 239.824219 51.273438 L 239.824219 55.234375 C 239.824219 59.664062 237.957031 61.996094 232.832031 61.996094 L 224.90625 61.996094 Z M 230.035156 44.28125 L 231.898438 44.28125 C 233.53125 44.28125 234.230469 43.351562 234.230469 41.71875 L 234.230469 37.988281 C 234.230469 36.359375 233.53125 35.425781 231.664062 35.425781 L 229.800781 35.425781 L 229.800781 44.28125 Z M 230.035156 48.246094 L 230.035156 57.800781 L 232.363281 57.800781 C 233.996094 57.800781 234.929688 56.867188 234.929688 55.234375 L 234.929688 50.574219 C 234.929688 48.945312 234.230469 48.011719 232.363281 48.011719 L 230.035156 48.011719 Z M 242.386719 31.464844 L 247.515625 31.464844 L 247.515625 57.800781 L 253.574219 57.800781 L 253.574219 61.996094 L 242.386719 61.996094 Z M 255.90625 31.464844 L 268.257812 31.464844 L 268.257812 35.660156 L 261.03125 35.660156 L 261.03125 44.515625 L 266.160156 44.515625 L 266.160156 48.710938 L 261.03125 48.710938 L 261.03125 58.03125 L 268.257812 58.03125 L 268.257812 62.226562 L 255.902344 62.226562 L 255.902344 31.464844 Z M 274.316406 61.996094 L 280.144531 31.464844 L 285.96875 31.464844 L 291.796875 61.996094 L 286.4375 61.996094 L 285.503906 56.402344 L 280.144531 56.402344 L 279.210938 61.996094 Z M 280.84375 52.207031 L 285.039062 52.207031 L 282.941406 39.855469 Z M 298.089844 42.652344 L 298.089844 61.996094 L 293.660156 61.996094 L 293.660156 31.464844 L 298.789062 31.464844 L 304.382812 48.945312 L 304.382812 31.464844 L 308.578125 31.464844 L 308.578125 61.996094 L 304.148438 61.996094 Z M 326.753906 39.621094 L 326.753906 53.835938 C 326.753906 58.5 324.890625 61.996094 319.296875 61.996094 L 311.375 61.996094 L 311.375 31.464844 L 319.296875 31.464844 C 324.890625 31.464844 326.753906 34.960938 326.753906 39.621094 Z M 318.832031 57.800781 C 320.929688 57.800781 321.863281 56.632812 321.863281 54.769531 L 321.863281 38.6875 C 321.863281 36.824219 321.164062 35.660156 318.832031 35.660156 L 316.734375 35.660156 L 316.734375 57.800781 Z M 318.832031 57.800781 " fill-opacity="1" fill-rule="nonzero"/><path fill="#ffffff" d="M 106.976562 99.050781 L 106.976562 84.371094 C 106.976562 79.707031 109.308594 76.210938 114.667969 76.210938 C 120.261719 76.210938 121.890625 79.476562 121.890625 83.902344 L 121.890625 87.398438 L 117.230469 87.398438 L 117.230469 83.4375 C 117.230469 81.574219 116.53125 80.40625 114.667969 80.40625 C 112.804688 80.40625 112.105469 81.804688 112.105469 83.671875 L 112.105469 99.984375 C 112.105469 101.847656 112.804688 103.246094 114.667969 103.246094 C 116.53125 103.246094 117.230469 102.082031 117.230469 100.21875 L 117.230469 94.625 L 121.890625 94.625 L 121.890625 99.984375 C 121.890625 104.414062 120.027344 107.675781 114.667969 107.675781 C 109.308594 107.441406 106.976562 103.945312 106.976562 99.050781 Z M 125.15625 76.445312 L 130.28125 76.445312 L 130.28125 102.78125 L 136.34375 102.78125 L 136.34375 106.976562 L 125.15625 106.976562 Z M 139.140625 76.445312 L 151.257812 76.445312 L 151.257812 80.640625 L 144.265625 80.640625 L 144.265625 89.261719 L 149.394531 89.261719 L 149.394531 93.457031 L 144.265625 93.457031 L 144.265625 102.78125 L 151.257812 102.78125 L 151.257812 106.976562 L 139.140625 106.976562 Z M 153.820312 106.976562 L 159.648438 76.445312 L 165.476562 76.445312 L 171.300781 106.976562 L 165.941406 106.976562 L 165.007812 101.382812 L 159.648438 101.382812 L 158.714844 106.976562 Z M 160.347656 97.421875 L 164.542969 97.421875 L 162.445312 85.070312 Z M 178.0625 87.863281 L 178.0625 106.976562 L 173.632812 106.976562 L 173.632812 76.445312 L 178.761719 76.445312 L 184.355469 93.925781 L 184.355469 76.445312 L 188.546875 76.445312 L 188.546875 106.976562 L 184.121094 106.976562 Z M 202.300781 76.445312 L 214.417969 76.445312 L 214.417969 80.640625 L 207.425781 80.640625 L 207.425781 89.261719 L 212.554688 89.261719 L 212.554688 93.457031 L 207.425781 93.457031 L 207.425781 102.78125 L 214.417969 102.78125 L 214.417969 106.976562 L 202.300781 106.976562 Z M 221.875 87.863281 L 221.875 106.976562 L 217.449219 106.976562 L 217.449219 76.445312 L 222.574219 76.445312 L 228.167969 93.925781 L 228.167969 76.445312 L 232.363281 76.445312 L 232.363281 106.976562 L 227.9375 106.976562 Z M 235.859375 76.445312 L 247.980469 76.445312 L 247.980469 80.640625 L 240.988281 80.640625 L 240.988281 89.261719 L 246.117188 89.261719 L 246.117188 93.457031 L 240.988281 93.457031 L 240.988281 102.78125 L 247.980469 102.78125 L 247.980469 106.976562 L 235.859375 106.976562 Z M 256.371094 92.992188 L 256.371094 106.976562 L 251.242188 106.976562 L 251.242188 76.445312 L 258.699219 76.445312 C 263.828125 76.445312 265.691406 79.007812 265.691406 83.203125 L 265.691406 87.164062 C 265.691406 90.429688 264.527344 92.292969 261.496094 92.992188 L 266.390625 106.742188 L 261.03125 106.742188 Z M 256.371094 80.640625 L 256.371094 90.195312 L 258 90.195312 C 259.867188 90.195312 260.566406 89.261719 260.566406 87.632812 L 260.566406 83.203125 C 260.566406 81.574219 259.867188 80.640625 258 80.640625 Z M 276.648438 90.660156 L 283.871094 90.660156 L 283.871094 106.976562 L 280.144531 106.976562 L 280.144531 103.714844 C 279.445312 106.042969 278.046875 107.441406 275.25 107.441406 C 270.820312 107.441406 268.722656 103.945312 268.722656 99.285156 L 268.722656 84.601562 C 268.722656 79.941406 271.054688 76.445312 276.414062 76.445312 C 282.007812 76.445312 283.640625 79.707031 283.640625 84.136719 L 283.640625 86.933594 L 278.976562 86.933594 L 278.976562 83.902344 C 278.976562 82.039062 278.277344 80.875 276.414062 80.875 C 274.550781 80.875 273.851562 82.273438 273.851562 84.136719 L 273.851562 100.449219 C 273.851562 102.316406 274.550781 103.714844 276.414062 103.714844 C 278.046875 103.714844 278.976562 102.78125 278.976562 100.683594 L 278.976562 95.324219 L 276.648438 95.324219 Z M 297.15625 95.324219 L 297.15625 106.976562 L 292.027344 106.976562 L 292.027344 95.324219 L 286.203125 76.445312 L 291.5625 76.445312 L 294.59375 88.097656 L 297.621094 76.445312 L 302.515625 76.445312 Z M 297.15625 95.324219 " fill-opacity="1" fill-rule="nonzero"/><path fill="#ffffff" d="M 187.847656 331.882812 C 190.414062 331.882812 192.277344 329.785156 192.277344 327.6875 L 192.277344 303.683594 C 192.277344 301.585938 190.179688 299.488281 187.847656 299.488281 C 185.285156 299.488281 183.421875 301.816406 183.421875 303.683594 L 183.421875 327.6875 C 183.421875 329.550781 185.519531 331.882812 187.847656 331.882812 M 187.382812 181.789062 C 157.085938 181.789062 132.378906 206.496094 132.378906 236.792969 C 132.378906 267.089844 157.085938 291.796875 187.382812 291.796875 C 217.683594 291.796875 242.386719 267.089844 242.386719 236.792969 C 242.386719 206.261719 217.914062 181.789062 187.382812 181.789062 M 183.421875 203.464844 C 183.421875 201.601562 185.285156 199.734375 187.617188 199.734375 C 189.945312 199.734375 191.578125 201.832031 191.578125 203.464844 L 191.578125 222.34375 C 191.578125 224.207031 189.714844 226.070312 187.617188 226.070312 C 185.285156 226.070312 183.421875 223.972656 183.421875 222.34375 Z M 187.382812 264.761719 C 171.535156 264.761719 158.714844 251.941406 158.714844 236.09375 C 158.714844 223.273438 167.105469 212.320312 178.761719 208.824219 L 178.761719 219.546875 C 172.699219 222.574219 168.503906 228.867188 168.503906 236.09375 C 168.503906 246.347656 176.894531 254.738281 187.152344 254.738281 C 197.40625 254.738281 205.796875 246.347656 205.796875 236.09375 C 205.796875 228.867188 201.601562 222.574219 195.539062 219.3125 L 195.539062 208.59375 C 207.195312 212.089844 215.585938 223.042969 215.585938 235.859375 C 216.050781 251.941406 203.230469 264.761719 187.382812 264.761719 M 124.457031 236.09375 C 124.457031 233.53125 122.359375 231.664062 120.261719 231.664062 L 96.023438 231.664062 C 93.925781 231.664062 91.828125 233.761719 91.828125 236.09375 C 91.828125 238.65625 94.15625 240.523438 96.023438 240.523438 L 120.027344 240.523438 C 122.125 240.753906 124.457031 238.65625 124.457031 236.09375 M 283.171875 236.09375 C 283.171875 233.53125 281.074219 231.664062 278.976562 231.664062 L 254.972656 231.664062 C 252.875 231.664062 250.777344 233.761719 250.777344 236.09375 C 250.777344 238.65625 253.109375 240.523438 254.972656 240.523438 L 278.976562 240.523438 C 280.84375 240.753906 283.171875 238.65625 283.171875 236.09375 M 187.382812 173.167969 C 189.945312 173.167969 191.8125 171.070312 191.8125 168.972656 L 191.8125 144.964844 C 191.8125 142.867188 189.714844 140.769531 187.382812 140.769531 C 184.820312 140.769531 182.957031 143.101562 182.957031 144.964844 L 182.957031 168.738281 C 182.957031 170.835938 185.054688 173.167969 187.382812 173.167969 M 132.613281 204.863281 C 133.777344 202.765625 132.847656 199.734375 131.214844 198.804688 L 110.238281 186.917969 C 108.375 185.984375 105.578125 186.453125 104.414062 188.78125 C 103.246094 190.878906 104.179688 193.910156 105.8125 194.839844 L 126.785156 206.726562 C 128.417969 207.660156 131.449219 206.960938 132.613281 204.863281 M 270.585938 283.640625 C 271.753906 281.542969 270.820312 278.511719 269.1875 277.578125 L 248.214844 265.691406 C 246.347656 264.761719 243.550781 265.226562 242.386719 267.558594 C 241.222656 269.65625 242.152344 272.683594 243.785156 273.617188 L 264.761719 285.503906 C 266.390625 286.4375 269.1875 285.96875 270.585938 283.640625 M 218.847656 181.324219 C 220.945312 182.488281 223.742188 181.558594 224.90625 179.925781 L 236.792969 158.949219 C 237.726562 157.085938 237.257812 154.289062 234.929688 153.125 C 232.832031 151.957031 229.800781 152.890625 228.867188 154.519531 L 216.984375 175.496094 C 216.050781 177.363281 216.75 180.160156 218.847656 181.324219 M 139.839844 319.296875 C 141.9375 320.464844 144.734375 319.53125 145.898438 317.898438 L 157.785156 296.921875 C 158.714844 295.058594 158.25 292.261719 155.917969 291.097656 C 153.820312 289.929688 150.792969 290.863281 149.859375 292.496094 L 137.972656 313.472656 C 137.042969 315.101562 137.742188 317.898438 139.839844 319.296875 M 155.917969 181.558594 C 158.015625 180.390625 158.714844 177.363281 157.785156 175.730469 L 145.898438 154.753906 C 144.964844 152.890625 141.9375 151.957031 139.839844 153.355469 C 137.742188 154.519531 137.042969 157.550781 137.972656 159.414062 L 149.859375 180.390625 C 151.027344 181.789062 153.820312 182.722656 155.917969 181.558594 M 235.160156 319.066406 C 237.257812 317.898438 237.957031 314.871094 237.027344 313.238281 L 225.140625 292.261719 C 224.207031 290.398438 221.179688 289.464844 219.082031 290.863281 C 216.984375 292.027344 216.285156 295.058594 217.214844 296.921875 L 229.101562 317.898438 C 230.035156 319.53125 233.0625 320.464844 235.160156 319.066406 M 242.152344 204.628906 C 243.320312 206.726562 246.347656 207.425781 247.980469 206.496094 L 268.957031 194.609375 C 270.820312 193.675781 271.753906 190.644531 270.355469 188.546875 C 269.1875 186.453125 266.160156 185.753906 264.292969 186.683594 L 243.320312 198.570312 C 241.921875 199.734375 240.988281 202.53125 242.152344 204.628906 M 104.644531 283.871094 C 105.8125 285.96875 108.839844 286.667969 110.472656 285.738281 L 131.449219 273.851562 C 133.3125 272.917969 134.246094 269.886719 132.847656 267.789062 C 131.679688 265.691406 128.652344 264.992188 126.785156 265.925781 L 105.8125 277.8125 C 104.179688 278.746094 103.246094 281.773438 104.644531 283.871094 " fill-opacity="1" fill-rule="nonzero"/></svg>