<svg xmlns="http://www.w3.org/2000/svg" xmlns:xlink="http://www.w3.org/1999/xlink" width="500" zoomAndPan="magnify" viewBox="0 0 375 374.999991" height="500" preserveAspectRatio="xMidYMid meet" version="1.0"><rect x="-37.5" width="450" fill="#ffffff" y="-37.499999" height="449.999989" fill-opacity="1"/><rect x="-37.5" width="450" fill="#ffffff" y="-37.499999" height="449.999989" fill-opacity="1"/><rect x="-37.5" width="450" fill="#a21942" y="-37.499999" height="449.999989" fill-opacity="1"/><path fill="#ffffff" d="M 72.949219 88.5625 L 72.949219 80.175781 C 72.949219 72.949219 70.386719 67.589844 64.558594 65.023438 C 69.6875 62.460938 72.015625 58.03125 72.015625 51.972656 L 72.015625 48.945312 C 72.015625 37.058594 65.957031 30.765625 54.070312 30.765625 C 42.417969 30.765625 36.359375 37.058594 36.359375 48.945312 L 36.359375 51.972656 C 36.359375 58.03125 38.6875 62.695312 43.582031 65.023438 C 37.757812 67.589844 35.191406 72.949219 35.191406 80.175781 L 35.191406 88.332031 C 35.191406 99.75 40.554688 107.910156 54.070312 107.910156 C 67.355469 108.140625 72.949219 99.984375 72.949219 88.5625 M 48.246094 48.011719 C 48.246094 43.351562 49.875 40.785156 53.835938 40.785156 C 58.03125 40.785156 59.664062 43.351562 59.664062 48.011719 L 59.664062 53.136719 C 59.664062 57.800781 58.03125 60.363281 53.835938 60.363281 C 49.644531 60.363281 48.246094 57.566406 48.246094 53.136719 Z M 60.128906 89.960938 C 60.128906 94.625 58.5 97.886719 53.835938 97.886719 C 49.410156 97.886719 47.777344 94.625 47.777344 89.960938 L 47.777344 77.609375 C 47.777344 72.949219 49.410156 69.917969 53.835938 69.917969 C 58.5 69.917969 60.128906 73.183594 60.128906 77.609375 Z M 60.128906 89.960938 " fill-opacity="1" fill-rule="nonzero"/><path fill="#ffffff" d="M 260.332031 184.585938 L 222.109375 220.945312 C 220.710938 222.34375 220.011719 223.507812 220.011719 226.304688 L 220.011719 327.921875 C 220.011719 329.085938 220.945312 330.019531 222.109375 330.019531 L 261.496094 330.019531 C 262.664062 330.019531 263.59375 329.085938 263.59375 327.921875 L 263.59375 185.519531 C 263.828125 184.121094 262.894531 182.023438 260.332031 184.585938 M 150.558594 231.664062 L 112.335938 268.023438 C 110.9375 269.421875 110.238281 270.585938 110.238281 273.382812 L 110.238281 327.6875 C 110.238281 328.851562 111.171875 329.785156 112.335938 329.785156 L 151.726562 329.785156 C 152.890625 329.785156 153.820312 328.851562 153.820312 327.6875 L 153.820312 232.597656 C 154.054688 231.433594 153.125 229.335938 150.558594 231.664062 " fill-opacity="1" fill-rule="nonzero"/><path fill="#ffffff" d="M 277.8125 140.539062 C 277.8125 140.304688 277.8125 139.839844 277.578125 139.605469 C 277.347656 139.371094 277.113281 139.371094 276.878906 139.371094 L 276.414062 139.371094 L 247.28125 145.898438 L 246.816406 145.898438 C 246.582031 145.898438 246.347656 146.132812 246.347656 146.132812 C 245.882812 146.597656 245.882812 147.296875 246.347656 147.761719 L 253.339844 154.753906 L 187.152344 220.945312 L 156.617188 190.414062 C 156.386719 190.179688 155.6875 190.179688 155.453125 190.414062 L 98.121094 247.746094 C 97.886719 247.980469 97.886719 248.679688 98.121094 248.914062 L 106.511719 257.300781 C 106.742188 257.535156 107.441406 257.535156 107.675781 257.300781 L 156.152344 209.058594 L 186.683594 239.589844 C 186.917969 239.824219 187.617188 239.824219 187.847656 239.589844 L 262.894531 164.542969 L 269.886719 171.535156 C 270.355469 172 271.054688 172 271.519531 171.535156 C 271.753906 171.300781 271.753906 171.070312 271.753906 170.835938 L 278.277344 141.003906 Z M 277.8125 140.539062 " fill-opacity="1" fill-rule="nonzero"/><path fill="#ffffff" d="M 205.796875 238.191406 L 187.382812 256.835938 C 186.917969 257.070312 186.453125 257.070312 186.21875 256.835938 L 169.4375 239.824219 C 166.40625 236.792969 165.707031 239.355469 165.707031 240.523438 L 165.707031 328.152344 C 165.707031 329.320312 166.640625 330.25 167.804688 330.25 L 207.195312 330.25 C 208.359375 330.25 209.292969 329.320312 209.292969 328.152344 L 209.292969 239.125 C 209.292969 237.492188 208.359375 235.394531 205.796875 238.191406 " fill-opacity="1" fill-rule="nonzero"/><path fill="#ffffff" d="M 116.300781 39.621094 L 116.300781 53.835938 C 116.300781 58.5 114.433594 61.996094 108.839844 61.996094 L 100.917969 61.996094 L 100.917969 31.464844 L 108.839844 31.464844 C 114.433594 31.464844 116.300781 34.960938 116.300781 39.621094 Z M 108.140625 57.800781 C 110.238281 57.800781 111.171875 56.632812 111.171875 54.769531 L 111.171875 38.6875 C 111.171875 36.824219 110.472656 35.660156 108.140625 35.660156 L 106.042969 35.660156 L 106.042969 57.800781 Z M 119.5625 31.464844 L 131.914062 31.464844 L 131.914062 35.660156 L 124.6875 35.660156 L 124.6875 44.515625 L 129.816406 44.515625 L 129.816406 48.710938 L 124.6875 48.710938 L 124.6875 58.03125 L 131.914062 58.03125 L 131.914062 62.226562 L 119.5625 62.226562 Z M 134.476562 54.070312 L 134.476562 39.15625 C 134.476562 34.261719 136.808594 30.996094 142.167969 30.996094 C 147.761719 30.996094 149.394531 34.261719 149.394531 38.6875 L 149.394531 42.417969 L 144.734375 42.417969 L 144.734375 38.222656 C 144.734375 36.359375 144.035156 35.191406 142.167969 35.191406 C 140.304688 35.191406 139.605469 36.589844 139.605469 38.457031 L 139.605469 55.003906 C 139.605469 56.867188 140.304688 58.265625 142.167969 58.265625 C 144.035156 58.265625 144.734375 57.101562 144.734375 55.234375 L 144.734375 49.644531 L 149.394531 49.644531 L 149.394531 55.003906 C 149.394531 59.429688 147.53125 62.695312 142.167969 62.695312 C 136.808594 62.460938 134.476562 58.730469 134.476562 54.070312 Z M 152.65625 31.464844 L 165.007812 31.464844 L 165.007812 35.660156 L 157.785156 35.660156 L 157.785156 44.515625 L 162.910156 44.515625 L 162.910156 48.710938 L 157.785156 48.710938 L 157.785156 58.03125 L 165.007812 58.03125 L 165.007812 62.226562 L 152.65625 62.226562 Z M 172.234375 42.652344 L 172.234375 61.996094 L 167.804688 61.996094 L 167.804688 31.464844 L 172.933594 31.464844 L 178.527344 48.945312 L 178.527344 31.464844 L 182.722656 31.464844 L 182.722656 61.996094 L 178.292969 61.996094 Z M 185.519531 31.464844 L 199.269531 31.464844 L 199.269531 35.660156 L 195.074219 35.660156 L 195.074219 61.996094 L 189.945312 61.996094 L 189.945312 35.660156 L 185.753906 35.660156 L 185.753906 31.464844 Z M 218.148438 43.117188 L 215.351562 61.996094 L 210.457031 61.996094 L 206.261719 31.464844 L 211.15625 31.464844 L 213.488281 50.808594 L 216.050781 31.464844 L 220.246094 31.464844 L 223.042969 50.808594 L 225.371094 31.464844 L 229.800781 31.464844 L 225.839844 61.996094 L 221.179688 61.996094 Z M 231.898438 54.070312 L 231.898438 39.15625 C 231.898438 34.261719 234.230469 30.996094 239.589844 30.996094 C 244.949219 30.996094 247.515625 34.492188 247.515625 39.15625 L 247.515625 54.070312 C 247.515625 58.730469 245.183594 62.226562 239.589844 62.226562 C 234.230469 62.460938 231.898438 58.730469 231.898438 54.070312 Z M 242.152344 55.003906 L 242.152344 38.457031 C 242.152344 36.589844 241.453125 35.191406 239.589844 35.191406 C 237.726562 35.191406 237.027344 36.589844 237.027344 38.457031 L 237.027344 55.003906 C 237.027344 56.867188 237.726562 58.265625 239.589844 58.265625 C 241.453125 58.03125 242.152344 56.867188 242.152344 55.003906 Z M 255.90625 48.011719 L 255.90625 61.996094 L 250.777344 61.996094 L 250.777344 31.464844 L 258.234375 31.464844 C 263.363281 31.464844 265.226562 34.027344 265.226562 38.222656 L 265.226562 42.183594 C 265.226562 45.449219 264.0625 47.3125 261.03125 48.011719 L 265.925781 61.996094 L 260.566406 61.996094 Z M 255.90625 35.660156 L 255.90625 45.214844 L 257.535156 45.214844 C 259.398438 45.214844 260.097656 44.28125 260.097656 42.652344 L 260.097656 38.222656 C 260.097656 36.589844 259.398438 35.660156 257.535156 35.660156 Z M 273.617188 47.078125 L 273.617188 61.996094 L 268.488281 61.996094 L 268.488281 31.464844 L 273.617188 31.464844 L 273.617188 44.980469 L 279.210938 31.464844 L 284.339844 31.464844 L 278.277344 45.214844 L 284.339844 61.996094 L 278.976562 61.996094 Z M 291.5625 61.996094 L 297.390625 31.464844 L 303.214844 31.464844 L 309.042969 61.996094 L 303.683594 61.996094 L 302.75 56.402344 L 297.390625 56.402344 L 296.457031 61.996094 Z M 298.089844 52.207031 L 302.285156 52.207031 L 300.1875 39.855469 Z M 315.101562 42.652344 L 315.101562 61.996094 L 310.675781 61.996094 L 310.675781 31.464844 L 315.800781 31.464844 L 321.394531 48.945312 L 321.394531 31.464844 L 325.589844 31.464844 L 325.589844 61.996094 L 321.164062 61.996094 Z M 344.46875 39.621094 L 344.46875 53.835938 C 344.46875 58.5 342.605469 61.996094 337.011719 61.996094 L 329.085938 61.996094 L 329.085938 31.464844 L 337.011719 31.464844 C 342.605469 31.464844 344.46875 34.960938 344.46875 39.621094 Z M 336.3125 57.800781 C 338.410156 57.800781 339.339844 56.632812 339.339844 54.769531 L 339.339844 38.6875 C 339.339844 36.824219 338.640625 35.660156 336.3125 35.660156 L 334.214844 35.660156 L 334.214844 57.800781 Z M 336.3125 57.800781 " fill-opacity="1" fill-rule="nonzero"/><path fill="#ffffff" d="M 100.917969 76.445312 L 113.269531 76.445312 L 113.269531 80.640625 L 106.042969 80.640625 L 106.042969 89.496094 L 111.171875 89.496094 L 111.171875 93.691406 L 106.042969 93.691406 L 106.042969 103.015625 L 113.269531 103.015625 L 113.269531 107.210938 L 100.917969 107.210938 Z M 115.367188 99.050781 L 115.367188 84.136719 C 115.367188 79.242188 117.699219 75.980469 123.058594 75.980469 C 128.652344 75.980469 130.28125 79.242188 130.28125 83.671875 L 130.28125 87.398438 L 125.621094 87.398438 L 125.621094 83.4375 C 125.621094 81.574219 124.921875 80.40625 123.058594 80.40625 C 121.191406 80.40625 120.492188 81.804688 120.492188 83.671875 L 120.492188 100.21875 C 120.492188 102.082031 121.191406 103.480469 123.058594 103.480469 C 124.921875 103.480469 125.621094 102.316406 125.621094 100.449219 L 125.621094 94.855469 L 130.28125 94.855469 L 130.28125 100.21875 C 130.28125 104.644531 128.417969 107.910156 123.058594 107.910156 C 117.699219 107.441406 115.367188 103.945312 115.367188 99.050781 Z M 133.078125 99.050781 L 133.078125 84.136719 C 133.078125 79.242188 135.410156 75.980469 140.769531 75.980469 C 146.132812 75.980469 148.695312 79.476562 148.695312 84.136719 L 148.695312 99.050781 C 148.695312 103.714844 146.363281 107.210938 140.769531 107.210938 C 135.644531 107.441406 133.078125 103.945312 133.078125 99.050781 Z M 143.566406 99.984375 L 143.566406 83.4375 C 143.566406 81.574219 142.867188 80.175781 141.003906 80.175781 C 139.140625 80.175781 138.441406 81.574219 138.441406 83.4375 L 138.441406 99.984375 C 138.441406 101.847656 139.140625 103.246094 141.003906 103.246094 C 142.867188 103.015625 143.566406 101.847656 143.566406 99.984375 Z M 156.152344 87.863281 L 156.152344 107.210938 L 151.726562 107.210938 L 151.726562 76.679688 L 156.851562 76.679688 L 162.445312 94.15625 L 162.445312 76.679688 L 166.640625 76.679688 L 166.640625 107.210938 L 162.210938 107.210938 Z M 169.671875 99.050781 L 169.671875 84.136719 C 169.671875 79.242188 172 75.980469 177.363281 75.980469 C 182.722656 75.980469 185.285156 79.476562 185.285156 84.136719 L 185.285156 99.050781 C 185.285156 103.714844 182.957031 107.210938 177.363281 107.210938 C 172 107.441406 169.671875 103.945312 169.671875 99.050781 Z M 179.925781 99.984375 L 179.925781 83.4375 C 179.925781 81.574219 179.226562 80.175781 177.363281 80.175781 C 175.496094 80.175781 174.796875 81.574219 174.796875 83.4375 L 174.796875 99.984375 C 174.796875 101.847656 175.496094 103.246094 177.363281 103.246094 C 179.226562 103.015625 179.925781 101.847656 179.925781 99.984375 Z M 202.300781 87.164062 L 198.570312 106.976562 L 196.238281 106.976562 L 192.511719 87.164062 L 192.511719 106.976562 L 188.316406 106.976562 L 188.316406 76.445312 L 194.375 76.445312 L 197.636719 93.691406 L 200.667969 76.445312 L 207.195312 76.445312 L 207.195312 106.976562 L 202.53125 106.976562 Z M 209.992188 76.445312 L 215.117188 76.445312 L 215.117188 106.976562 L 209.992188 106.976562 Z M 217.914062 99.050781 L 217.914062 84.136719 C 217.914062 79.242188 220.246094 75.980469 225.605469 75.980469 C 231.199219 75.980469 232.832031 79.242188 232.832031 83.671875 L 232.832031 87.398438 L 228.167969 87.398438 L 228.167969 83.4375 C 228.167969 81.574219 227.46875 80.40625 225.605469 80.40625 C 223.742188 80.40625 223.042969 81.804688 223.042969 83.671875 L 223.042969 100.21875 C 223.042969 102.082031 223.742188 103.480469 225.605469 103.480469 C 227.46875 103.480469 228.167969 102.316406 228.167969 100.449219 L 228.167969 94.855469 L 232.832031 94.855469 L 232.832031 100.21875 C 232.832031 104.644531 230.964844 107.910156 225.605469 107.910156 C 220.246094 107.441406 217.914062 103.945312 217.914062 99.050781 Z M 249.613281 90.660156 L 256.835938 90.660156 L 256.835938 106.976562 L 253.109375 106.976562 L 253.109375 103.714844 C 252.410156 106.042969 251.011719 107.441406 248.214844 107.441406 C 243.785156 107.441406 241.6875 103.945312 241.6875 99.285156 L 241.6875 84.371094 C 241.6875 79.476562 244.019531 76.210938 249.378906 76.210938 C 254.972656 76.210938 256.835938 79.476562 256.835938 83.902344 L 256.835938 86.699219 L 252.175781 86.699219 L 252.175781 83.671875 C 252.175781 81.804688 251.476562 80.640625 249.613281 80.640625 C 247.746094 80.640625 247.046875 82.039062 247.046875 83.902344 L 247.046875 100.449219 C 247.046875 102.316406 247.746094 103.714844 249.613281 103.714844 C 251.242188 103.714844 252.175781 102.78125 252.175781 100.683594 L 252.175781 95.324219 L 249.84375 95.324219 L 249.84375 90.660156 Z M 265.460938 92.992188 L 265.460938 106.976562 L 260.332031 106.976562 L 260.332031 76.445312 L 267.789062 76.445312 C 272.917969 76.445312 274.78125 79.007812 274.78125 83.203125 L 274.78125 87.164062 C 274.78125 90.429688 273.617188 92.292969 270.585938 92.992188 L 275.480469 106.976562 L 270.121094 106.976562 Z M 265.460938 80.640625 L 265.460938 90.195312 L 267.089844 90.195312 C 268.957031 90.195312 269.65625 89.261719 269.65625 87.632812 L 269.65625 83.203125 C 269.65625 81.574219 268.957031 80.640625 267.089844 80.640625 Z M 277.113281 99.050781 L 277.113281 84.136719 C 277.113281 79.242188 279.445312 75.980469 284.804688 75.980469 C 290.164062 75.980469 292.726562 79.476562 292.726562 84.136719 L 292.726562 99.050781 C 292.726562 103.714844 290.398438 107.210938 284.804688 107.210938 C 279.445312 107.441406 277.113281 103.945312 277.113281 99.050781 Z M 287.601562 99.984375 L 287.601562 83.4375 C 287.601562 81.574219 286.902344 80.175781 285.039062 80.175781 C 283.171875 80.175781 282.472656 81.574219 282.472656 83.4375 L 282.472656 99.984375 C 282.472656 101.847656 283.171875 103.246094 285.039062 103.246094 C 286.902344 103.015625 287.601562 101.847656 287.601562 99.984375 Z M 306.011719 88.097656 L 303.214844 106.976562 L 298.320312 106.976562 L 294.125 76.445312 L 299.019531 76.445312 L 301.351562 95.789062 L 303.914062 76.445312 L 308.109375 76.445312 L 310.90625 95.789062 L 313.238281 76.445312 L 317.667969 76.445312 L 313.703125 106.976562 L 308.808594 106.976562 Z M 319.53125 76.445312 L 333.28125 76.445312 L 333.28125 80.640625 L 329.085938 80.640625 L 329.085938 106.976562 L 323.726562 106.976562 L 323.726562 80.640625 L 319.53125 80.640625 Z M 344.933594 93.457031 L 340.039062 93.457031 L 340.039062 106.976562 L 334.914062 106.976562 L 334.914062 76.445312 L 340.039062 76.445312 L 340.039062 89.496094 L 344.933594 89.496094 L 344.933594 76.445312 L 350.0625 76.445312 L 350.0625 106.976562 L 344.933594 106.976562 Z M 344.933594 93.457031 " fill-opacity="1" fill-rule="nonzero"/></svg>