<svg xmlns="http://www.w3.org/2000/svg" xmlns:xlink="http://www.w3.org/1999/xlink" width="500" zoomAndPan="magnify" viewBox="0 0 375 374.999991" height="500" preserveAspectRatio="xMidYMid meet" version="1.0"><rect x="-37.5" width="450" fill="#ffffff" y="-37.499999" height="449.999989" fill-opacity="1"/><rect x="-37.5" width="450" fill="#ffffff" y="-37.499999" height="449.999989" fill-opacity="1"/><rect x="-37.5" width="450" fill="#fd6925" y="-37.499999" height="449.999989" fill-opacity="1"/><path fill="#ffffff" d="M 68.753906 50.34375 C 68.753906 38.6875 63.625 30.066406 50.34375 30.066406 C 36.824219 30.066406 31.695312 37.523438 31.695312 49.175781 L 31.695312 60.363281 C 31.695312 72.714844 36.589844 79.007812 45.679688 79.007812 C 51.042969 79.007812 54.304688 76.445312 56.167969 72.949219 L 56.167969 89.261719 C 56.167969 93.925781 54.304688 96.953125 49.875 96.953125 C 45.214844 96.953125 43.582031 94.390625 43.582031 89.496094 L 43.582031 84.371094 L 31.929688 84.371094 L 31.929688 88.332031 C 31.929688 99.519531 35.890625 107.210938 50.109375 107.210938 C 63.394531 107.210938 68.753906 98.585938 68.753906 86.699219 Z M 56.167969 61.996094 C 55.933594 66.191406 54.070312 68.988281 50.109375 68.988281 C 45.679688 68.988281 44.050781 66.421875 44.050781 61.296875 L 44.050781 48.246094 C 44.050781 43.351562 45.914062 40.554688 50.109375 40.554688 C 54.304688 40.554688 55.933594 43.351562 55.933594 48.246094 L 55.933594 61.996094 Z M 281.308594 246.582031 L 236.792969 220.945312 L 236.792969 169.4375 C 236.792969 168.273438 236.328125 167.339844 235.160156 166.875 L 189.015625 140.304688 C 188.082031 139.839844 186.917969 139.839844 185.984375 140.304688 L 139.839844 166.875 C 138.90625 167.339844 138.207031 168.503906 138.207031 169.4375 L 138.207031 220.945312 L 93.691406 246.582031 C 92.757812 247.046875 92.058594 248.214844 92.058594 249.144531 L 92.058594 302.285156 C 92.058594 303.449219 92.527344 304.382812 93.691406 304.847656 L 139.839844 331.417969 C 140.304688 331.648438 140.769531 331.882812 141.46875 331.882812 C 141.9375 331.882812 142.636719 331.648438 143.101562 331.417969 L 187.617188 305.78125 L 232.132812 331.417969 C 232.597656 331.648438 233.0625 331.882812 233.761719 331.882812 C 234.460938 331.882812 234.929688 331.648438 235.394531 331.417969 L 281.542969 304.847656 C 282.472656 304.382812 283.171875 303.214844 283.171875 302.285156 L 283.171875 249.144531 C 282.707031 247.980469 282.242188 247.046875 281.308594 246.582031 Z M 184.355469 297.15625 L 147.296875 275.714844 L 184.355469 254.273438 Z M 227.46875 222.574219 L 190.414062 244.019531 L 190.414062 201.367188 Z M 184.355469 243.785156 L 147.296875 222.34375 L 184.355469 200.902344 Z M 193.675781 249.144531 L 233.761719 226.070312 L 273.851562 249.144531 L 233.761719 272.21875 Z M 230.5 217.214844 L 193.441406 195.773438 L 230.5 174.332031 Z M 181.324219 196.007812 L 144.265625 217.449219 L 144.265625 174.796875 Z M 138.441406 323.726562 L 98.351562 300.652344 L 98.351562 254.507812 L 138.441406 277.578125 Z M 144.5 323.726562 L 144.5 281.074219 L 181.558594 302.515625 Z M 276.648438 300.652344 L 236.558594 323.726562 L 236.558594 277.578125 L 276.648438 254.507812 Z M 276.648438 300.652344 " fill-opacity="1" fill-rule="nonzero"/><path fill="#ffffff" d="M 88.5625 31.929688 L 93.457031 31.929688 L 93.457031 60.363281 L 88.5625 60.363281 Z M 100.21875 42.652344 L 100.21875 60.597656 L 96.253906 60.597656 L 96.253906 32.164062 L 100.917969 32.164062 L 106.042969 48.476562 L 106.042969 32.164062 L 110.007812 32.164062 L 110.007812 60.597656 L 105.8125 60.597656 Z M 127.253906 39.621094 L 127.253906 52.90625 C 127.253906 57.332031 125.386719 60.597656 120.261719 60.597656 L 112.804688 60.597656 L 112.804688 32.164062 L 120.261719 32.164062 C 125.621094 31.929688 127.253906 35.191406 127.253906 39.621094 Z M 119.792969 56.632812 C 121.660156 56.632812 122.589844 55.46875 122.589844 53.835938 L 122.589844 38.921875 C 122.589844 37.289062 121.890625 36.125 119.792969 36.125 L 117.699219 36.125 L 117.699219 56.867188 Z M 144.265625 31.929688 L 144.265625 53.371094 C 144.265625 57.800781 142.402344 60.597656 137.507812 60.597656 C 132.378906 60.597656 130.28125 57.800781 130.28125 53.371094 L 130.28125 31.929688 L 135.175781 31.929688 L 135.175781 53.835938 C 135.175781 55.46875 135.875 56.632812 137.507812 56.632812 C 139.140625 56.632812 139.839844 55.46875 139.839844 53.835938 L 139.839844 31.929688 Z M 146.832031 54.304688 L 146.832031 50.574219 L 151.257812 50.574219 L 151.257812 54.535156 C 151.257812 56.167969 151.957031 57.101562 153.589844 57.101562 C 154.988281 57.101562 155.6875 56.167969 155.6875 54.535156 L 155.6875 53.371094 C 155.6875 51.738281 154.988281 50.808594 153.589844 49.410156 L 150.792969 46.613281 C 147.996094 43.816406 146.832031 42.183594 146.832031 38.921875 L 146.832031 37.988281 C 146.832031 34.492188 148.929688 31.695312 153.589844 31.695312 C 158.484375 31.695312 160.347656 34.027344 160.347656 38.222656 L 160.347656 40.554688 L 155.917969 40.554688 L 155.917969 37.988281 C 155.917969 36.359375 155.21875 35.660156 153.589844 35.660156 C 152.191406 35.660156 151.257812 36.359375 151.257812 37.988281 L 151.257812 38.6875 C 151.257812 40.320312 152.191406 41.253906 153.589844 42.652344 L 156.617188 45.679688 C 159.183594 48.246094 160.582031 49.875 160.582031 53.136719 L 160.582031 54.535156 C 160.582031 58.5 158.484375 61.296875 153.589844 61.296875 C 148.695312 60.828125 146.832031 58.03125 146.832031 54.304688 Z M 161.746094 31.929688 L 174.566406 31.929688 L 174.566406 35.890625 L 170.601562 35.890625 L 170.601562 60.363281 L 165.707031 60.363281 L 165.707031 35.890625 L 161.746094 35.890625 Z M 181.558594 47.3125 L 181.558594 60.363281 L 176.894531 60.363281 L 176.894531 31.929688 L 183.886719 31.929688 C 188.78125 31.929688 190.414062 34.261719 190.414062 38.222656 L 190.414062 41.953125 C 190.414062 44.980469 189.246094 46.847656 186.683594 47.546875 L 191.34375 60.363281 L 186.21875 60.363281 Z M 181.558594 35.890625 L 181.558594 44.75 L 183.1875 44.75 C 184.820312 44.75 185.519531 43.816406 185.519531 42.417969 L 185.519531 38.222656 C 185.519531 36.589844 184.820312 35.890625 183.1875 35.890625 Z M 201.601562 49.644531 L 201.601562 60.363281 L 196.707031 60.363281 L 196.707031 49.644531 L 191.34375 31.929688 L 196.238281 31.929688 L 199.035156 42.652344 L 201.832031 31.929688 L 206.496094 31.929688 Z M 211.621094 56.167969 L 209.292969 62.695312 L 206.496094 62.695312 L 207.195312 55.933594 L 211.621094 55.933594 Z M 219.3125 31.929688 L 224.207031 31.929688 L 224.207031 60.363281 L 219.3125 60.363281 Z M 230.964844 42.652344 L 230.964844 60.597656 L 227.003906 60.597656 L 227.003906 32.164062 L 231.664062 32.164062 L 236.792969 48.476562 L 236.792969 32.164062 L 240.753906 32.164062 L 240.753906 60.597656 L 236.558594 60.597656 Z M 247.746094 42.652344 L 247.746094 60.597656 L 243.785156 60.597656 L 243.785156 32.164062 L 248.445312 32.164062 L 253.574219 48.476562 L 253.574219 32.164062 L 257.535156 32.164062 L 257.535156 60.597656 L 253.339844 60.597656 Z M 260.566406 53.136719 L 260.566406 39.386719 C 260.566406 34.960938 262.664062 31.695312 267.789062 31.695312 C 272.917969 31.695312 275.015625 34.960938 275.015625 39.386719 L 275.015625 53.136719 C 275.015625 57.566406 272.917969 60.828125 267.789062 60.828125 C 262.664062 60.828125 260.566406 57.566406 260.566406 53.136719 Z M 270.355469 53.835938 L 270.355469 38.457031 C 270.355469 36.824219 269.65625 35.425781 267.789062 35.425781 C 266.160156 35.425781 265.460938 36.589844 265.460938 38.457031 L 265.460938 53.835938 C 265.460938 55.46875 266.160156 56.867188 267.789062 56.867188 C 269.421875 56.867188 270.355469 55.703125 270.355469 53.835938 Z M 293.425781 31.929688 L 288.066406 60.363281 L 282.941406 60.363281 L 277.578125 31.929688 L 282.472656 31.929688 L 285.738281 51.738281 L 289 31.929688 Z M 292.726562 60.363281 L 298.089844 31.929688 L 303.449219 31.929688 L 308.808594 60.363281 L 303.914062 60.363281 L 302.984375 55.234375 L 298.089844 55.234375 L 297.15625 60.363281 Z M 298.554688 51.507812 L 302.285156 51.507812 L 300.417969 40.085938 Z M 308.34375 31.929688 L 321.164062 31.929688 L 321.164062 35.890625 L 317.199219 35.890625 L 317.199219 60.363281 L 312.304688 60.363281 L 312.304688 35.890625 L 308.34375 35.890625 Z M 323.492188 31.929688 L 328.386719 31.929688 L 328.386719 60.363281 L 323.492188 60.363281 Z M 331.417969 53.136719 L 331.417969 39.386719 C 331.417969 34.960938 333.515625 31.695312 338.640625 31.695312 C 343.769531 31.695312 345.867188 34.960938 345.867188 39.386719 L 345.867188 53.136719 C 345.867188 57.566406 343.769531 60.828125 338.640625 60.828125 C 333.515625 60.828125 331.417969 57.566406 331.417969 53.136719 Z M 340.972656 53.835938 L 340.972656 38.457031 C 340.972656 36.824219 340.273438 35.425781 338.410156 35.425781 C 336.777344 35.425781 336.078125 36.589844 336.078125 38.457031 L 336.078125 53.835938 C 336.078125 55.46875 336.777344 56.867188 338.410156 56.867188 C 340.273438 56.867188 340.972656 55.703125 340.972656 53.835938 Z M 352.859375 42.652344 L 352.859375 60.597656 L 348.898438 60.597656 L 348.898438 32.164062 L 353.558594 32.164062 L 358.683594 48.476562 L 358.683594 32.164062 L 362.648438 32.164062 L 362.648438 60.597656 L 358.453125 60.597656 Z M 352.859375 42.652344 " fill-opacity="1" fill-rule="nonzero"/><path fill="#ffffff" d="M 87.632812 105.578125 L 92.992188 77.144531 L 98.351562 77.144531 L 103.714844 105.578125 L 98.820312 105.578125 L 97.886719 100.449219 L 92.992188 100.449219 L 92.058594 105.578125 Z M 93.691406 96.488281 L 97.421875 96.488281 L 95.554688 85.070312 Z M 109.773438 87.632812 L 109.773438 105.578125 L 105.8125 105.578125 L 105.8125 77.144531 L 110.472656 77.144531 L 115.601562 93.457031 L 115.601562 77.144531 L 119.5625 77.144531 L 119.5625 105.578125 L 115.367188 105.578125 Z M 136.808594 84.601562 L 136.808594 97.886719 C 136.808594 102.316406 134.945312 105.578125 129.816406 105.578125 L 122.359375 105.578125 L 122.359375 77.144531 L 129.816406 77.144531 C 134.945312 77.144531 136.808594 80.40625 136.808594 84.601562 Z M 129.351562 101.617188 C 131.214844 101.617188 132.148438 100.449219 132.148438 98.820312 L 132.148438 83.902344 C 132.148438 82.273438 131.449219 81.105469 129.351562 81.105469 L 127.253906 81.105469 L 127.253906 101.847656 Z M 144.265625 77.144531 L 149.160156 77.144531 L 149.160156 105.578125 L 144.265625 105.578125 Z M 156.152344 87.632812 L 156.152344 105.578125 L 152.191406 105.578125 L 152.191406 77.144531 L 156.851562 77.144531 L 161.980469 93.457031 L 161.980469 77.144531 L 165.941406 77.144531 L 165.941406 105.578125 L 161.746094 105.578125 Z M 168.972656 77.144531 L 180.160156 77.144531 L 180.160156 81.105469 L 173.632812 81.105469 L 173.632812 89.261719 L 178.527344 89.261719 L 178.527344 93.226562 L 173.632812 93.226562 L 173.632812 105.8125 L 168.738281 105.8125 Z M 187.152344 92.527344 L 187.152344 105.578125 L 182.257812 105.578125 L 182.257812 77.144531 L 189.246094 77.144531 C 194.140625 77.144531 195.773438 79.476562 195.773438 83.4375 L 195.773438 87.164062 C 195.773438 90.195312 194.609375 92.058594 192.042969 92.757812 L 196.707031 105.578125 L 191.578125 105.578125 Z M 187.152344 80.875 L 187.152344 89.730469 L 188.78125 89.730469 C 190.414062 89.730469 191.113281 88.796875 191.113281 87.398438 L 191.113281 83.203125 C 191.113281 81.574219 190.414062 80.875 188.78125 80.875 Z M 198.105469 105.578125 L 203.464844 77.144531 L 208.824219 77.144531 L 214.1875 105.578125 L 209.292969 105.578125 L 208.359375 100.449219 L 203.230469 100.449219 L 202.300781 105.578125 Z M 203.929688 96.488281 L 207.660156 96.488281 L 205.796875 85.070312 Z M 215.816406 99.285156 L 215.816406 95.554688 L 220.246094 95.554688 L 220.246094 99.519531 C 220.246094 101.148438 220.945312 102.082031 222.574219 102.082031 C 223.972656 102.082031 224.671875 101.148438 224.671875 99.519531 L 224.671875 98.351562 C 224.671875 96.722656 223.972656 95.789062 222.574219 94.390625 L 219.78125 91.59375 C 216.984375 88.796875 215.816406 87.164062 215.816406 83.902344 L 215.816406 82.972656 C 215.816406 79.476562 217.914062 76.679688 222.574219 76.679688 C 227.46875 76.679688 229.335938 79.007812 229.335938 83.203125 L 229.335938 85.535156 L 224.90625 85.535156 L 224.90625 82.972656 C 224.90625 81.339844 224.207031 80.640625 222.574219 80.640625 C 221.179688 80.640625 220.246094 81.339844 220.246094 82.972656 L 220.246094 83.671875 C 220.246094 85.300781 221.179688 86.234375 222.574219 87.632812 L 225.605469 90.660156 C 228.167969 93.226562 229.566406 94.855469 229.566406 98.121094 L 229.566406 99.519531 C 229.566406 103.480469 227.46875 106.277344 222.574219 106.277344 C 217.683594 106.277344 215.816406 103.015625 215.816406 99.285156 Z M 230.964844 77.144531 L 243.785156 77.144531 L 243.785156 81.105469 L 239.824219 81.105469 L 239.824219 105.578125 L 234.929688 105.578125 L 234.929688 81.105469 L 230.964844 81.105469 Z M 251.011719 92.527344 L 251.011719 105.578125 L 246.117188 105.578125 L 246.117188 77.144531 L 253.109375 77.144531 C 258 77.144531 259.632812 79.476562 259.632812 83.4375 L 259.632812 87.164062 C 259.632812 90.195312 258.46875 92.058594 255.90625 92.757812 L 260.566406 105.578125 L 255.4375 105.578125 Z M 251.011719 80.875 L 251.011719 89.730469 L 252.640625 89.730469 C 254.273438 89.730469 254.972656 88.796875 254.972656 87.398438 L 254.972656 83.203125 C 254.972656 81.574219 254.273438 80.875 252.640625 80.875 Z M 276.414062 77.144531 L 276.414062 98.585938 C 276.414062 103.015625 274.550781 105.8125 269.65625 105.8125 C 264.527344 105.8125 262.429688 103.015625 262.429688 98.585938 L 262.429688 77.144531 L 267.324219 77.144531 L 267.324219 99.050781 C 267.324219 100.683594 268.023438 101.847656 269.65625 101.847656 C 271.285156 101.847656 271.984375 100.683594 271.984375 99.050781 L 271.984375 77.144531 Z M 279.445312 98.121094 L 279.445312 84.371094 C 279.445312 79.941406 281.542969 76.679688 286.667969 76.679688 C 292.027344 76.679688 293.425781 79.707031 293.425781 83.902344 L 293.425781 87.164062 L 289 87.164062 L 289 83.4375 C 289 81.574219 288.300781 80.640625 286.667969 80.640625 C 285.039062 80.640625 284.339844 81.804688 284.339844 83.671875 L 284.339844 99.050781 C 284.339844 100.683594 285.039062 102.082031 286.667969 102.082031 C 288.300781 102.082031 289 100.917969 289 99.285156 L 289 93.925781 L 293.425781 93.925781 L 293.425781 98.820312 C 293.425781 102.78125 291.796875 105.8125 286.667969 105.8125 C 281.542969 105.8125 279.445312 102.546875 279.445312 98.121094 Z M 294.359375 77.144531 L 307.179688 77.144531 L 307.179688 81.105469 L 303.214844 81.105469 L 303.214844 105.578125 L 298.320312 105.578125 L 298.320312 81.105469 L 294.359375 81.105469 Z M 323.492188 77.144531 L 323.492188 98.585938 C 323.492188 103.015625 321.628906 105.8125 316.734375 105.8125 C 311.605469 105.8125 309.507812 103.015625 309.507812 98.585938 L 309.507812 77.144531 L 314.402344 77.144531 L 314.402344 99.050781 C 314.402344 100.683594 315.101562 101.847656 316.734375 101.847656 C 318.367188 101.847656 319.066406 100.683594 319.066406 99.050781 L 319.066406 77.144531 Z M 331.183594 92.527344 L 331.183594 105.578125 L 326.289062 105.578125 L 326.289062 77.144531 L 333.28125 77.144531 C 338.175781 77.144531 339.808594 79.476562 339.808594 83.4375 L 339.808594 87.164062 C 339.808594 90.195312 338.640625 92.058594 336.078125 92.757812 L 340.738281 105.578125 L 335.613281 105.578125 Z M 331.183594 80.875 L 331.183594 89.730469 L 332.816406 89.730469 C 334.445312 89.730469 335.144531 88.796875 335.144531 87.398438 L 335.144531 83.203125 C 335.144531 81.574219 334.445312 80.875 332.816406 80.875 Z M 342.835938 77.144531 L 354.257812 77.144531 L 354.257812 81.105469 L 347.730469 81.105469 L 347.730469 89.261719 L 352.394531 89.261719 L 352.394531 93.226562 L 347.730469 93.226562 L 347.730469 101.847656 L 354.257812 101.847656 L 354.257812 105.8125 L 342.835938 105.8125 Z M 342.835938 77.144531 " fill-opacity="1" fill-rule="nonzero"/></svg>